{"glyphs":{"0":{"ha":833,"x_min":82,"x_max":751,"o":"m 417 -11 q 167 116 253 -11 q 82 489 82 243 q 167 863 82 736 q 417 990 253 990 q 666 864 581 990 q 751 490 751 738 q 666 117 751 244 q 417 -11 581 -11 m 417 58 q 610 164 547 58 q 672 490 672 269 q 610 817 672 713 q 417 921 547 921 q 224 816 286 921 q 161 490 161 711 q 224 165 161 271 q 417 58 286 58 z "},"1":{"ha":833,"x_min":188,"x_max":710,"o":"m 411 33 l 411 953 l 457 910 l 249 771 q 215 771 231 758 q 197 804 200 783 q 213 838 193 825 l 421 976 q 464 984 442 992 q 486 946 486 976 l 486 33 l 411 33 m 222 0 q 188 33 188 0 q 222 67 188 67 l 675 67 q 710 33 710 67 q 675 0 710 0 l 222 0 z "},"2":{"ha":833,"x_min":100,"x_max":749,"o":"m 158 0 q 122 22 131 0 q 132 63 114 43 l 478 449 q 621 736 621 611 q 422 922 621 922 q 288 897 353 922 q 154 813 222 872 q 139 803 146 806 q 125 800 132 800 q 107 810 114 800 q 100 833 100 819 q 117 871 100 854 q 253 958 171 925 q 422 990 335 990 q 624 923 550 990 q 697 739 697 856 q 658 574 697 654 q 529 396 619 494 l 181 13 l 181 67 l 714 67 q 749 33 749 67 q 714 0 749 0 l 158 0 z "},"3":{"ha":833,"x_min":85,"x_max":718,"o":"m 413 -10 q 238 23 321 -10 q 101 110 156 56 q 85 147 85 126 q 92 171 85 161 q 110 181 100 181 q 124 178 117 181 q 139 168 131 175 q 274 83 208 108 q 413 58 339 58 q 642 263 642 58 q 394 464 642 464 l 324 464 q 290 481 299 464 q 290 514 282 497 q 324 531 299 531 l 374 531 q 556 586 490 531 q 621 743 621 642 q 422 922 621 922 q 288 897 353 922 q 154 813 222 872 q 139 803 146 806 q 125 800 132 800 q 107 810 114 800 q 100 833 100 819 q 117 871 100 854 q 253 958 171 925 q 422 990 335 990 q 624 924 550 990 q 697 743 699 857 q 647 585 696 651 q 511 496 597 519 l 504 510 q 718 264 718 469 q 635 63 718 136 q 413 -10 553 -10 z "},"4":{"ha":833,"x_min":67,"x_max":782,"o":"m 585 -7 q 557 4 567 -7 q 547 33 547 15 l 547 886 l 578 886 l 128 235 l 129 292 l 747 292 q 782 258 782 292 q 747 225 782 225 l 108 225 q 74 244 81 225 q 82 288 67 264 l 553 969 q 579 986 563 983 q 609 979 596 989 q 622 946 622 969 l 622 33 q 613 4 622 15 q 585 -7 603 -7 z "},"5":{"ha":833,"x_min":118,"x_max":756,"o":"m 440 -10 q 271 23 353 -10 q 135 110 189 56 q 118 147 118 126 q 126 171 118 161 q 143 181 133 181 q 157 178 150 181 q 172 168 164 175 q 306 83 242 108 q 440 58 371 58 q 614 124 550 58 q 678 299 678 189 q 615 472 678 406 q 444 539 551 539 q 224 424 301 539 q 177 401 206 397 q 149 436 149 406 l 149 943 q 186 979 149 979 l 692 979 q 726 946 726 979 q 692 913 726 913 l 224 913 l 224 472 l 200 475 q 446 607 279 607 q 672 522 588 607 q 756 299 756 436 q 668 77 756 164 q 440 -10 581 -10 z "},"6":{"ha":832,"x_min":86,"x_max":758,"o":"m 446 -11 q 179 111 272 -11 q 86 461 86 233 q 182 851 86 713 q 451 990 278 990 q 610 958 533 990 q 742 871 688 925 q 758 833 758 854 q 751 810 758 819 q 733 800 744 800 q 719 803 726 800 q 704 813 713 806 q 573 897 636 872 q 451 922 510 922 q 239 801 315 922 q 163 461 163 681 l 163 317 l 147 354 q 246 538 163 469 q 446 607 329 607 q 669 522 583 607 q 754 299 754 438 q 667 76 754 164 q 446 -11 581 -11 m 443 57 q 613 123 549 57 q 676 299 676 189 q 612 473 676 407 q 442 539 547 539 q 266 472 335 539 q 197 299 197 406 q 265 124 197 190 q 443 57 333 57 z "},"7":{"ha":833,"x_min":97,"x_max":740,"o":"m 254 13 q 222 -9 242 -10 q 190 8 201 -8 q 190 47 178 24 l 674 969 l 678 913 l 131 913 q 97 946 97 913 q 131 979 97 979 l 700 979 q 734 960 728 979 q 728 918 740 942 l 254 13 z "},"8":{"ha":833,"x_min":75,"x_max":758,"o":"m 417 -10 q 163 62 250 -10 q 75 257 75 133 q 136 426 75 358 q 303 511 197 494 l 293 492 q 151 577 206 513 q 97 732 97 642 q 180 920 97 850 q 417 990 263 990 q 653 920 571 990 q 736 732 736 850 q 682 577 736 642 q 540 492 628 513 l 531 511 q 697 426 636 494 q 758 257 758 358 q 671 62 758 133 q 417 -10 583 -10 m 417 58 q 681 260 681 58 q 417 463 681 463 q 153 260 153 463 q 417 58 153 58 m 417 531 q 597 583 536 531 q 658 729 658 636 q 597 871 658 819 q 417 922 536 922 q 236 871 297 922 q 175 729 175 819 q 236 583 175 636 q 417 531 297 531 z "},"9":{"ha":833,"x_min":75,"x_max":747,"o":"m 382 -11 q 223 22 300 -11 q 92 108 146 54 q 75 146 75 125 q 82 169 75 160 q 100 179 89 179 q 114 176 107 179 q 129 167 121 174 q 260 82 197 107 q 382 57 324 57 q 594 178 518 57 q 671 518 671 300 l 671 663 l 686 625 q 588 441 671 510 q 388 372 504 372 q 165 457 250 372 q 79 681 79 542 q 166 903 79 815 q 388 990 253 990 q 654 867 561 990 q 747 518 747 744 q 651 128 747 267 q 382 -11 556 -11 m 392 440 q 567 508 499 440 q 636 681 636 575 q 568 856 636 789 q 390 922 500 922 q 221 856 285 922 q 157 681 157 790 q 222 506 157 572 q 392 440 286 440 z "},"A":{"ha":997,"x_min":42,"x_max":956,"o":"m 118 17 q 88 -7 108 -6 q 55 5 68 -8 q 50 39 42 18 l 457 960 q 481 984 464 978 q 516 984 499 990 q 540 960 533 978 l 947 39 q 942 5 956 18 q 910 -7 929 -8 q 881 17 890 -6 l 482 925 l 517 925 l 118 17 m 215 265 l 238 332 l 763 332 l 786 265 l 215 265 z "},"Á":{"ha":997,"x_min":42,"x_max":956,"o":"m 118 17 q 88 -7 108 -6 q 55 5 68 -8 q 50 39 42 18 l 457 960 q 481 984 464 978 q 516 984 499 990 q 540 960 533 978 l 947 39 q 942 5 956 18 q 910 -7 929 -8 q 881 17 890 -6 l 482 925 l 517 925 l 118 17 m 215 265 l 238 332 l 763 332 l 786 265 l 215 265 m 515 1061 q 483 1062 497 1047 q 483 1094 468 1076 l 628 1257 q 665 1278 646 1278 q 697 1267 685 1279 q 708 1235 710 1254 q 683 1197 707 1215 l 515 1061 z "},"Ă":{"ha":997,"x_min":42,"x_max":956,"o":"m 118 17 q 88 -7 108 -6 q 55 5 68 -8 q 50 39 42 18 l 457 960 q 481 984 464 978 q 516 984 499 990 q 540 960 533 978 l 947 39 q 942 5 956 18 q 910 -7 929 -8 q 881 17 890 -6 l 482 925 l 517 925 l 118 17 m 215 265 l 238 332 l 763 332 l 786 265 l 215 265 m 499 1081 q 378 1110 432 1081 q 292 1204 324 1140 q 305 1251 274 1239 q 356 1231 336 1264 q 499 1146 406 1146 q 642 1231 592 1146 q 692 1251 661 1264 q 706 1204 722 1239 q 620 1110 675 1140 q 499 1081 565 1081 z "},"Ắ":{"ha":997,"x_min":42,"x_max":956,"o":"m 118 17 q 88 -7 108 -6 q 55 5 68 -8 q 50 39 42 18 l 457 960 q 481 984 464 978 q 516 984 499 990 q 540 960 533 978 l 947 39 q 942 5 956 18 q 910 -7 929 -8 q 881 17 890 -6 l 482 925 l 517 925 l 118 17 m 215 265 l 238 332 l 763 332 l 786 265 l 215 265 m 499 1056 q 378 1085 432 1056 q 292 1179 324 1115 q 305 1226 274 1214 q 356 1206 336 1239 q 417 1140 382 1160 q 499 1121 451 1121 q 581 1140 546 1121 q 642 1206 615 1160 q 692 1226 661 1239 q 706 1179 722 1214 q 620 1085 675 1115 q 499 1056 565 1056 m 515 1201 q 482 1201 496 1186 q 483 1235 468 1217 l 619 1386 q 668 1407 644 1414 q 697 1376 692 1400 q 671 1326 701 1351 l 515 1201 z "},"Ặ":{"ha":997,"x_min":42,"x_max":956,"o":"m 118 17 q 88 -7 108 -6 q 55 5 68 -8 q 50 39 42 18 l 457 960 q 481 984 464 978 q 516 984 499 990 q 540 960 533 978 l 947 39 q 942 5 956 18 q 910 -7 929 -8 q 881 17 890 -6 l 482 925 l 517 925 l 118 17 m 215 265 l 238 332 l 763 332 l 786 265 l 215 265 m 499 -251 q 457 -236 474 -251 q 440 -194 440 -221 q 457 -153 440 -168 q 499 -137 474 -137 q 540 -153 524 -137 q 557 -194 557 -168 q 540 -236 557 -221 q 499 -251 524 -251 m 499 1081 q 378 1110 432 1081 q 292 1204 324 1140 q 305 1251 274 1239 q 356 1231 336 1264 q 499 1146 406 1146 q 642 1231 592 1146 q 692 1251 661 1264 q 706 1204 722 1239 q 620 1110 675 1140 q 499 1081 565 1081 z "},"Ằ":{"ha":997,"x_min":42,"x_max":956,"o":"m 118 17 q 88 -7 108 -6 q 55 5 68 -8 q 50 39 42 18 l 457 960 q 481 984 464 978 q 516 984 499 990 q 540 960 533 978 l 947 39 q 942 5 956 18 q 910 -7 929 -8 q 881 17 890 -6 l 482 925 l 517 925 l 118 17 m 215 265 l 238 332 l 763 332 l 786 265 l 215 265 m 499 1056 q 378 1085 432 1056 q 292 1179 324 1115 q 305 1226 274 1214 q 356 1206 336 1239 q 417 1140 382 1160 q 499 1121 451 1121 q 581 1140 546 1121 q 642 1206 615 1160 q 692 1226 661 1239 q 706 1179 722 1214 q 620 1085 675 1115 q 499 1056 565 1056 m 482 1201 l 326 1326 q 301 1376 296 1351 q 329 1407 306 1400 q 378 1386 353 1414 l 514 1235 q 515 1201 529 1217 q 482 1201 501 1186 z "},"Ẳ":{"ha":997,"x_min":42,"x_max":956,"o":"m 118 17 q 88 -7 108 -6 q 55 5 68 -8 q 50 39 42 18 l 457 960 q 481 984 464 978 q 516 984 499 990 q 540 960 533 978 l 947 39 q 942 5 956 18 q 910 -7 929 -8 q 881 17 890 -6 l 482 925 l 517 925 l 118 17 m 215 265 l 238 332 l 763 332 l 786 265 l 215 265 m 499 1056 q 378 1085 432 1056 q 292 1179 324 1115 q 305 1226 274 1214 q 356 1206 336 1239 q 417 1140 382 1160 q 499 1121 451 1121 q 581 1140 546 1121 q 642 1206 615 1160 q 692 1226 661 1239 q 706 1179 722 1214 q 620 1085 675 1115 q 499 1056 565 1056 m 529 1219 q 499 1196 526 1194 q 472 1229 472 1197 q 495 1271 472 1257 q 541 1294 518 1285 q 564 1319 564 1303 q 501 1346 564 1346 q 467 1344 482 1346 q 429 1335 451 1342 q 390 1352 397 1325 q 411 1390 383 1379 q 503 1407 453 1407 q 601 1383 567 1407 q 636 1322 636 1358 q 610 1272 636 1286 q 558 1248 585 1257 q 529 1219 532 1239 z "},"Ẵ":{"ha":997,"x_min":42,"x_max":956,"o":"m 118 17 q 88 -7 108 -6 q 55 5 68 -8 q 50 39 42 18 l 457 960 q 481 984 464 978 q 516 984 499 990 q 540 960 533 978 l 947 39 q 942 5 956 18 q 910 -7 929 -8 q 881 17 890 -6 l 482 925 l 517 925 l 118 17 m 215 265 l 238 332 l 763 332 l 786 265 l 215 265 m 499 1056 q 378 1085 432 1056 q 292 1179 324 1115 q 305 1226 274 1214 q 356 1206 336 1239 q 417 1140 382 1160 q 499 1121 451 1121 q 581 1140 546 1121 q 642 1206 615 1160 q 692 1226 661 1239 q 706 1179 722 1214 q 620 1085 675 1115 q 499 1056 565 1056 m 594 1275 q 492 1307 544 1275 q 403 1339 439 1339 q 342 1308 354 1339 q 311 1278 331 1278 q 286 1306 286 1278 q 317 1372 286 1336 q 403 1407 347 1407 q 506 1375 453 1407 q 594 1343 558 1343 q 655 1374 643 1343 q 686 1404 667 1404 q 711 1376 711 1404 q 681 1310 711 1344 q 594 1275 650 1275 z "},"Â":{"ha":997,"x_min":42,"x_max":956,"o":"m 118 17 q 88 -7 108 -6 q 55 5 68 -8 q 50 39 42 18 l 457 960 q 481 984 464 978 q 516 984 499 990 q 540 960 533 978 l 947 39 q 942 5 956 18 q 910 -7 929 -8 q 881 17 890 -6 l 482 925 l 517 925 l 118 17 m 215 265 l 238 332 l 763 332 l 786 265 l 215 265 m 374 1068 q 340 1056 357 1050 q 316 1079 322 1061 q 326 1117 310 1097 l 456 1257 q 499 1278 475 1278 q 542 1257 521 1278 l 671 1117 q 681 1079 688 1097 q 658 1056 675 1061 q 624 1068 640 1050 l 499 1213 l 374 1068 z "},"Ấ":{"ha":997,"x_min":42,"x_max":956,"o":"m 118 17 q 88 -7 108 -6 q 55 5 68 -8 q 50 39 42 18 l 457 960 q 481 984 464 978 q 516 984 499 990 q 540 960 533 978 l 947 39 q 942 5 956 18 q 910 -7 929 -8 q 881 17 890 -6 l 482 925 l 517 925 l 118 17 m 215 265 l 238 332 l 763 332 l 786 265 l 215 265 m 374 1068 q 340 1056 358 1050 q 316 1079 322 1061 q 326 1117 310 1097 l 456 1257 q 499 1278 475 1278 q 542 1257 521 1278 l 671 1117 q 681 1079 688 1097 q 657 1056 675 1061 q 624 1068 639 1050 l 499 1213 l 374 1068 m 663 1203 q 630 1203 647 1189 q 628 1235 613 1217 l 743 1385 q 778 1408 760 1406 q 810 1398 797 1410 q 824 1367 824 1386 q 801 1329 824 1349 l 663 1203 z "},"Ậ":{"ha":997,"x_min":42,"x_max":956,"o":"m 118 17 q 88 -7 108 -6 q 55 5 68 -8 q 50 39 42 18 l 457 960 q 481 984 464 978 q 516 984 499 990 q 540 960 533 978 l 947 39 q 942 5 956 18 q 910 -7 929 -8 q 881 17 890 -6 l 482 925 l 517 925 l 118 17 m 215 265 l 238 332 l 763 332 l 786 265 l 215 265 m 499 -251 q 457 -236 474 -251 q 440 -194 440 -221 q 457 -153 440 -168 q 499 -137 474 -137 q 540 -153 524 -137 q 557 -194 557 -168 q 540 -236 557 -221 q 499 -251 524 -251 m 374 1068 q 340 1056 357 1050 q 316 1079 322 1061 q 326 1117 310 1097 l 456 1257 q 499 1278 475 1278 q 542 1257 521 1278 l 671 1117 q 681 1079 688 1097 q 658 1056 675 1061 q 624 1068 640 1050 l 499 1213 l 374 1068 z "},"Ầ":{"ha":997,"x_min":42,"x_max":956,"o":"m 118 17 q 88 -7 108 -6 q 55 5 68 -8 q 50 39 42 18 l 457 960 q 481 984 464 978 q 516 984 499 990 q 540 960 533 978 l 947 39 q 942 5 956 18 q 910 -7 929 -8 q 881 17 890 -6 l 482 925 l 517 925 l 118 17 m 215 265 l 238 332 l 763 332 l 786 265 l 215 265 m 374 1068 q 340 1056 358 1050 q 316 1079 322 1061 q 326 1117 310 1097 l 456 1257 q 499 1278 475 1278 q 542 1257 521 1278 l 671 1117 q 681 1079 688 1097 q 657 1056 675 1061 q 624 1068 639 1050 l 499 1213 l 374 1068 m 671 1203 l 532 1329 q 510 1367 510 1349 q 523 1398 510 1386 q 555 1408 536 1410 q 590 1385 574 1406 l 706 1235 q 703 1203 721 1217 q 671 1203 686 1189 z "},"Ẩ":{"ha":997,"x_min":42,"x_max":956,"o":"m 118 17 q 88 -7 108 -6 q 55 5 68 -8 q 50 39 42 18 l 457 960 q 481 984 464 978 q 516 984 499 990 q 540 960 533 978 l 947 39 q 942 5 956 18 q 910 -7 929 -8 q 881 17 890 -6 l 482 925 l 517 925 l 118 17 m 215 265 l 238 332 l 763 332 l 786 265 l 215 265 m 374 1068 q 340 1056 358 1050 q 316 1079 322 1061 q 326 1117 310 1097 l 456 1257 q 499 1278 475 1278 q 542 1257 521 1278 l 671 1117 q 681 1079 688 1097 q 657 1056 675 1061 q 624 1068 639 1050 l 499 1213 l 374 1068 m 671 1219 q 641 1196 668 1194 q 614 1229 614 1197 q 637 1271 614 1257 q 683 1294 660 1285 q 706 1319 706 1303 q 643 1346 706 1346 q 608 1344 624 1346 q 571 1335 593 1342 q 532 1352 539 1325 q 553 1390 525 1379 q 644 1407 594 1407 q 743 1383 708 1407 q 778 1322 778 1358 q 752 1272 778 1286 q 700 1248 726 1257 q 671 1219 674 1239 z "},"Ẫ":{"ha":997,"x_min":42,"x_max":956,"o":"m 118 17 q 88 -7 108 -6 q 55 5 68 -8 q 50 39 42 18 l 457 960 q 481 984 464 978 q 516 984 499 990 q 540 960 533 978 l 947 39 q 942 5 956 18 q 910 -7 929 -8 q 881 17 890 -6 l 482 925 l 517 925 l 118 17 m 215 265 l 238 332 l 763 332 l 786 265 l 215 265 m 374 1068 q 340 1056 358 1050 q 316 1079 322 1061 q 326 1117 310 1097 l 456 1257 q 499 1278 475 1278 q 542 1257 521 1278 l 671 1117 q 681 1079 688 1097 q 657 1056 675 1061 q 624 1068 639 1050 l 499 1213 l 374 1068 m 594 1275 q 492 1307 544 1275 q 403 1339 439 1339 q 342 1308 354 1339 q 311 1278 331 1278 q 286 1306 286 1278 q 317 1372 286 1336 q 403 1407 347 1407 q 506 1375 453 1407 q 594 1343 558 1343 q 655 1374 643 1343 q 686 1404 667 1404 q 711 1376 711 1404 q 681 1310 711 1344 q 594 1275 650 1275 z "},"Ȁ":{"ha":997,"x_min":42,"x_max":956,"o":"m 118 17 q 88 -7 108 -6 q 55 5 68 -8 q 50 39 42 18 l 457 960 q 481 984 464 978 q 516 984 499 990 q 540 960 533 978 l 947 39 q 942 5 956 18 q 910 -7 929 -8 q 881 17 890 -6 l 482 925 l 517 925 l 118 17 m 215 265 l 238 332 l 763 332 l 786 265 l 215 265 m 560 1065 l 451 1210 q 440 1258 431 1238 q 472 1278 450 1278 q 510 1247 493 1279 l 593 1085 q 588 1058 603 1067 q 560 1065 572 1049 m 403 1065 l 294 1210 q 283 1258 274 1238 q 315 1278 293 1278 q 353 1247 338 1279 l 436 1085 q 431 1058 446 1067 q 403 1065 415 1049 z "},"Ä":{"ha":997,"x_min":42,"x_max":956,"o":"m 118 17 q 88 -7 108 -6 q 55 5 68 -8 q 50 39 42 18 l 457 960 q 481 984 464 978 q 516 984 499 990 q 540 960 533 978 l 947 39 q 942 5 956 18 q 910 -7 929 -8 q 881 17 890 -6 l 482 925 l 517 925 l 118 17 m 215 265 l 238 332 l 763 332 l 786 265 l 215 265 m 613 1114 q 574 1129 590 1114 q 557 1168 557 1144 q 574 1207 557 1192 q 613 1222 590 1222 q 651 1207 635 1222 q 668 1168 668 1192 q 651 1129 668 1144 q 613 1114 635 1114 m 385 1114 q 346 1129 363 1114 q 329 1168 329 1144 q 346 1207 329 1192 q 385 1222 363 1222 q 424 1207 407 1222 q 440 1168 440 1192 q 424 1129 440 1144 q 385 1114 407 1114 z "},"Ạ":{"ha":997,"x_min":42,"x_max":956,"o":"m 118 17 q 88 -7 108 -6 q 55 5 68 -8 q 50 39 42 18 l 457 960 q 481 984 464 978 q 516 984 499 990 q 540 960 533 978 l 947 39 q 942 5 956 18 q 910 -7 929 -8 q 881 17 890 -6 l 482 925 l 517 925 l 118 17 m 215 265 l 238 332 l 763 332 l 786 265 l 215 265 m 499 -251 q 457 -236 474 -251 q 440 -194 440 -221 q 457 -153 440 -168 q 499 -137 474 -137 q 540 -153 524 -137 q 557 -194 557 -168 q 540 -236 557 -221 q 499 -251 524 -251 z "},"À":{"ha":997,"x_min":42,"x_max":956,"o":"m 118 17 q 88 -7 108 -6 q 55 5 68 -8 q 50 39 42 18 l 457 960 q 481 984 464 978 q 516 984 499 990 q 540 960 533 978 l 947 39 q 942 5 956 18 q 910 -7 929 -8 q 881 17 890 -6 l 482 925 l 517 925 l 118 17 m 215 265 l 238 332 l 763 332 l 786 265 l 215 265 m 482 1061 l 314 1197 q 290 1247 283 1222 q 321 1278 296 1271 q 369 1257 346 1285 l 514 1094 q 515 1062 529 1076 q 482 1061 500 1047 z "},"Ả":{"ha":997,"x_min":42,"x_max":956,"o":"m 118 17 q 88 -7 108 -6 q 55 5 68 -8 q 50 39 42 18 l 457 960 q 481 984 464 978 q 516 984 499 990 q 540 960 533 978 l 947 39 q 942 5 956 18 q 910 -7 929 -8 q 881 17 890 -6 l 482 925 l 517 925 l 118 17 m 215 265 l 238 332 l 763 332 l 786 265 l 215 265 m 532 1079 q 499 1056 529 1054 q 469 1089 469 1057 q 492 1135 469 1119 q 539 1160 515 1150 q 563 1189 563 1171 q 501 1217 563 1217 q 467 1214 482 1217 q 429 1206 451 1211 q 390 1223 397 1196 q 411 1261 383 1250 q 503 1278 453 1278 q 601 1253 567 1278 q 636 1189 636 1228 q 611 1138 636 1153 q 560 1112 586 1122 q 532 1079 535 1101 z "},"Ȃ":{"ha":997,"x_min":42,"x_max":956,"o":"m 118 17 q 88 -7 108 -6 q 55 5 68 -8 q 50 39 42 18 l 457 960 q 481 984 464 978 q 516 984 499 990 q 540 960 533 978 l 947 39 q 942 5 956 18 q 910 -7 929 -8 q 881 17 890 -6 l 482 925 l 517 925 l 118 17 m 215 265 l 238 332 l 763 332 l 786 265 l 215 265 m 356 1104 q 306 1083 336 1071 q 292 1131 275 1094 q 377 1224 322 1194 q 499 1254 432 1254 q 619 1224 565 1254 q 706 1131 674 1194 q 692 1083 724 1094 q 642 1104 661 1071 q 499 1189 592 1189 q 356 1104 406 1189 z "},"Ā":{"ha":997,"x_min":42,"x_max":956,"o":"m 118 17 q 88 -7 108 -6 q 55 5 68 -8 q 50 39 42 18 l 457 960 q 481 984 464 978 q 516 984 499 990 q 540 960 533 978 l 947 39 q 942 5 956 18 q 910 -7 929 -8 q 881 17 890 -6 l 482 925 l 517 925 l 118 17 m 215 265 l 238 332 l 763 332 l 786 265 l 215 265 m 331 1135 q 288 1168 288 1135 q 331 1201 288 1201 l 667 1201 q 710 1168 710 1201 q 667 1135 710 1135 l 331 1135 z "},"Ą":{"ha":997,"x_min":42,"x_max":1028,"o":"m 907 -265 q 793 -224 836 -265 q 750 -119 750 -183 q 797 -7 750 -56 q 931 57 843 42 l 894 -1 q 886 6 889 1 q 881 17 883 11 l 482 925 l 517 925 l 118 17 q 88 -7 108 -6 q 55 5 68 -8 q 50 39 42 18 l 457 960 q 481 984 464 978 q 516 984 499 990 q 540 960 533 978 l 947 39 q 946 10 954 22 q 925 -4 938 -3 q 846 -42 872 -12 q 819 -114 819 -71 q 846 -182 819 -158 q 914 -206 872 -206 q 981 -187 944 -206 q 1020 -199 1013 -171 q 1003 -242 1028 -228 q 907 -265 961 -265 m 215 265 l 238 332 l 763 332 l 786 265 l 215 265 z "},"Å":{"ha":997,"x_min":42,"x_max":956,"o":"m 118 17 q 88 -7 108 -6 q 55 5 68 -8 q 50 39 42 18 l 457 960 l 540 960 l 947 39 q 942 5 956 18 q 910 -7 929 -8 q 881 17 890 -6 l 482 925 l 517 925 l 118 17 m 215 265 l 238 332 l 763 332 l 786 265 l 215 265 m 499 938 q 402 976 442 938 q 363 1071 363 1014 q 402 1166 363 1128 q 499 1204 442 1204 q 595 1166 556 1204 q 635 1071 635 1128 q 595 976 635 1014 q 499 938 556 938 m 499 999 q 549 1019 529 999 q 568 1071 568 1040 q 549 1122 568 1101 q 499 1143 529 1143 q 449 1122 468 1143 q 429 1071 429 1101 q 449 1019 429 1040 q 499 999 468 999 z "},"Ǻ":{"ha":997,"x_min":42,"x_max":956,"o":"m 118 17 q 88 -7 108 -6 q 55 5 68 -8 q 50 39 42 18 l 457 960 l 540 960 l 947 39 q 942 5 956 18 q 910 -7 929 -8 q 881 17 890 -6 l 482 925 l 517 925 l 118 17 m 215 265 l 238 332 l 763 332 l 786 265 l 215 265 m 499 938 q 402 976 442 938 q 363 1071 363 1014 q 402 1166 363 1128 q 499 1204 442 1204 q 595 1166 556 1204 q 635 1071 635 1128 q 595 976 635 1014 q 499 938 556 938 m 499 999 q 549 1019 529 999 q 568 1071 568 1040 q 549 1122 568 1101 q 499 1143 529 1143 q 449 1122 468 1143 q 429 1071 429 1101 q 449 1019 429 1040 q 499 999 468 999 m 583 1124 q 551 1131 564 1114 q 557 1161 539 1147 l 721 1297 q 774 1308 750 1321 q 801 1267 797 1294 q 771 1221 806 1239 l 583 1124 z "},"Ã":{"ha":997,"x_min":42,"x_max":956,"o":"m 118 17 q 88 -7 108 -6 q 55 5 68 -8 q 50 39 42 18 l 457 960 q 481 984 464 978 q 516 984 499 990 q 540 960 533 978 l 947 39 q 942 5 956 18 q 910 -7 929 -8 q 881 17 890 -6 l 482 925 l 517 925 l 118 17 m 215 265 l 238 332 l 763 332 l 786 265 l 215 265 m 594 1103 q 492 1135 544 1103 q 403 1167 439 1167 q 342 1136 354 1167 q 311 1106 331 1106 q 286 1133 286 1106 q 317 1199 286 1164 q 403 1235 347 1235 q 506 1203 453 1235 q 594 1171 558 1171 q 655 1201 643 1171 q 686 1232 667 1232 q 711 1204 711 1232 q 681 1138 711 1172 q 594 1103 650 1103 z "},"Æ":{"ha":1372,"x_min":14,"x_max":1304,"o":"m 835 0 q 793 42 803 0 l 607 924 l 640 924 l 93 17 q 58 -8 79 -6 q 26 3 38 -10 q 26 39 14 17 l 588 960 q 632 979 600 979 l 1271 979 q 1304 946 1304 979 q 1271 911 1304 911 l 660 911 l 671 947 l 858 68 l 1271 68 q 1304 33 1304 68 q 1271 0 1304 0 l 835 0 m 203 265 l 225 332 l 750 332 l 776 265 l 203 265 m 747 464 l 747 531 l 1243 531 q 1276 497 1276 531 q 1243 464 1276 464 l 747 464 z "},"Ǽ":{"ha":1372,"x_min":14,"x_max":1304,"o":"m 835 0 q 793 42 803 0 l 607 924 l 640 924 l 93 17 q 58 -8 79 -6 q 26 3 38 -10 q 26 39 14 17 l 588 960 q 632 979 600 979 l 1271 979 q 1304 946 1304 979 q 1271 911 1304 911 l 660 911 l 671 947 l 858 68 l 1271 68 q 1304 33 1304 68 q 1271 0 1304 0 l 835 0 m 203 265 l 225 332 l 750 332 l 776 265 l 203 265 m 747 464 l 747 531 l 1243 531 q 1276 497 1276 531 q 1243 464 1276 464 l 747 464 m 706 1061 q 673 1062 688 1047 q 674 1094 658 1076 l 818 1257 q 856 1278 836 1278 q 888 1267 875 1279 q 899 1235 900 1254 q 874 1197 897 1215 l 706 1061 z "},"B":{"ha":928,"x_min":129,"x_max":835,"o":"m 171 0 q 129 39 129 0 l 129 940 q 171 979 129 979 l 500 979 q 731 913 649 979 q 813 722 813 847 q 766 578 813 636 q 638 494 719 519 l 638 506 q 783 426 731 489 q 835 265 835 364 q 751 67 835 135 q 515 0 668 0 l 171 0 m 204 67 l 511 67 q 758 261 758 67 q 511 464 758 464 l 204 464 l 204 67 m 204 531 l 490 531 q 736 726 736 531 q 490 913 736 913 l 204 913 l 204 531 z "},"C":{"ha":940,"x_min":90,"x_max":869,"o":"m 532 -11 q 208 123 326 -11 q 90 490 90 257 q 208 856 90 722 q 532 990 326 990 q 853 868 731 990 q 869 831 869 851 q 863 807 869 817 q 844 797 856 797 q 815 810 829 797 q 676 897 739 874 q 531 921 613 921 q 265 808 360 921 q 171 490 171 696 q 265 171 171 283 q 531 58 358 58 q 676 82 613 58 q 815 169 739 106 q 831 178 824 175 q 844 182 838 182 q 863 173 856 182 q 869 149 869 164 q 853 111 869 128 q 532 -11 731 -11 z "},"Ć":{"ha":940,"x_min":90,"x_max":869,"o":"m 532 -11 q 208 123 326 -11 q 90 490 90 257 q 208 856 90 722 q 532 990 326 990 q 853 868 731 990 q 869 831 869 851 q 863 807 869 817 q 844 797 856 797 q 815 810 829 797 q 676 897 739 874 q 531 921 613 921 q 265 808 360 921 q 171 490 171 696 q 265 171 171 283 q 531 58 358 58 q 676 82 613 58 q 815 169 739 106 q 831 178 824 175 q 844 182 838 182 q 863 173 856 182 q 869 149 869 164 q 853 111 869 128 q 532 -11 731 -11 m 549 1061 q 516 1062 531 1047 q 517 1094 501 1076 l 661 1257 q 699 1278 679 1278 q 731 1267 718 1279 q 742 1235 743 1254 q 717 1197 740 1215 l 549 1061 z "},"Č":{"ha":940,"x_min":90,"x_max":869,"o":"m 532 -11 q 208 123 326 -11 q 90 490 90 257 q 208 856 90 722 q 532 990 326 990 q 853 868 731 990 q 869 831 869 851 q 863 807 869 817 q 844 797 856 797 q 815 810 829 797 q 676 897 739 874 q 531 921 613 921 q 265 808 360 921 q 171 490 171 696 q 265 171 171 283 q 531 58 358 58 q 676 82 613 58 q 815 169 739 106 q 831 178 824 175 q 844 182 838 182 q 863 173 856 182 q 869 149 869 164 q 853 111 869 128 q 532 -11 731 -11 m 532 1056 q 489 1076 510 1056 l 360 1217 q 349 1254 343 1236 q 373 1278 356 1272 q 407 1265 390 1283 l 532 1121 l 657 1265 q 691 1278 674 1283 q 715 1254 708 1272 q 704 1217 721 1236 l 575 1076 q 532 1056 556 1056 z "},"Ç":{"ha":940,"x_min":90,"x_max":869,"o":"m 532 -11 q 208 123 326 -11 q 90 490 90 257 q 208 856 90 722 q 532 990 326 990 q 853 868 731 990 q 869 831 869 851 q 863 807 869 817 q 844 797 856 797 q 815 810 829 797 q 676 897 739 874 q 531 921 613 921 q 265 808 360 921 q 171 490 171 696 q 265 171 171 283 q 531 58 358 58 q 676 82 613 58 q 815 169 739 106 q 831 178 824 175 q 844 182 838 182 q 863 173 856 182 q 869 149 869 164 q 853 111 869 128 q 532 -11 731 -11 z "},"Ḉ":{"ha":940,"x_min":90,"x_max":869,"o":"m 532 -11 q 208 123 326 -11 q 90 490 90 257 q 208 856 90 722 q 532 990 326 990 q 853 868 731 990 q 869 831 869 851 q 863 807 869 817 q 844 797 856 797 q 815 810 829 797 q 676 897 739 874 q 531 921 613 921 q 265 808 360 921 q 171 490 171 696 q 265 171 171 283 q 531 58 358 58 q 676 82 613 58 q 815 169 739 106 q 831 178 824 175 q 844 182 838 182 q 863 173 856 182 q 869 149 869 164 q 853 111 869 128 q 532 -11 731 -11 m 531 -265 q 483 -261 508 -265 q 438 -249 458 -257 q 417 -212 410 -237 q 457 -196 424 -186 q 495 -205 479 -203 q 535 -207 511 -207 q 619 -153 619 -207 q 574 -111 619 -111 q 532 -119 551 -111 q 501 -126 513 -126 q 475 -100 472 -126 l 489 28 l 554 28 l 543 -71 l 526 -72 q 551 -61 536 -65 q 583 -57 567 -57 q 653 -79 619 -57 q 686 -153 686 -101 q 646 -233 686 -200 q 531 -265 606 -265 m 549 1061 q 516 1062 531 1047 q 517 1094 501 1076 l 661 1257 q 699 1278 679 1278 q 731 1267 718 1279 q 742 1235 743 1254 q 717 1197 740 1215 l 549 1061 z "},"Ĉ":{"ha":940,"x_min":90,"x_max":869,"o":"m 532 -11 q 208 123 326 -11 q 90 490 90 257 q 208 856 90 722 q 532 990 326 990 q 853 868 731 990 q 869 831 869 851 q 863 807 869 817 q 844 797 856 797 q 815 810 829 797 q 676 897 739 874 q 531 921 613 921 q 265 808 360 921 q 171 490 171 696 q 265 171 171 283 q 531 58 358 58 q 676 82 613 58 q 815 169 739 106 q 831 178 824 175 q 844 182 838 182 q 863 173 856 182 q 869 149 869 164 q 853 111 869 128 q 532 -11 731 -11 m 407 1068 q 373 1056 390 1050 q 349 1079 356 1061 q 360 1117 343 1097 l 489 1257 q 532 1278 508 1278 q 575 1257 554 1278 l 704 1117 q 715 1079 721 1097 q 691 1056 708 1061 q 657 1068 674 1050 l 532 1213 l 407 1068 z "},"Ċ":{"ha":940,"x_min":90,"x_max":869,"o":"m 532 -11 q 208 123 326 -11 q 90 490 90 257 q 208 856 90 722 q 532 990 326 990 q 853 868 731 990 q 869 831 869 851 q 863 807 869 817 q 844 797 856 797 q 815 810 829 797 q 676 897 739 874 q 531 921 613 921 q 265 808 360 921 q 171 490 171 696 q 265 171 171 283 q 531 58 358 58 q 676 82 613 58 q 815 169 739 106 q 831 178 824 175 q 844 182 838 182 q 863 173 856 182 q 869 149 869 164 q 853 111 869 128 q 532 -11 731 -11 m 532 1111 q 490 1126 507 1111 q 474 1168 474 1142 q 532 1225 474 1225 q 574 1210 557 1225 q 590 1168 590 1194 q 574 1126 590 1142 q 532 1111 557 1111 z "},"D":{"ha":1013,"x_min":129,"x_max":922,"o":"m 171 0 q 129 39 129 0 l 129 940 q 171 979 129 979 l 439 979 q 796 853 669 979 q 922 490 922 728 q 796 127 922 254 q 439 0 669 0 l 171 0 m 204 67 l 436 67 q 746 178 649 67 q 843 490 843 289 q 746 802 843 692 q 436 913 649 913 l 204 913 l 204 67 z "},"Ǆ":{"ha":1800,"x_min":129,"x_max":1756,"o":"m 171 0 q 129 39 129 0 l 129 940 q 171 979 129 979 l 439 979 q 796 853 669 979 q 922 490 922 728 q 796 127 922 254 q 439 0 669 0 l 171 0 m 204 67 l 436 67 q 746 178 649 67 q 843 490 843 289 q 746 802 843 692 q 436 913 649 913 l 204 913 l 204 67 z "},"Ð":{"ha":1022,"x_min":0,"x_max":932,"o":"m 181 0 q 139 39 139 0 l 139 940 q 181 979 139 979 l 449 979 q 806 853 679 979 q 932 490 932 728 q 806 127 932 254 q 449 0 679 0 l 181 0 m 35 465 q 0 497 0 465 q 35 529 0 529 l 460 529 q 492 497 492 529 q 460 465 492 465 l 35 465 m 214 67 l 446 67 q 756 178 658 67 q 853 490 853 289 q 756 802 853 692 q 446 913 658 913 l 214 913 l 214 67 z "},"Ď":{"ha":1013,"x_min":129,"x_max":922,"o":"m 171 0 q 129 39 129 0 l 129 940 q 171 979 129 979 l 439 979 q 796 853 669 979 q 922 490 922 728 q 796 127 922 254 q 439 0 669 0 l 171 0 m 204 67 l 436 67 q 746 178 649 67 q 843 490 843 289 q 746 802 843 692 q 436 913 649 913 l 204 913 l 204 67 m 506 1056 q 463 1076 483 1056 l 333 1217 q 323 1254 317 1236 q 347 1278 329 1272 q 381 1265 364 1283 l 506 1121 l 631 1265 q 665 1278 647 1283 q 688 1254 682 1272 q 678 1217 694 1236 l 549 1076 q 506 1056 529 1056 z "},"Đ":{"ha":1022,"x_min":0,"x_max":932,"o":"m 181 0 q 139 39 139 0 l 139 940 q 181 979 139 979 l 449 979 q 806 853 679 979 q 932 490 932 728 q 806 127 932 254 q 449 0 679 0 l 181 0 m 35 465 q 0 497 0 465 q 35 529 0 529 l 460 529 q 492 497 492 529 q 460 465 492 465 l 35 465 m 214 67 l 446 67 q 756 178 658 67 q 853 490 853 289 q 756 802 853 692 q 446 913 658 913 l 214 913 l 214 67 z "},"Ḍ":{"ha":1013,"x_min":129,"x_max":922,"o":"m 171 0 q 129 39 129 0 l 129 940 q 171 979 129 979 l 439 979 q 796 853 669 979 q 922 490 922 728 q 796 127 922 254 q 439 0 669 0 l 171 0 m 204 67 l 436 67 q 746 178 649 67 q 843 490 843 289 q 746 802 843 692 q 436 913 649 913 l 204 913 l 204 67 m 507 -251 q 465 -236 482 -251 q 449 -194 449 -221 q 465 -153 449 -168 q 507 -137 482 -137 q 549 -153 532 -137 q 565 -194 565 -168 q 549 -236 565 -221 q 507 -251 532 -251 z "},"Ḏ":{"ha":1013,"x_min":129,"x_max":922,"o":"m 171 0 q 129 39 129 0 l 129 940 q 171 979 129 979 l 439 979 q 796 853 669 979 q 922 490 922 728 q 796 127 922 254 q 439 0 669 0 l 171 0 m 204 67 l 436 67 q 746 178 649 67 q 843 490 843 289 q 746 802 843 692 q 436 913 649 913 l 204 913 l 204 67 m 339 -228 q 296 -194 296 -228 q 339 -161 296 -161 l 675 -161 q 718 -194 718 -161 q 675 -228 718 -228 l 339 -228 z "},"ǅ":{"ha":1704,"x_min":129,"x_max":1649,"o":"m 171 0 q 129 39 129 0 l 129 940 q 171 979 129 979 l 439 979 q 796 853 669 979 q 922 490 922 728 q 796 127 922 254 q 439 0 669 0 l 171 0 m 204 67 l 436 67 q 746 178 649 67 q 843 490 843 289 q 746 802 843 692 q 436 913 649 913 l 204 913 l 204 67 z "},"E":{"ha":803,"x_min":129,"x_max":735,"o":"m 171 0 q 129 39 129 0 l 129 940 q 171 979 129 979 l 701 979 q 735 946 735 979 q 701 913 735 913 l 204 913 l 204 531 l 674 531 q 707 497 707 531 q 674 464 707 464 l 204 464 l 204 67 l 701 67 q 735 33 735 67 q 701 0 735 0 l 171 0 z "},"É":{"ha":803,"x_min":129,"x_max":735,"o":"m 171 0 q 129 39 129 0 l 129 940 q 171 979 129 979 l 701 979 q 735 946 735 979 q 701 913 735 913 l 204 913 l 204 531 l 674 531 q 707 497 707 531 q 674 464 707 464 l 204 464 l 204 67 l 701 67 q 735 33 735 67 q 701 0 735 0 l 171 0 m 463 1061 q 430 1062 444 1047 q 431 1094 415 1076 l 575 1257 q 613 1278 593 1278 q 644 1267 632 1279 q 656 1235 657 1254 q 631 1197 654 1215 l 463 1061 z "},"Ĕ":{"ha":803,"x_min":129,"x_max":735,"o":"m 171 0 q 129 39 129 0 l 129 940 q 171 979 129 979 l 701 979 q 735 946 735 979 q 701 913 735 913 l 204 913 l 204 531 l 674 531 q 707 497 707 531 q 674 464 707 464 l 204 464 l 204 67 l 701 67 q 735 33 735 67 q 701 0 735 0 l 171 0 m 446 1081 q 325 1110 379 1081 q 239 1204 271 1140 q 252 1251 221 1239 q 303 1231 283 1264 q 446 1146 353 1146 q 589 1231 539 1146 q 639 1251 608 1264 q 653 1204 669 1239 q 567 1110 622 1140 q 446 1081 513 1081 z "},"Ě":{"ha":803,"x_min":129,"x_max":735,"o":"m 171 0 q 129 39 129 0 l 129 940 q 171 979 129 979 l 701 979 q 735 946 735 979 q 701 913 735 913 l 204 913 l 204 531 l 674 531 q 707 497 707 531 q 674 464 707 464 l 204 464 l 204 67 l 701 67 q 735 33 735 67 q 701 0 735 0 l 171 0 m 446 1056 q 403 1076 424 1056 l 274 1217 q 263 1254 257 1236 q 287 1278 269 1272 q 321 1265 304 1283 l 446 1121 l 571 1265 q 605 1278 588 1283 q 628 1254 622 1272 q 618 1217 635 1236 l 489 1076 q 446 1056 469 1056 z "},"Ȩ":{"ha":803,"x_min":129,"x_max":735,"o":"m 171 0 q 129 39 129 0 l 129 940 q 171 979 129 979 l 701 979 q 735 946 735 979 q 701 913 735 913 l 204 913 l 204 531 l 674 531 q 707 497 707 531 q 674 464 707 464 l 204 464 l 204 67 l 701 67 q 735 33 735 67 q 701 0 735 0 l 171 0 m 446 -265 q 399 -261 424 -265 q 353 -249 374 -257 q 332 -212 325 -237 q 372 -196 339 -186 q 410 -205 394 -203 q 450 -207 426 -207 q 535 -153 535 -207 q 489 -111 535 -111 q 447 -119 467 -111 q 417 -126 428 -126 q 390 -100 388 -126 l 404 28 l 469 28 l 458 -71 l 442 -72 q 467 -61 451 -65 q 499 -57 482 -57 q 568 -79 535 -57 q 601 -153 601 -101 q 561 -233 601 -200 q 446 -265 521 -265 z "},"Ḝ":{"ha":803,"x_min":129,"x_max":735,"o":"m 171 0 q 129 39 129 0 l 129 940 q 171 979 129 979 l 701 979 q 735 946 735 979 q 701 913 735 913 l 204 913 l 204 531 l 674 531 q 707 497 707 531 q 674 464 707 464 l 204 464 l 204 67 l 701 67 q 735 33 735 67 q 701 0 735 0 l 171 0 m 446 -265 q 399 -261 424 -265 q 353 -249 374 -257 q 332 -212 325 -237 q 372 -196 339 -186 q 410 -205 394 -203 q 450 -207 426 -207 q 535 -153 535 -207 q 489 -111 535 -111 q 447 -119 467 -111 q 417 -126 428 -126 q 390 -100 388 -126 l 404 28 l 469 28 l 458 -71 l 442 -72 q 467 -61 451 -65 q 499 -57 482 -57 q 568 -79 535 -57 q 601 -153 601 -101 q 561 -233 601 -200 q 446 -265 521 -265 m 446 1081 q 325 1110 379 1081 q 239 1204 271 1140 q 252 1251 221 1239 q 303 1231 283 1264 q 446 1146 353 1146 q 589 1231 539 1146 q 639 1251 608 1264 q 653 1204 669 1239 q 567 1110 622 1140 q 446 1081 513 1081 z "},"Ê":{"ha":803,"x_min":129,"x_max":735,"o":"m 171 0 q 129 39 129 0 l 129 940 q 171 979 129 979 l 701 979 q 735 946 735 979 q 701 913 735 913 l 204 913 l 204 531 l 674 531 q 707 497 707 531 q 674 464 707 464 l 204 464 l 204 67 l 701 67 q 735 33 735 67 q 701 0 735 0 l 171 0 m 321 1068 q 287 1056 304 1050 q 263 1079 269 1061 q 274 1117 257 1097 l 403 1257 q 446 1278 422 1278 q 489 1257 468 1278 l 618 1117 q 628 1079 635 1097 q 605 1056 622 1061 q 571 1068 588 1050 l 446 1213 l 321 1068 z "},"Ế":{"ha":803,"x_min":129,"x_max":771,"o":"m 171 0 q 129 39 129 0 l 129 940 q 171 979 129 979 l 701 979 q 735 946 735 979 q 701 913 735 913 l 204 913 l 204 531 l 674 531 q 707 497 707 531 q 674 464 707 464 l 204 464 l 204 67 l 701 67 q 735 33 735 67 q 701 0 735 0 l 171 0 m 321 1068 q 288 1056 306 1050 q 263 1079 269 1061 q 274 1117 257 1097 l 403 1257 q 446 1278 422 1278 q 489 1257 468 1278 l 618 1117 q 628 1079 635 1097 q 604 1056 622 1061 q 571 1068 586 1050 l 446 1213 l 321 1068 m 610 1203 q 577 1203 594 1189 q 575 1235 560 1217 l 690 1385 q 726 1408 707 1406 q 758 1398 744 1410 q 771 1367 771 1386 q 749 1329 771 1349 l 610 1203 z "},"Ệ":{"ha":803,"x_min":129,"x_max":735,"o":"m 171 0 q 129 39 129 0 l 129 940 q 171 979 129 979 l 701 979 q 735 946 735 979 q 701 913 735 913 l 204 913 l 204 531 l 674 531 q 707 497 707 531 q 674 464 707 464 l 204 464 l 204 67 l 701 67 q 735 33 735 67 q 701 0 735 0 l 171 0 m 446 -251 q 404 -236 421 -251 q 388 -194 388 -221 q 404 -153 388 -168 q 446 -137 421 -137 q 488 -153 471 -137 q 504 -194 504 -168 q 488 -236 504 -221 q 446 -251 471 -251 m 321 1068 q 287 1056 304 1050 q 263 1079 269 1061 q 274 1117 257 1097 l 403 1257 q 446 1278 422 1278 q 489 1257 468 1278 l 618 1117 q 628 1079 635 1097 q 605 1056 622 1061 q 571 1068 588 1050 l 446 1213 l 321 1068 z "},"Ề":{"ha":803,"x_min":129,"x_max":735,"o":"m 171 0 q 129 39 129 0 l 129 940 q 171 979 129 979 l 701 979 q 735 946 735 979 q 701 913 735 913 l 204 913 l 204 531 l 674 531 q 707 497 707 531 q 674 464 707 464 l 204 464 l 204 67 l 701 67 q 735 33 735 67 q 701 0 735 0 l 171 0 m 321 1068 q 288 1056 306 1050 q 263 1079 269 1061 q 274 1117 257 1097 l 403 1257 q 446 1278 422 1278 q 489 1257 468 1278 l 618 1117 q 628 1079 635 1097 q 604 1056 622 1061 q 571 1068 586 1050 l 446 1213 l 321 1068 m 618 1203 l 479 1329 q 457 1367 457 1349 q 470 1398 457 1386 q 502 1408 483 1410 q 538 1385 521 1406 l 653 1235 q 651 1203 668 1217 q 618 1203 633 1189 z "},"Ể":{"ha":803,"x_min":129,"x_max":735,"o":"m 171 0 q 129 39 129 0 l 129 940 q 171 979 129 979 l 701 979 q 735 946 735 979 q 701 913 735 913 l 204 913 l 204 531 l 674 531 q 707 497 707 531 q 674 464 707 464 l 204 464 l 204 67 l 701 67 q 735 33 735 67 q 701 0 735 0 l 171 0 m 321 1068 q 288 1056 306 1050 q 263 1079 269 1061 q 274 1117 257 1097 l 403 1257 q 446 1278 422 1278 q 489 1257 468 1278 l 618 1117 q 628 1079 635 1097 q 604 1056 622 1061 q 571 1068 586 1050 l 446 1213 l 321 1068 m 618 1219 q 588 1196 615 1194 q 561 1229 561 1197 q 584 1271 561 1257 q 630 1294 607 1285 q 653 1319 653 1303 q 590 1346 653 1346 q 556 1344 571 1346 q 518 1335 540 1342 q 479 1352 486 1325 q 500 1390 472 1379 q 592 1407 542 1407 q 690 1383 656 1407 q 725 1322 725 1358 q 699 1272 725 1286 q 647 1248 674 1257 q 618 1219 621 1239 z "},"Ễ":{"ha":803,"x_min":129,"x_max":735,"o":"m 171 0 q 129 39 129 0 l 129 940 q 171 979 129 979 l 701 979 q 735 946 735 979 q 701 913 735 913 l 204 913 l 204 531 l 674 531 q 707 497 707 531 q 674 464 707 464 l 204 464 l 204 67 l 701 67 q 735 33 735 67 q 701 0 735 0 l 171 0 m 321 1068 q 288 1056 306 1050 q 263 1079 269 1061 q 274 1117 257 1097 l 403 1257 q 446 1278 422 1278 q 489 1257 468 1278 l 618 1117 q 628 1079 635 1097 q 604 1056 622 1061 q 571 1068 586 1050 l 446 1213 l 321 1068 m 542 1275 q 439 1307 492 1275 q 350 1339 386 1339 q 290 1308 301 1339 q 258 1278 278 1278 q 233 1306 233 1278 q 264 1372 233 1336 q 350 1407 294 1407 q 453 1375 400 1407 q 542 1343 506 1343 q 602 1374 590 1343 q 633 1404 614 1404 q 658 1376 658 1404 q 628 1310 658 1344 q 542 1275 597 1275 z "},"Ȅ":{"ha":803,"x_min":129,"x_max":735,"o":"m 171 0 q 129 39 129 0 l 129 940 q 171 979 129 979 l 701 979 q 735 946 735 979 q 701 913 735 913 l 204 913 l 204 531 l 674 531 q 707 497 707 531 q 674 464 707 464 l 204 464 l 204 67 l 701 67 q 735 33 735 67 q 701 0 735 0 l 171 0 m 507 1065 l 399 1210 q 388 1258 378 1238 q 419 1278 397 1278 q 457 1247 440 1279 l 540 1085 q 535 1058 550 1067 q 507 1065 519 1049 m 350 1065 l 242 1210 q 231 1258 221 1238 q 263 1278 240 1278 q 300 1247 285 1279 l 383 1085 q 378 1058 393 1067 q 350 1065 363 1049 z "},"Ë":{"ha":803,"x_min":129,"x_max":735,"o":"m 171 0 q 129 39 129 0 l 129 940 q 171 979 129 979 l 701 979 q 735 946 735 979 q 701 913 735 913 l 204 913 l 204 531 l 674 531 q 707 497 707 531 q 674 464 707 464 l 204 464 l 204 67 l 701 67 q 735 33 735 67 q 701 0 735 0 l 171 0 m 560 1114 q 521 1129 538 1114 q 504 1168 504 1144 q 521 1207 504 1192 q 560 1222 538 1222 q 599 1207 582 1222 q 615 1168 615 1192 q 599 1129 615 1144 q 560 1114 582 1114 m 332 1114 q 293 1129 310 1114 q 276 1168 276 1144 q 293 1207 276 1192 q 332 1222 310 1222 q 371 1207 354 1222 q 388 1168 388 1192 q 371 1129 388 1144 q 332 1114 354 1114 z "},"Ė":{"ha":803,"x_min":129,"x_max":735,"o":"m 171 0 q 129 39 129 0 l 129 940 q 171 979 129 979 l 701 979 q 735 946 735 979 q 701 913 735 913 l 204 913 l 204 531 l 674 531 q 707 497 707 531 q 674 464 707 464 l 204 464 l 204 67 l 701 67 q 735 33 735 67 q 701 0 735 0 l 171 0 m 446 1111 q 404 1126 421 1111 q 388 1168 388 1142 q 446 1225 388 1225 q 488 1210 471 1225 q 504 1168 504 1194 q 488 1126 504 1142 q 446 1111 471 1111 z "},"Ẹ":{"ha":803,"x_min":129,"x_max":735,"o":"m 171 0 q 129 39 129 0 l 129 940 q 171 979 129 979 l 701 979 q 735 946 735 979 q 701 913 735 913 l 204 913 l 204 531 l 674 531 q 707 497 707 531 q 674 464 707 464 l 204 464 l 204 67 l 701 67 q 735 33 735 67 q 701 0 735 0 l 171 0 m 446 -251 q 404 -236 421 -251 q 388 -194 388 -221 q 404 -153 388 -168 q 446 -137 421 -137 q 488 -153 471 -137 q 504 -194 504 -168 q 488 -236 504 -221 q 446 -251 471 -251 z "},"È":{"ha":803,"x_min":129,"x_max":735,"o":"m 171 0 q 129 39 129 0 l 129 940 q 171 979 129 979 l 701 979 q 735 946 735 979 q 701 913 735 913 l 204 913 l 204 531 l 674 531 q 707 497 707 531 q 674 464 707 464 l 204 464 l 204 67 l 701 67 q 735 33 735 67 q 701 0 735 0 l 171 0 m 429 1061 l 261 1197 q 237 1247 231 1222 q 268 1278 243 1271 q 317 1257 293 1285 l 461 1094 q 462 1062 476 1076 q 429 1061 447 1047 z "},"Ẻ":{"ha":803,"x_min":129,"x_max":735,"o":"m 171 0 q 129 39 129 0 l 129 940 q 171 979 129 979 l 701 979 q 735 946 735 979 q 701 913 735 913 l 204 913 l 204 531 l 674 531 q 707 497 707 531 q 674 464 707 464 l 204 464 l 204 67 l 701 67 q 735 33 735 67 q 701 0 735 0 l 171 0 m 479 1079 q 447 1056 476 1054 q 417 1089 417 1057 q 440 1135 417 1119 q 486 1160 463 1150 q 510 1189 510 1171 q 449 1217 510 1217 q 414 1214 429 1217 q 376 1206 399 1211 q 338 1223 344 1196 q 358 1261 331 1250 q 450 1278 400 1278 q 549 1253 514 1278 q 583 1189 583 1228 q 558 1138 583 1153 q 508 1112 533 1122 q 479 1079 482 1101 z "},"Ȇ":{"ha":803,"x_min":129,"x_max":735,"o":"m 171 0 q 129 39 129 0 l 129 940 q 171 979 129 979 l 701 979 q 735 946 735 979 q 701 913 735 913 l 204 913 l 204 531 l 674 531 q 707 497 707 531 q 674 464 707 464 l 204 464 l 204 67 l 701 67 q 735 33 735 67 q 701 0 735 0 l 171 0 m 303 1104 q 253 1083 283 1071 q 239 1131 222 1094 q 324 1224 269 1194 q 446 1254 379 1254 q 567 1224 513 1254 q 653 1131 621 1194 q 640 1083 671 1094 q 589 1104 608 1071 q 446 1189 539 1189 q 303 1104 353 1189 z "},"Ē":{"ha":803,"x_min":129,"x_max":735,"o":"m 171 0 q 129 39 129 0 l 129 940 q 171 979 129 979 l 701 979 q 735 946 735 979 q 701 913 735 913 l 204 913 l 204 531 l 674 531 q 707 497 707 531 q 674 464 707 464 l 204 464 l 204 67 l 701 67 q 735 33 735 67 q 701 0 735 0 l 171 0 m 278 1135 q 235 1168 235 1135 q 278 1201 235 1201 l 614 1201 q 657 1168 657 1201 q 614 1135 657 1135 l 278 1135 z "},"Ḗ":{"ha":803,"x_min":129,"x_max":735,"o":"m 171 0 q 129 39 129 0 l 129 940 q 171 979 129 979 l 701 979 q 735 946 735 979 q 701 913 735 913 l 204 913 l 204 531 l 674 531 q 707 497 707 531 q 674 464 707 464 l 204 464 l 204 67 l 701 67 q 735 33 735 67 q 701 0 735 0 l 171 0 m 278 1135 q 235 1168 235 1135 q 278 1201 235 1201 l 614 1201 q 657 1168 657 1201 q 614 1135 657 1135 l 278 1135 m 463 1283 q 430 1284 444 1269 q 431 1317 415 1299 l 575 1479 q 613 1501 593 1500 q 644 1489 632 1501 q 656 1457 657 1476 q 631 1419 654 1438 l 463 1283 z "},"Ḕ":{"ha":803,"x_min":129,"x_max":735,"o":"m 171 0 q 129 39 129 0 l 129 940 q 171 979 129 979 l 701 979 q 735 946 735 979 q 701 913 735 913 l 204 913 l 204 531 l 674 531 q 707 497 707 531 q 674 464 707 464 l 204 464 l 204 67 l 701 67 q 735 33 735 67 q 701 0 735 0 l 171 0 m 278 1135 q 235 1168 235 1135 q 278 1201 235 1201 l 614 1201 q 657 1168 657 1201 q 614 1135 657 1135 l 278 1135 m 429 1283 l 261 1419 q 237 1469 231 1444 q 268 1500 243 1493 q 317 1479 293 1507 l 461 1317 q 462 1284 476 1299 q 429 1283 447 1269 z "},"Ę":{"ha":803,"x_min":129,"x_max":782,"o":"m 661 -265 q 547 -225 590 -265 q 504 -122 504 -185 q 599 26 504 -22 l 619 0 l 171 0 q 129 39 129 0 l 129 940 q 171 979 129 979 l 701 979 q 735 946 735 979 q 701 913 735 913 l 204 913 l 204 531 l 674 531 q 707 497 707 531 q 674 464 707 464 l 204 464 l 204 67 l 701 67 q 735 33 735 67 q 701 0 735 3 q 604 -36 635 -4 q 574 -114 574 -68 q 668 -206 574 -206 q 735 -187 699 -206 q 774 -199 767 -171 q 757 -242 782 -228 q 661 -265 715 -265 z "},"Ẽ":{"ha":803,"x_min":129,"x_max":735,"o":"m 171 0 q 129 39 129 0 l 129 940 q 171 979 129 979 l 701 979 q 735 946 735 979 q 701 913 735 913 l 204 913 l 204 531 l 674 531 q 707 497 707 531 q 674 464 707 464 l 204 464 l 204 67 l 701 67 q 735 33 735 67 q 701 0 735 0 l 171 0 m 542 1103 q 439 1135 492 1103 q 350 1167 386 1167 q 290 1136 301 1167 q 258 1106 278 1106 q 233 1133 233 1106 q 264 1199 233 1164 q 350 1235 294 1235 q 453 1203 400 1235 q 542 1171 506 1171 q 602 1201 590 1171 q 633 1232 614 1232 q 658 1204 658 1232 q 628 1138 658 1172 q 542 1103 597 1103 z "},"F":{"ha":765,"x_min":129,"x_max":721,"o":"m 167 -7 q 140 4 150 -7 q 129 33 129 15 l 129 940 q 171 979 129 979 l 688 979 q 721 946 721 979 q 688 913 721 913 l 204 913 l 204 531 l 660 531 q 693 497 693 531 q 660 464 693 464 l 204 464 l 204 33 q 167 -7 204 -7 z "},"G":{"ha":997,"x_min":90,"x_max":879,"o":"m 546 -11 q 210 121 331 -11 q 90 490 90 253 q 210 857 90 724 q 536 990 329 990 q 858 868 743 990 q 875 831 875 850 q 867 807 875 817 q 849 797 860 797 q 837 799 843 797 q 821 810 831 801 q 681 897 744 874 q 536 921 618 921 q 266 809 361 921 q 171 490 171 697 q 267 169 171 281 q 546 57 364 57 q 829 114 713 57 l 810 60 l 810 432 l 578 432 q 540 465 540 432 q 578 499 540 499 l 846 499 q 879 464 879 499 l 879 89 q 873 64 879 75 q 853 47 867 53 q 546 -11 732 -11 z "},"Ğ":{"ha":997,"x_min":90,"x_max":879,"o":"m 546 -11 q 210 121 331 -11 q 90 490 90 253 q 210 857 90 724 q 536 990 329 990 q 858 868 743 990 q 875 831 875 850 q 867 807 875 817 q 849 797 860 797 q 837 799 843 797 q 821 810 831 801 q 681 897 744 874 q 536 921 618 921 q 266 809 361 921 q 171 490 171 697 q 267 169 171 281 q 546 57 364 57 q 829 114 713 57 l 810 60 l 810 432 l 578 432 q 540 465 540 432 q 578 499 540 499 l 846 499 q 879 464 879 499 l 879 89 q 873 64 879 75 q 853 47 867 53 q 546 -11 732 -11 m 536 1081 q 415 1110 469 1081 q 329 1204 361 1140 q 342 1251 311 1239 q 393 1231 374 1264 q 536 1146 443 1146 q 679 1231 629 1146 q 729 1251 699 1264 q 743 1204 760 1239 q 658 1110 713 1140 q 536 1081 603 1081 z "},"Ǧ":{"ha":997,"x_min":90,"x_max":879,"o":"m 546 -11 q 210 121 331 -11 q 90 490 90 253 q 210 857 90 724 q 536 990 329 990 q 858 868 743 990 q 875 831 875 850 q 867 807 875 817 q 849 797 860 797 q 837 799 843 797 q 821 810 831 801 q 681 897 744 874 q 536 921 618 921 q 266 809 361 921 q 171 490 171 697 q 267 169 171 281 q 546 57 364 57 q 829 114 713 57 l 810 60 l 810 432 l 578 432 q 540 465 540 432 q 578 499 540 499 l 846 499 q 879 464 879 499 l 879 89 q 873 64 879 75 q 853 47 867 53 q 546 -11 732 -11 m 536 1056 q 493 1076 514 1056 l 364 1217 q 353 1254 347 1236 q 377 1278 360 1272 q 411 1265 394 1283 l 536 1121 l 661 1265 q 695 1278 678 1283 q 719 1254 713 1272 q 708 1217 725 1236 l 579 1076 q 536 1056 560 1056 z "},"Ĝ":{"ha":997,"x_min":90,"x_max":879,"o":"m 546 -11 q 210 121 331 -11 q 90 490 90 253 q 210 857 90 724 q 536 990 329 990 q 858 868 743 990 q 875 831 875 850 q 867 807 875 817 q 849 797 860 797 q 837 799 843 797 q 821 810 831 801 q 681 897 744 874 q 536 921 618 921 q 266 809 361 921 q 171 490 171 697 q 267 169 171 281 q 546 57 364 57 q 829 114 713 57 l 810 60 l 810 432 l 578 432 q 540 465 540 432 q 578 499 540 499 l 846 499 q 879 464 879 499 l 879 89 q 873 64 879 75 q 853 47 867 53 q 546 -11 732 -11 m 411 1068 q 377 1056 394 1050 q 353 1079 360 1061 q 364 1117 347 1097 l 493 1257 q 536 1278 513 1278 q 579 1257 558 1278 l 708 1117 q 719 1079 725 1097 q 695 1056 713 1061 q 661 1068 678 1050 l 536 1213 l 411 1068 z "},"Ģ":{"ha":997,"x_min":90,"x_max":879,"o":"m 546 -11 q 210 121 331 -11 q 90 490 90 253 q 210 857 90 724 q 536 990 329 990 q 858 868 743 990 q 875 831 875 850 q 867 807 875 817 q 849 797 860 797 q 837 799 843 797 q 821 810 831 801 q 681 897 744 874 q 536 921 618 921 q 266 809 361 921 q 171 490 171 697 q 267 169 171 281 q 546 57 364 57 q 829 114 713 57 l 810 60 l 810 432 l 578 432 q 540 465 540 432 q 578 499 540 499 l 846 499 q 879 464 879 499 l 879 89 q 873 64 879 75 q 853 47 867 53 q 546 -11 732 -11 m 550 -335 q 519 -349 535 -350 q 499 -333 504 -347 q 507 -303 493 -319 q 540 -251 529 -276 q 550 -197 550 -226 l 576 -208 l 551 -208 q 509 -194 526 -208 q 492 -151 492 -179 q 507 -112 492 -128 q 546 -97 522 -97 q 593 -116 575 -97 q 611 -179 611 -135 q 597 -258 611 -218 q 550 -335 583 -299 z "},"Ġ":{"ha":997,"x_min":90,"x_max":879,"o":"m 546 -11 q 210 121 331 -11 q 90 490 90 253 q 210 857 90 724 q 536 990 329 990 q 858 868 743 990 q 875 831 875 850 q 867 807 875 817 q 849 797 860 797 q 837 799 843 797 q 821 810 831 801 q 681 897 744 874 q 536 921 618 921 q 266 809 361 921 q 171 490 171 697 q 267 169 171 281 q 546 57 364 57 q 829 114 713 57 l 810 60 l 810 432 l 578 432 q 540 465 540 432 q 578 499 540 499 l 846 499 q 879 464 879 499 l 879 89 q 873 64 879 75 q 853 47 867 53 q 546 -11 732 -11 m 536 1111 q 494 1126 511 1111 q 478 1168 478 1142 q 536 1225 478 1225 q 578 1210 561 1225 q 594 1168 594 1194 q 578 1126 594 1142 q 536 1111 561 1111 z "},"Ḡ":{"ha":997,"x_min":90,"x_max":879,"o":"m 546 -11 q 210 121 331 -11 q 90 490 90 253 q 210 857 90 724 q 536 990 329 990 q 858 868 743 990 q 875 831 875 850 q 867 807 875 817 q 849 797 860 797 q 837 799 843 797 q 821 810 831 801 q 681 897 744 874 q 536 921 618 921 q 266 809 361 921 q 171 490 171 697 q 267 169 171 281 q 546 57 364 57 q 829 114 713 57 l 810 60 l 810 432 l 578 432 q 540 465 540 432 q 578 499 540 499 l 846 499 q 879 464 879 499 l 879 89 q 873 64 879 75 q 853 47 867 53 q 546 -11 732 -11 m 368 1135 q 325 1168 325 1135 q 368 1201 325 1201 l 704 1201 q 747 1168 747 1201 q 704 1135 747 1135 l 368 1135 z "},"H":{"ha":1046,"x_min":129,"x_max":917,"o":"m 879 -7 q 842 33 842 -7 l 842 946 q 879 986 842 986 q 917 946 917 986 l 917 33 q 907 4 917 15 q 879 -7 897 -7 m 167 -7 q 129 33 129 -7 l 129 946 q 167 986 129 986 q 204 946 204 986 l 204 33 q 194 4 204 15 q 167 -7 185 -7 m 176 464 l 176 531 l 882 531 l 882 464 l 176 464 z "},"Ħ":{"ha":1065,"x_min":0,"x_max":1065,"o":"m 889 -7 q 861 4 871 -7 q 851 33 851 15 l 851 946 q 861 975 851 964 q 889 986 871 986 q 917 975 907 986 q 926 946 926 964 l 926 33 q 917 4 926 15 q 889 -7 907 -7 m 176 -7 q 149 4 158 -7 q 139 33 139 15 l 139 946 q 149 975 139 964 q 176 986 158 986 q 204 975 194 986 q 214 946 214 964 l 214 33 q 204 4 214 15 q 176 -7 194 -7 m 186 464 l 186 531 l 892 531 l 892 464 l 186 464 m 35 729 q 0 761 0 729 q 35 793 0 793 l 1033 793 q 1065 761 1065 793 q 1033 729 1065 729 l 35 729 z "},"Ḫ":{"ha":1046,"x_min":129,"x_max":917,"o":"m 879 -7 q 842 33 842 -7 l 842 946 q 879 986 842 986 q 917 946 917 986 l 917 33 q 907 4 917 15 q 879 -7 897 -7 m 167 -7 q 129 33 129 -7 l 129 946 q 167 986 129 986 q 204 946 204 986 l 204 33 q 194 4 204 15 q 167 -7 185 -7 m 176 464 l 176 531 l 882 531 l 882 464 l 176 464 m 524 -285 q 402 -251 457 -285 q 318 -150 347 -218 q 334 -99 301 -111 q 385 -124 367 -86 q 524 -218 429 -218 q 663 -124 618 -218 q 713 -99 681 -86 q 729 -150 744 -111 q 646 -251 701 -218 q 524 -285 590 -285 z "},"Ĥ":{"ha":1046,"x_min":129,"x_max":917,"o":"m 879 -7 q 842 33 842 -7 l 842 946 q 879 986 842 986 q 917 946 917 986 l 917 33 q 907 4 917 15 q 879 -7 897 -7 m 167 -7 q 129 33 129 -7 l 129 946 q 167 986 129 986 q 204 946 204 986 l 204 33 q 194 4 204 15 q 167 -7 185 -7 m 176 464 l 176 531 l 882 531 l 882 464 l 176 464 m 397 1068 q 363 1056 381 1050 q 340 1079 346 1061 q 350 1117 333 1097 l 479 1257 q 522 1278 499 1278 q 565 1257 544 1278 l 694 1117 q 705 1079 711 1097 q 681 1056 699 1061 q 647 1068 664 1050 l 522 1213 l 397 1068 z "},"Ḥ":{"ha":1046,"x_min":129,"x_max":917,"o":"m 879 -7 q 842 33 842 -7 l 842 946 q 879 986 842 986 q 917 946 917 986 l 917 33 q 907 4 917 15 q 879 -7 897 -7 m 167 -7 q 129 33 129 -7 l 129 946 q 167 986 129 986 q 204 946 204 986 l 204 33 q 194 4 204 15 q 167 -7 185 -7 m 176 464 l 176 531 l 882 531 l 882 464 l 176 464 m 524 -251 q 482 -236 499 -251 q 465 -194 465 -221 q 482 -153 465 -168 q 524 -137 499 -137 q 565 -153 549 -137 q 582 -194 582 -168 q 565 -236 582 -221 q 524 -251 549 -251 z "},"I":{"ha":333,"x_min":129,"x_max":204,"o":"m 167 -7 q 129 33 129 -7 l 129 946 q 167 986 129 986 q 204 946 204 986 l 204 33 q 167 -7 204 -7 z "},"Í":{"ha":333,"x_min":129,"x_max":378,"o":"m 167 -7 q 129 33 129 -7 l 129 946 q 167 986 129 986 q 204 946 204 986 l 204 33 q 167 -7 204 -7 m 183 1061 q 151 1062 165 1047 q 151 1094 136 1076 l 296 1257 q 333 1278 314 1278 q 365 1267 353 1279 q 376 1235 378 1254 q 351 1197 375 1215 l 183 1061 z "},"Ĭ":{"ha":333,"x_min":-58,"x_max":390,"o":"m 167 -7 q 129 33 129 -7 l 129 946 q 167 986 129 986 q 204 946 204 986 l 204 33 q 167 -7 204 -7 m 167 1081 q 46 1110 100 1081 q -40 1204 -8 1140 q -27 1251 -58 1239 q 24 1231 4 1264 q 167 1146 74 1146 q 310 1231 260 1146 q 360 1251 329 1264 q 374 1204 390 1239 q 288 1110 343 1140 q 167 1081 233 1081 z "},"Î":{"ha":333,"x_min":-22,"x_max":356,"o":"m 167 -7 q 129 33 129 -7 l 129 946 q 167 986 129 986 q 204 946 204 986 l 204 33 q 167 -7 204 -7 m 42 1068 q 8 1056 25 1050 q -16 1079 -10 1061 q -6 1117 -22 1097 l 124 1257 q 167 1278 143 1278 q 210 1257 189 1278 l 339 1117 q 349 1079 356 1097 q 326 1056 343 1061 q 292 1068 308 1050 l 167 1213 l 42 1068 z "},"Ȉ":{"ha":333,"x_min":-58,"x_max":271,"o":"m 167 -7 q 129 33 129 -7 l 129 946 q 167 986 129 986 q 204 946 204 986 l 204 33 q 167 -7 204 -7 m 228 1065 l 119 1210 q 108 1258 99 1238 q 140 1278 118 1278 q 178 1247 161 1279 l 261 1085 q 256 1058 271 1067 q 228 1065 240 1049 m 71 1065 l -37 1210 q -49 1258 -58 1238 q -17 1278 -39 1278 q 21 1247 6 1279 l 104 1085 q 99 1058 114 1067 q 71 1065 83 1049 z "},"Ï":{"ha":333,"x_min":-3,"x_max":336,"o":"m 167 -7 q 129 33 129 -7 l 129 946 q 167 986 129 986 q 204 946 204 986 l 204 33 q 167 -7 204 -7 m 281 1114 q 242 1129 258 1114 q 225 1168 225 1144 q 242 1207 225 1192 q 281 1222 258 1222 q 319 1207 303 1222 q 336 1168 336 1192 q 319 1129 336 1144 q 281 1114 303 1114 m 53 1114 q 14 1129 31 1114 q -3 1168 -3 1144 q 14 1207 -3 1192 q 53 1222 31 1222 q 92 1207 75 1222 q 108 1168 108 1192 q 92 1129 108 1144 q 53 1114 75 1114 z "},"Ḯ":{"ha":333,"x_min":-3,"x_max":378,"o":"m 167 -7 q 129 33 129 -7 l 129 946 q 167 986 129 986 q 204 946 204 986 l 204 33 q 167 -7 204 -7 m 281 1114 q 242 1129 258 1114 q 225 1168 225 1144 q 242 1207 225 1192 q 281 1222 258 1222 q 319 1207 303 1222 q 336 1168 336 1192 q 319 1129 336 1144 q 281 1114 303 1114 m 53 1114 q 14 1129 31 1114 q -3 1168 -3 1144 q 14 1207 -3 1192 q 53 1222 31 1222 q 92 1207 75 1222 q 108 1168 108 1192 q 92 1129 108 1144 q 53 1114 75 1114 m 183 1283 q 151 1284 165 1269 q 151 1317 136 1299 l 296 1479 q 333 1501 314 1500 q 365 1489 353 1501 q 376 1457 378 1476 q 351 1419 375 1438 l 183 1283 z "},"İ":{"ha":333,"x_min":108,"x_max":225,"o":"m 167 -7 q 129 33 129 -7 l 129 946 q 167 986 129 986 q 204 946 204 986 l 204 33 q 167 -7 204 -7 m 167 1111 q 125 1126 142 1111 q 108 1168 108 1142 q 167 1225 108 1225 q 208 1210 192 1225 q 225 1168 225 1194 q 208 1126 225 1142 q 167 1111 192 1111 z "},"Ị":{"ha":333,"x_min":108,"x_max":225,"o":"m 167 -7 q 129 33 129 -7 l 129 946 q 167 986 129 986 q 204 946 204 986 l 204 33 q 167 -7 204 -7 m 167 -251 q 125 -236 142 -251 q 108 -194 108 -221 q 125 -153 108 -168 q 167 -137 142 -137 q 208 -153 192 -137 q 225 -194 225 -168 q 208 -236 225 -221 q 167 -251 192 -251 z "},"Ì":{"ha":333,"x_min":-49,"x_max":204,"o":"m 167 -7 q 129 33 129 -7 l 129 946 q 167 986 129 986 q 204 946 204 986 l 204 33 q 167 -7 204 -7 m 150 1061 l -18 1197 q -42 1247 -49 1222 q -11 1278 -36 1271 q 38 1257 14 1285 l 182 1094 q 183 1062 197 1076 q 150 1061 168 1047 z "},"Ỉ":{"ha":333,"x_min":51,"x_max":304,"o":"m 167 -7 q 129 33 129 -7 l 129 946 q 167 986 129 986 q 204 946 204 986 l 204 33 q 167 -7 204 -7 m 200 1079 q 167 1056 197 1054 q 138 1089 138 1057 q 160 1135 138 1119 q 207 1160 183 1150 q 231 1189 231 1171 q 169 1217 231 1217 q 135 1214 150 1217 q 97 1206 119 1211 q 58 1223 65 1196 q 79 1261 51 1250 q 171 1278 121 1278 q 269 1253 235 1278 q 304 1189 304 1228 q 279 1138 304 1153 q 228 1112 254 1122 q 200 1079 203 1101 z "},"Ȋ":{"ha":333,"x_min":-57,"x_max":392,"o":"m 167 -7 q 129 33 129 -7 l 129 946 q 167 986 129 986 q 204 946 204 986 l 204 33 q 167 -7 204 -7 m 24 1104 q -26 1083 4 1071 q -40 1131 -57 1094 q 45 1224 -10 1194 q 167 1254 100 1254 q 288 1224 233 1254 q 374 1131 342 1194 q 360 1083 392 1094 q 310 1104 329 1071 q 167 1189 260 1189 q 24 1104 74 1189 z "},"Ī":{"ha":333,"x_min":-44,"x_max":378,"o":"m 167 -7 q 129 33 129 -7 l 129 946 q 167 986 129 986 q 204 946 204 986 l 204 33 q 167 -7 204 -7 m -1 1135 q -44 1168 -44 1135 q -1 1201 -44 1201 l 335 1201 q 378 1168 378 1201 q 335 1135 378 1135 l -1 1135 z "},"Į":{"ha":333,"x_min":1,"x_max":279,"o":"m 158 -265 q 44 -225 88 -265 q 1 -122 1 -185 q 47 -10 1 -58 q 181 53 93 39 l 143 3 q 129 33 129 14 l 129 946 q 167 986 129 986 q 204 946 204 986 l 204 33 q 176 -3 204 1 q 71 -114 71 -19 q 165 -206 71 -206 q 232 -187 196 -206 q 272 -199 264 -171 q 254 -242 279 -228 q 158 -265 213 -265 z "},"Ĩ":{"ha":333,"x_min":-46,"x_max":379,"o":"m 167 -7 q 129 33 129 -7 l 129 946 q 167 986 129 986 q 204 946 204 986 l 204 33 q 167 -7 204 -7 m 263 1103 q 160 1135 213 1103 q 71 1167 107 1167 q 10 1136 22 1167 q -21 1106 -1 1106 q -46 1133 -46 1106 q -15 1199 -46 1164 q 71 1235 15 1235 q 174 1203 121 1235 q 263 1171 226 1171 q 323 1201 311 1171 q 354 1232 335 1232 q 379 1204 379 1232 q 349 1138 379 1172 q 263 1103 318 1103 z "},"J":{"ha":425,"x_min":-12,"x_max":296,"o":"m 35 -7 q -12 25 -12 -11 q 25 58 -12 57 l 65 61 q 181 108 142 67 q 221 253 221 150 l 221 946 q 233 975 221 964 q 258 986 244 986 q 287 975 278 986 q 296 946 296 964 l 296 250 q 241 63 296 122 q 76 -4 186 3 l 35 -7 z "},"Ĵ":{"ha":425,"x_min":-12,"x_max":447,"o":"m 35 -7 q -12 25 -12 -11 q 25 58 -12 57 l 65 61 q 181 108 142 67 q 221 253 221 150 l 221 946 q 233 975 221 964 q 258 986 244 986 q 287 975 278 986 q 296 946 296 964 l 296 250 q 241 63 296 122 q 76 -4 186 3 l 35 -7 m 133 1068 q 99 1056 117 1050 q 76 1079 82 1061 q 86 1117 69 1097 l 215 1257 q 258 1278 235 1278 q 301 1257 281 1278 l 431 1117 q 441 1079 447 1097 q 417 1056 435 1061 q 383 1068 400 1050 l 258 1213 l 133 1068 z "},"K":{"ha":844,"x_min":129,"x_max":819,"o":"m 758 3 l 174 496 l 729 975 q 764 983 747 990 q 786 957 781 975 q 774 924 792 939 l 246 471 l 246 526 l 800 57 q 815 22 819 40 q 792 -3 810 4 q 758 3 775 -11 m 167 -7 q 129 33 129 -7 l 129 946 q 167 986 129 986 q 204 946 204 986 l 204 33 q 167 -7 204 -7 z "},"Ķ":{"ha":844,"x_min":129,"x_max":819,"o":"m 758 3 l 174 496 l 729 975 q 764 983 747 990 q 786 957 781 975 q 774 924 792 939 l 246 471 l 246 526 l 800 57 q 815 22 819 40 q 792 -3 810 4 q 758 3 775 -11 m 167 -7 q 129 33 129 -7 l 129 946 q 167 986 129 986 q 204 946 204 986 l 204 33 q 167 -7 204 -7 m 429 -335 q 399 -349 414 -350 q 378 -333 383 -347 q 386 -303 372 -319 q 419 -251 408 -276 q 429 -197 429 -226 l 456 -208 l 431 -208 q 388 -194 406 -208 q 371 -151 371 -179 q 386 -112 371 -128 q 425 -97 401 -97 q 472 -116 454 -97 q 490 -179 490 -135 q 476 -258 490 -218 q 429 -335 463 -299 z "},"L":{"ha":738,"x_min":129,"x_max":722,"o":"m 168 0 q 129 35 129 0 l 129 946 q 167 986 129 986 q 204 946 204 986 l 204 67 l 689 67 q 722 33 722 67 q 689 0 722 0 l 168 0 z "},"Ǉ":{"ha":1160,"x_min":129,"x_max":1031,"o":"m 168 0 q 129 35 129 0 l 129 946 q 167 986 129 986 q 204 946 204 986 l 204 67 l 647 67 q 681 33 681 67 q 647 0 681 0 l 168 0 m 769 -7 q 722 25 722 -11 q 760 58 722 57 l 800 61 q 917 108 878 67 q 956 253 956 150 l 956 946 q 967 975 956 964 q 993 986 978 986 q 1021 975 1011 986 q 1031 946 1031 964 l 1031 250 q 976 63 1031 122 q 811 -4 921 3 l 769 -7 z "},"Ĺ":{"ha":738,"x_min":129,"x_max":722,"o":"m 168 0 q 129 35 129 0 l 129 946 q 167 986 129 986 q 204 946 204 986 l 204 67 l 689 67 q 722 33 722 67 q 689 0 722 0 l 168 0 m 183 1061 q 151 1062 165 1047 q 151 1094 136 1076 l 296 1257 q 333 1278 314 1278 q 365 1267 353 1279 q 376 1235 378 1254 q 351 1197 375 1215 l 183 1061 z "},"Ľ":{"ha":738,"x_min":129,"x_max":722,"o":"m 168 0 q 129 35 129 0 l 129 946 q 167 986 129 986 q 204 946 204 986 l 204 67 l 689 67 q 722 33 722 67 q 689 0 722 0 l 168 0 m 368 732 q 342 711 365 708 q 319 736 319 714 l 319 942 q 341 984 319 975 q 383 980 363 993 q 399 935 403 967 l 368 732 z "},"Ļ":{"ha":738,"x_min":129,"x_max":722,"o":"m 168 0 q 129 35 129 0 l 129 946 q 167 986 129 986 q 204 946 204 986 l 204 67 l 689 67 q 722 33 722 67 q 689 0 722 0 l 168 0 m 431 -335 q 400 -349 415 -350 q 379 -333 385 -347 q 388 -303 374 -319 q 420 -251 410 -276 q 431 -197 431 -226 l 457 -208 l 432 -208 q 390 -194 407 -208 q 372 -151 372 -179 q 388 -112 372 -128 q 426 -97 403 -97 q 474 -116 456 -97 q 492 -179 492 -135 q 478 -258 492 -218 q 431 -335 464 -299 z "},"Ŀ":{"ha":738,"x_min":129,"x_max":722,"o":"m 168 0 q 129 35 129 0 l 129 946 q 167 986 129 986 q 204 946 204 986 l 204 67 l 689 67 q 722 33 722 67 q 689 0 722 0 l 168 0 m 464 433 q 422 449 439 433 q 406 490 406 464 q 464 547 406 547 q 506 532 489 547 q 522 490 522 517 q 506 449 522 464 q 464 433 489 433 z "},"Ḷ":{"ha":738,"x_min":129,"x_max":722,"o":"m 168 0 q 129 35 129 0 l 129 946 q 167 986 129 986 q 204 946 204 986 l 204 67 l 689 67 q 722 33 722 67 q 689 0 722 0 l 168 0 m 426 -251 q 385 -236 401 -251 q 368 -194 368 -221 q 385 -153 368 -168 q 426 -137 401 -137 q 468 -153 451 -137 q 485 -194 485 -168 q 468 -236 485 -221 q 426 -251 451 -251 z "},"ǈ":{"ha":1040,"x_min":129,"x_max":947,"o":"m 168 0 q 129 35 129 0 l 129 946 q 167 986 129 986 q 204 946 204 986 l 204 67 l 689 67 q 722 33 722 67 q 689 0 722 0 l 168 0 z "},"Ḻ":{"ha":738,"x_min":129,"x_max":722,"o":"m 168 0 q 129 35 129 0 l 129 946 q 167 986 129 986 q 204 946 204 986 l 204 67 l 689 67 q 722 33 722 67 q 689 0 722 0 l 168 0 m 258 -228 q 215 -194 215 -228 q 258 -161 215 -161 l 594 -161 q 638 -194 638 -161 q 594 -228 638 -228 l 258 -228 z "},"Ł":{"ha":747,"x_min":-3,"x_max":732,"o":"m 178 0 q 139 35 139 0 l 139 946 q 176 986 139 986 q 214 946 214 986 l 214 67 l 699 67 q 732 33 732 67 q 699 0 732 0 l 178 0 m 51 386 q 15 385 31 375 q -1 413 0 394 q 18 443 -3 431 l 436 683 q 469 684 456 694 q 486 656 483 674 q 469 628 489 639 l 51 386 z "},"M":{"ha":1167,"x_min":129,"x_max":1038,"o":"m 165 -7 q 138 4 147 -7 q 129 33 129 15 l 129 946 q 140 975 129 964 q 168 986 150 986 q 206 957 192 986 l 604 193 l 568 193 l 961 957 q 999 986 975 986 q 1027 975 1017 986 q 1038 946 1038 964 l 1038 33 q 1028 4 1038 15 q 1000 -7 1019 -7 q 974 4 982 -7 q 967 33 967 15 l 967 897 l 1001 893 l 626 169 q 585 140 611 140 q 543 169 558 140 l 161 894 l 200 897 l 200 33 q 192 4 200 15 q 165 -7 183 -7 z "},"Ṃ":{"ha":1167,"x_min":129,"x_max":1038,"o":"m 165 -7 q 138 4 147 -7 q 129 33 129 15 l 129 946 q 140 975 129 964 q 168 986 150 986 q 206 957 192 986 l 604 193 l 568 193 l 961 957 q 999 986 975 986 q 1027 975 1017 986 q 1038 946 1038 964 l 1038 33 q 1028 4 1038 15 q 1000 -7 1019 -7 q 974 4 982 -7 q 967 33 967 15 l 967 897 l 1001 893 l 626 169 q 585 140 611 140 q 543 169 558 140 l 161 894 l 200 897 l 200 33 q 192 4 200 15 q 165 -7 183 -7 m 583 -251 q 542 -236 558 -251 q 525 -194 525 -221 q 542 -153 525 -168 q 583 -137 558 -137 q 625 -153 608 -137 q 642 -194 642 -168 q 625 -236 642 -221 q 583 -251 608 -251 z "},"N":{"ha":1019,"x_min":129,"x_max":890,"o":"m 164 -7 q 137 4 144 -7 q 129 33 129 15 l 129 946 q 140 975 129 964 q 168 986 150 986 q 201 967 186 986 l 851 86 l 819 85 l 819 946 q 829 975 819 964 q 856 986 839 986 q 882 975 874 986 q 890 946 890 964 l 890 33 q 881 4 890 15 q 853 -7 871 -7 q 819 13 835 -7 l 169 893 l 200 894 l 200 33 q 190 4 200 15 q 164 -7 181 -7 z "},"Ǌ":{"ha":1444,"x_min":129,"x_max":1315,"o":"m 164 -7 q 137 4 144 -7 q 129 33 129 15 l 129 946 q 140 975 129 964 q 168 986 150 986 q 201 967 186 986 l 851 86 l 819 85 l 819 946 q 829 975 819 964 q 856 986 839 986 q 882 975 874 986 q 890 946 890 964 l 890 33 q 881 4 890 15 q 853 -7 871 -7 q 819 13 835 -7 l 169 893 l 200 894 l 200 33 q 190 4 200 15 q 164 -7 181 -7 m 1054 -7 q 1007 25 1007 -11 q 1044 58 1007 57 l 1085 61 q 1201 108 1161 67 q 1240 253 1240 150 l 1240 946 q 1252 975 1240 964 q 1278 986 1264 986 q 1306 975 1297 986 q 1315 946 1315 964 l 1315 250 q 1260 63 1315 122 q 1096 -4 1206 3 l 1054 -7 z "},"Ń":{"ha":1019,"x_min":129,"x_max":890,"o":"m 164 -7 q 137 4 144 -7 q 129 33 129 15 l 129 946 q 140 975 129 964 q 168 986 150 986 q 201 967 186 986 l 851 86 l 819 85 l 819 946 q 829 975 819 964 q 856 986 839 986 q 882 975 874 986 q 890 946 890 964 l 890 33 q 881 4 890 15 q 853 -7 871 -7 q 819 13 835 -7 l 169 893 l 200 894 l 200 33 q 190 4 200 15 q 164 -7 181 -7 m 526 1061 q 494 1062 508 1047 q 494 1094 479 1076 l 639 1257 q 676 1278 657 1278 q 708 1267 696 1279 q 719 1235 721 1254 q 694 1197 718 1215 l 526 1061 z "},"Ň":{"ha":1019,"x_min":129,"x_max":890,"o":"m 164 -7 q 137 4 144 -7 q 129 33 129 15 l 129 946 q 140 975 129 964 q 168 986 150 986 q 201 967 186 986 l 851 86 l 819 85 l 819 946 q 829 975 819 964 q 856 986 839 986 q 882 975 874 986 q 890 946 890 964 l 890 33 q 881 4 890 15 q 853 -7 871 -7 q 819 13 835 -7 l 169 893 l 200 894 l 200 33 q 190 4 200 15 q 164 -7 181 -7 m 510 1056 q 467 1076 488 1056 l 338 1217 q 327 1254 321 1236 q 351 1278 333 1272 q 385 1265 368 1283 l 510 1121 l 635 1265 q 669 1278 651 1283 q 692 1254 686 1272 q 682 1217 699 1236 l 553 1076 q 510 1056 533 1056 z "},"Ņ":{"ha":1019,"x_min":129,"x_max":890,"o":"m 164 -7 q 137 4 144 -7 q 129 33 129 15 l 129 946 q 140 975 129 964 q 168 986 150 986 q 201 967 186 986 l 851 86 l 819 85 l 819 946 q 829 975 819 964 q 856 986 839 986 q 882 975 874 986 q 890 946 890 964 l 890 33 q 881 4 890 15 q 853 -7 871 -7 q 819 13 835 -7 l 169 893 l 200 894 l 200 33 q 190 4 200 15 q 164 -7 181 -7 m 514 -335 q 483 -349 499 -350 q 463 -333 468 -347 q 471 -303 457 -319 q 503 -251 493 -276 q 514 -197 514 -226 l 540 -208 l 515 -208 q 473 -194 490 -208 q 456 -151 456 -179 q 471 -112 456 -128 q 510 -97 486 -97 q 557 -116 539 -97 q 575 -179 575 -135 q 561 -258 575 -218 q 514 -335 547 -299 z "},"Ṅ":{"ha":1019,"x_min":129,"x_max":890,"o":"m 164 -7 q 137 4 144 -7 q 129 33 129 15 l 129 946 q 140 975 129 964 q 168 986 150 986 q 201 967 186 986 l 851 86 l 819 85 l 819 946 q 829 975 819 964 q 856 986 839 986 q 882 975 874 986 q 890 946 890 964 l 890 33 q 881 4 890 15 q 853 -7 871 -7 q 819 13 835 -7 l 169 893 l 200 894 l 200 33 q 190 4 200 15 q 164 -7 181 -7 m 510 1111 q 468 1126 485 1111 q 451 1168 451 1142 q 510 1225 451 1225 q 551 1210 535 1225 q 568 1168 568 1194 q 551 1126 568 1142 q 510 1111 535 1111 z "},"Ṇ":{"ha":1019,"x_min":129,"x_max":890,"o":"m 164 -7 q 137 4 144 -7 q 129 33 129 15 l 129 946 q 140 975 129 964 q 168 986 150 986 q 201 967 186 986 l 851 86 l 819 85 l 819 946 q 829 975 819 964 q 856 986 839 986 q 882 975 874 986 q 890 946 890 964 l 890 33 q 881 4 890 15 q 853 -7 871 -7 q 819 13 835 -7 l 169 893 l 200 894 l 200 33 q 190 4 200 15 q 164 -7 181 -7 m 510 -251 q 468 -236 485 -251 q 451 -194 451 -221 q 468 -153 451 -168 q 510 -137 485 -137 q 551 -153 535 -137 q 568 -194 568 -168 q 551 -236 568 -221 q 510 -251 535 -251 z "},"Ŋ":{"ha":1019,"x_min":129,"x_max":890,"o":"m 629 -257 q 582 -225 582 -261 q 619 -192 582 -193 l 660 -189 q 778 -142 736 -183 q 819 3 819 -100 l 819 51 l 854 -33 l 169 893 l 200 894 l 200 33 q 190 4 200 15 q 164 -7 181 -7 q 137 4 144 -7 q 129 33 129 15 l 129 946 q 140 975 129 964 q 168 986 150 986 q 201 967 189 986 l 851 86 l 819 85 l 819 946 q 829 975 819 964 q 856 986 839 986 q 882 975 874 986 q 890 946 890 964 l 890 0 q 835 -187 890 -128 q 671 -254 781 -247 l 629 -257 z "},"ǋ":{"ha":1322,"x_min":129,"x_max":1229,"o":"m 164 -7 q 137 4 144 -7 q 129 33 129 15 l 129 946 q 140 975 129 964 q 168 986 150 986 q 201 967 186 986 l 851 86 l 819 85 l 819 946 q 829 975 819 964 q 856 986 839 986 q 882 975 874 986 q 890 946 890 964 l 890 33 q 881 4 890 15 q 853 -7 871 -7 q 819 13 835 -7 l 169 893 l 200 894 l 200 33 q 190 4 200 15 q 164 -7 181 -7 z "},"Ṉ":{"ha":1019,"x_min":129,"x_max":890,"o":"m 164 -7 q 137 4 144 -7 q 129 33 129 15 l 129 946 q 140 975 129 964 q 168 986 150 986 q 201 967 186 986 l 851 86 l 819 85 l 819 946 q 829 975 819 964 q 856 986 839 986 q 882 975 874 986 q 890 946 890 964 l 890 33 q 881 4 890 15 q 853 -7 871 -7 q 819 13 835 -7 l 169 893 l 200 894 l 200 33 q 190 4 200 15 q 164 -7 181 -7 m 342 -228 q 299 -194 299 -228 q 342 -161 299 -161 l 678 -161 q 721 -194 721 -161 q 678 -228 721 -228 l 342 -228 z "},"Ñ":{"ha":1019,"x_min":129,"x_max":890,"o":"m 164 -7 q 137 4 144 -7 q 129 33 129 15 l 129 946 q 140 975 129 964 q 168 986 150 986 q 201 967 186 986 l 851 86 l 819 85 l 819 946 q 829 975 819 964 q 856 986 839 986 q 882 975 874 986 q 890 946 890 964 l 890 33 q 881 4 890 15 q 853 -7 871 -7 q 819 13 835 -7 l 169 893 l 200 894 l 200 33 q 190 4 200 15 q 164 -7 181 -7 m 606 1103 q 503 1135 556 1103 q 414 1167 450 1167 q 353 1136 365 1167 q 322 1106 342 1106 q 297 1133 297 1106 q 328 1199 297 1164 q 414 1235 358 1235 q 517 1203 464 1235 q 606 1171 569 1171 q 666 1201 654 1171 q 697 1232 678 1232 q 722 1204 722 1232 q 692 1138 722 1172 q 606 1103 661 1103 z "},"O":{"ha":1049,"x_min":90,"x_max":958,"o":"m 524 -11 q 207 124 324 -11 q 90 489 90 258 q 206 856 90 722 q 524 990 322 990 q 842 856 725 990 q 958 490 958 722 q 842 124 958 258 q 524 -11 725 -11 m 524 58 q 785 171 692 58 q 879 490 879 283 q 786 809 879 697 q 524 921 693 921 q 263 808 356 921 q 169 490 169 696 q 263 172 169 285 q 524 58 356 58 z "},"Ó":{"ha":1049,"x_min":90,"x_max":958,"o":"m 524 -11 q 207 124 324 -11 q 90 489 90 258 q 206 856 90 722 q 524 990 322 990 q 842 856 725 990 q 958 490 958 722 q 842 124 958 258 q 524 -11 725 -11 m 524 58 q 785 171 692 58 q 879 490 879 283 q 786 809 879 697 q 524 921 693 921 q 263 808 356 921 q 169 490 169 696 q 263 172 169 285 q 524 58 356 58 m 540 1061 q 508 1062 522 1047 q 508 1094 493 1076 l 653 1257 q 690 1278 671 1278 q 722 1267 710 1279 q 733 1235 735 1254 q 708 1197 732 1215 l 540 1061 z "},"Ŏ":{"ha":1049,"x_min":90,"x_max":958,"o":"m 524 -11 q 207 124 324 -11 q 90 489 90 258 q 206 856 90 722 q 524 990 322 990 q 842 856 725 990 q 958 490 958 722 q 842 124 958 258 q 524 -11 725 -11 m 524 58 q 785 171 692 58 q 879 490 879 283 q 786 809 879 697 q 524 921 693 921 q 263 808 356 921 q 169 490 169 696 q 263 172 169 285 q 524 58 356 58 m 524 1081 q 403 1110 457 1081 q 317 1204 349 1140 q 330 1251 299 1239 q 381 1231 361 1264 q 524 1146 431 1146 q 667 1231 617 1146 q 717 1251 686 1264 q 731 1204 747 1239 q 645 1110 700 1140 q 524 1081 590 1081 z "},"Ô":{"ha":1049,"x_min":90,"x_max":958,"o":"m 524 -11 q 207 124 324 -11 q 90 489 90 258 q 206 856 90 722 q 524 990 322 990 q 842 856 725 990 q 958 490 958 722 q 842 124 958 258 q 524 -11 725 -11 m 524 58 q 785 171 692 58 q 879 490 879 283 q 786 809 879 697 q 524 921 693 921 q 263 808 356 921 q 169 490 169 696 q 263 172 169 285 q 524 58 356 58 m 399 1068 q 365 1056 382 1050 q 341 1079 347 1061 q 351 1117 335 1097 l 481 1257 q 524 1278 500 1278 q 567 1257 546 1278 l 696 1117 q 706 1079 713 1097 q 683 1056 700 1061 q 649 1068 665 1050 l 524 1213 l 399 1068 z "},"Ố":{"ha":1049,"x_min":90,"x_max":958,"o":"m 524 -11 q 207 124 324 -11 q 90 489 90 258 q 206 856 90 722 q 524 990 322 990 q 842 856 725 990 q 958 490 958 722 q 842 124 958 258 q 524 -11 725 -11 m 524 58 q 785 171 692 58 q 879 490 879 283 q 786 809 879 697 q 524 921 693 921 q 263 808 356 921 q 169 490 169 696 q 263 172 169 285 q 524 58 356 58 m 399 1068 q 365 1056 383 1050 q 341 1079 347 1061 q 351 1117 335 1097 l 481 1257 q 524 1278 500 1278 q 567 1257 546 1278 l 696 1117 q 706 1079 713 1097 q 682 1056 700 1061 q 649 1068 664 1050 l 524 1213 l 399 1068 m 688 1203 q 655 1203 672 1189 q 653 1235 638 1217 l 768 1385 q 803 1408 785 1406 q 835 1398 822 1410 q 849 1367 849 1386 q 826 1329 849 1349 l 688 1203 z "},"Ộ":{"ha":1049,"x_min":90,"x_max":958,"o":"m 524 -11 q 207 124 324 -11 q 90 489 90 258 q 206 856 90 722 q 524 990 322 990 q 842 856 725 990 q 958 490 958 722 q 842 124 958 258 q 524 -11 725 -11 m 524 58 q 785 171 692 58 q 879 490 879 283 q 786 809 879 697 q 524 921 693 921 q 263 808 356 921 q 169 490 169 696 q 263 172 169 285 q 524 58 356 58 m 524 -251 q 482 -236 499 -251 q 465 -194 465 -221 q 482 -153 465 -168 q 524 -137 499 -137 q 565 -153 549 -137 q 582 -194 582 -168 q 565 -236 582 -221 q 524 -251 549 -251 m 399 1068 q 365 1056 382 1050 q 341 1079 347 1061 q 351 1117 335 1097 l 481 1257 q 524 1278 500 1278 q 567 1257 546 1278 l 696 1117 q 706 1079 713 1097 q 683 1056 700 1061 q 649 1068 665 1050 l 524 1213 l 399 1068 z "},"Ồ":{"ha":1049,"x_min":90,"x_max":958,"o":"m 524 -11 q 207 124 324 -11 q 90 489 90 258 q 206 856 90 722 q 524 990 322 990 q 842 856 725 990 q 958 490 958 722 q 842 124 958 258 q 524 -11 725 -11 m 524 58 q 785 171 692 58 q 879 490 879 283 q 786 809 879 697 q 524 921 693 921 q 263 808 356 921 q 169 490 169 696 q 263 172 169 285 q 524 58 356 58 m 399 1068 q 365 1056 383 1050 q 341 1079 347 1061 q 351 1117 335 1097 l 481 1257 q 524 1278 500 1278 q 567 1257 546 1278 l 696 1117 q 706 1079 713 1097 q 682 1056 700 1061 q 649 1068 664 1050 l 524 1213 l 399 1068 m 696 1203 l 557 1329 q 535 1367 535 1349 q 548 1398 535 1386 q 580 1408 561 1410 q 615 1385 599 1406 l 731 1235 q 728 1203 746 1217 q 696 1203 711 1189 z "},"Ổ":{"ha":1049,"x_min":90,"x_max":958,"o":"m 524 -11 q 207 124 324 -11 q 90 489 90 258 q 206 856 90 722 q 524 990 322 990 q 842 856 725 990 q 958 490 958 722 q 842 124 958 258 q 524 -11 725 -11 m 524 58 q 785 171 692 58 q 879 490 879 283 q 786 809 879 697 q 524 921 693 921 q 263 808 356 921 q 169 490 169 696 q 263 172 169 285 q 524 58 356 58 m 399 1068 q 365 1056 383 1050 q 341 1079 347 1061 q 351 1117 335 1097 l 481 1257 q 524 1278 500 1278 q 567 1257 546 1278 l 696 1117 q 706 1079 713 1097 q 682 1056 700 1061 q 649 1068 664 1050 l 524 1213 l 399 1068 m 696 1219 q 666 1196 693 1194 q 639 1229 639 1197 q 662 1271 639 1257 q 708 1294 685 1285 q 731 1319 731 1303 q 668 1346 731 1346 q 633 1344 649 1346 q 596 1335 618 1342 q 557 1352 564 1325 q 578 1390 550 1379 q 669 1407 619 1407 q 768 1383 733 1407 q 803 1322 803 1358 q 777 1272 803 1286 q 725 1248 751 1257 q 696 1219 699 1239 z "},"Ỗ":{"ha":1049,"x_min":90,"x_max":958,"o":"m 524 -11 q 207 124 324 -11 q 90 489 90 258 q 206 856 90 722 q 524 990 322 990 q 842 856 725 990 q 958 490 958 722 q 842 124 958 258 q 524 -11 725 -11 m 524 58 q 785 171 692 58 q 879 490 879 283 q 786 809 879 697 q 524 921 693 921 q 263 808 356 921 q 169 490 169 696 q 263 172 169 285 q 524 58 356 58 m 399 1068 q 365 1056 383 1050 q 341 1079 347 1061 q 351 1117 335 1097 l 481 1257 q 524 1278 500 1278 q 567 1257 546 1278 l 696 1117 q 706 1079 713 1097 q 682 1056 700 1061 q 649 1068 664 1050 l 524 1213 l 399 1068 m 619 1275 q 517 1307 569 1275 q 428 1339 464 1339 q 367 1308 379 1339 q 336 1278 356 1278 q 311 1306 311 1278 q 342 1372 311 1336 q 428 1407 372 1407 q 531 1375 478 1407 q 619 1343 583 1343 q 680 1374 668 1343 q 711 1404 692 1404 q 736 1376 736 1404 q 706 1310 736 1344 q 619 1275 675 1275 z "},"Ȍ":{"ha":1049,"x_min":90,"x_max":958,"o":"m 524 -11 q 207 124 324 -11 q 90 489 90 258 q 206 856 90 722 q 524 990 322 990 q 842 856 725 990 q 958 490 958 722 q 842 124 958 258 q 524 -11 725 -11 m 524 58 q 785 171 692 58 q 879 490 879 283 q 786 809 879 697 q 524 921 693 921 q 263 808 356 921 q 169 490 169 696 q 263 172 169 285 q 524 58 356 58 m 585 1065 l 476 1210 q 465 1258 456 1238 q 497 1278 475 1278 q 535 1247 518 1279 l 618 1085 q 613 1058 628 1067 q 585 1065 597 1049 m 428 1065 l 319 1210 q 308 1258 299 1238 q 340 1278 318 1278 q 378 1247 363 1279 l 461 1085 q 456 1058 471 1067 q 428 1065 440 1049 z "},"Ö":{"ha":1049,"x_min":90,"x_max":958,"o":"m 524 -11 q 207 124 324 -11 q 90 489 90 258 q 206 856 90 722 q 524 990 322 990 q 842 856 725 990 q 958 490 958 722 q 842 124 958 258 q 524 -11 725 -11 m 524 58 q 785 171 692 58 q 879 490 879 283 q 786 809 879 697 q 524 921 693 921 q 263 808 356 921 q 169 490 169 696 q 263 172 169 285 q 524 58 356 58 m 638 1114 q 599 1129 615 1114 q 582 1168 582 1144 q 599 1207 582 1192 q 638 1222 615 1222 q 676 1207 660 1222 q 693 1168 693 1192 q 676 1129 693 1144 q 638 1114 660 1114 m 410 1114 q 371 1129 388 1114 q 354 1168 354 1144 q 371 1207 354 1192 q 410 1222 388 1222 q 449 1207 432 1222 q 465 1168 465 1192 q 449 1129 465 1144 q 410 1114 432 1114 z "},"Ȫ":{"ha":1049,"x_min":90,"x_max":958,"o":"m 524 -11 q 207 124 324 -11 q 90 489 90 258 q 206 856 90 722 q 524 990 322 990 q 842 856 725 990 q 958 490 958 722 q 842 124 958 258 q 524 -11 725 -11 m 524 58 q 785 171 692 58 q 879 490 879 283 q 786 809 879 697 q 524 921 693 921 q 263 808 356 921 q 169 490 169 696 q 263 172 169 285 q 524 58 356 58 m 638 1114 q 599 1129 615 1114 q 582 1168 582 1144 q 599 1207 582 1192 q 638 1222 615 1222 q 676 1207 660 1222 q 693 1168 693 1192 q 676 1129 693 1144 q 638 1114 660 1114 m 410 1114 q 371 1129 388 1114 q 354 1168 354 1144 q 371 1207 354 1192 q 410 1222 388 1222 q 449 1207 432 1222 q 465 1168 465 1192 q 449 1129 465 1144 q 410 1114 432 1114 m 356 1357 q 313 1390 313 1357 q 356 1424 313 1424 l 692 1424 q 735 1390 735 1424 q 692 1357 735 1357 l 356 1357 z "},"Ȱ":{"ha":1049,"x_min":90,"x_max":958,"o":"m 524 -11 q 207 124 324 -11 q 90 489 90 258 q 206 856 90 722 q 524 990 322 990 q 842 856 725 990 q 958 490 958 722 q 842 124 958 258 q 524 -11 725 -11 m 524 58 q 785 171 692 58 q 879 490 879 283 q 786 809 879 697 q 524 921 693 921 q 263 808 356 921 q 169 490 169 696 q 263 172 169 285 q 524 58 356 58 m 524 1111 q 482 1126 499 1111 q 465 1168 465 1142 q 524 1225 465 1225 q 565 1210 549 1225 q 582 1168 582 1194 q 565 1126 582 1142 q 524 1111 549 1111 m 356 1357 q 313 1390 313 1357 q 356 1424 313 1424 l 692 1424 q 735 1390 735 1424 q 692 1357 735 1357 l 356 1357 z "},"Ọ":{"ha":1049,"x_min":90,"x_max":958,"o":"m 524 -11 q 207 124 324 -11 q 90 489 90 258 q 206 856 90 722 q 524 990 322 990 q 842 856 725 990 q 958 490 958 722 q 842 124 958 258 q 524 -11 725 -11 m 524 58 q 785 171 692 58 q 879 490 879 283 q 786 809 879 697 q 524 921 693 921 q 263 808 356 921 q 169 490 169 696 q 263 172 169 285 q 524 58 356 58 m 524 -251 q 482 -236 499 -251 q 465 -194 465 -221 q 482 -153 465 -168 q 524 -137 499 -137 q 565 -153 549 -137 q 582 -194 582 -168 q 565 -236 582 -221 q 524 -251 549 -251 z "},"Ò":{"ha":1049,"x_min":90,"x_max":958,"o":"m 524 -11 q 207 124 324 -11 q 90 489 90 258 q 206 856 90 722 q 524 990 322 990 q 842 856 725 990 q 958 490 958 722 q 842 124 958 258 q 524 -11 725 -11 m 524 58 q 785 171 692 58 q 879 490 879 283 q 786 809 879 697 q 524 921 693 921 q 263 808 356 921 q 169 490 169 696 q 263 172 169 285 q 524 58 356 58 m 507 1061 l 339 1197 q 315 1247 308 1222 q 346 1278 321 1271 q 394 1257 371 1285 l 539 1094 q 540 1062 554 1076 q 507 1061 525 1047 z "},"Ỏ":{"ha":1049,"x_min":90,"x_max":958,"o":"m 524 -11 q 207 124 324 -11 q 90 489 90 258 q 206 856 90 722 q 524 990 322 990 q 842 856 725 990 q 958 490 958 722 q 842 124 958 258 q 524 -11 725 -11 m 524 58 q 785 171 692 58 q 879 490 879 283 q 786 809 879 697 q 524 921 693 921 q 263 808 356 921 q 169 490 169 696 q 263 172 169 285 q 524 58 356 58 m 557 1079 q 524 1056 554 1054 q 494 1089 494 1057 q 517 1135 494 1119 q 564 1160 540 1150 q 588 1189 588 1171 q 526 1217 588 1217 q 492 1214 507 1217 q 454 1206 476 1211 q 415 1223 422 1196 q 436 1261 408 1250 q 528 1278 478 1278 q 626 1253 592 1278 q 661 1189 661 1228 q 636 1138 661 1153 q 585 1112 611 1122 q 557 1079 560 1101 z "},"Ơ":{"ha":1049,"x_min":90,"x_max":958,"o":"m 524 -11 q 207 124 324 -11 q 90 489 90 258 q 206 856 90 722 q 529 990 322 990 q 632 985 581 990 q 725 979 683 979 q 849 1010 815 979 q 888 1129 883 1042 q 924 1175 890 1175 q 958 1122 958 1175 q 901 974 958 1028 q 743 921 844 921 l 735 939 q 958 490 958 821 q 842 124 958 258 q 524 -11 725 -11 m 524 58 q 785 171 692 58 q 879 490 879 283 q 786 809 879 697 q 524 921 693 921 q 263 808 356 921 q 169 490 169 696 q 263 172 169 285 q 524 58 356 58 z "},"Ớ":{"ha":1049,"x_min":90,"x_max":958,"o":"m 524 -11 q 207 124 324 -11 q 90 489 90 258 q 206 856 90 722 q 529 990 322 990 q 632 985 581 990 q 725 979 683 979 q 849 1010 815 979 q 888 1129 883 1042 q 924 1175 890 1175 q 958 1122 958 1175 q 901 974 958 1028 q 743 921 844 921 l 735 939 q 958 490 958 821 q 842 124 958 258 q 524 -11 725 -11 m 524 58 q 785 171 692 58 q 879 490 879 283 q 786 809 879 697 q 524 921 693 921 q 263 808 356 921 q 169 490 169 696 q 263 172 169 285 q 524 58 356 58 m 540 1061 q 508 1062 522 1047 q 508 1094 493 1076 l 653 1257 q 690 1278 671 1278 q 722 1267 710 1279 q 733 1235 735 1254 q 708 1197 732 1215 l 540 1061 z "},"Ợ":{"ha":1049,"x_min":90,"x_max":958,"o":"m 524 -11 q 207 124 324 -11 q 90 489 90 258 q 206 856 90 722 q 529 990 322 990 q 632 985 581 990 q 725 979 683 979 q 849 1010 815 979 q 888 1129 883 1042 q 924 1175 890 1175 q 958 1122 958 1175 q 901 974 958 1028 q 743 921 844 921 l 735 939 q 958 490 958 821 q 842 124 958 258 q 524 -11 725 -11 m 524 58 q 785 171 692 58 q 879 490 879 283 q 786 809 879 697 q 524 921 693 921 q 263 808 356 921 q 169 490 169 696 q 263 172 169 285 q 524 58 356 58 m 525 -251 q 483 -236 500 -251 q 467 -194 467 -221 q 483 -153 467 -168 q 525 -137 500 -137 q 567 -153 550 -137 q 583 -194 583 -168 q 567 -236 583 -221 q 525 -251 550 -251 z "},"Ờ":{"ha":1049,"x_min":90,"x_max":958,"o":"m 524 -11 q 207 124 324 -11 q 90 489 90 258 q 206 856 90 722 q 529 990 322 990 q 632 985 581 990 q 725 979 683 979 q 849 1010 815 979 q 888 1129 883 1042 q 924 1175 890 1175 q 958 1122 958 1175 q 901 974 958 1028 q 743 921 844 921 l 735 939 q 958 490 958 821 q 842 124 958 258 q 524 -11 725 -11 m 524 58 q 785 171 692 58 q 879 490 879 283 q 786 809 879 697 q 524 921 693 921 q 263 808 356 921 q 169 490 169 696 q 263 172 169 285 q 524 58 356 58 m 507 1061 l 339 1197 q 315 1247 308 1222 q 346 1278 321 1271 q 394 1257 371 1285 l 539 1094 q 540 1062 554 1076 q 507 1061 525 1047 z "},"Ở":{"ha":1049,"x_min":90,"x_max":958,"o":"m 524 -11 q 207 124 324 -11 q 90 489 90 258 q 206 856 90 722 q 529 990 322 990 q 632 985 581 990 q 725 979 683 979 q 849 1010 815 979 q 888 1129 883 1042 q 924 1175 890 1175 q 958 1122 958 1175 q 901 974 958 1028 q 743 921 844 921 l 735 939 q 958 490 958 821 q 842 124 958 258 q 524 -11 725 -11 m 524 58 q 785 171 692 58 q 879 490 879 283 q 786 809 879 697 q 524 921 693 921 q 263 808 356 921 q 169 490 169 696 q 263 172 169 285 q 524 58 356 58 m 557 1079 q 524 1056 554 1054 q 494 1089 494 1057 q 517 1135 494 1119 q 564 1160 540 1150 q 588 1189 588 1171 q 526 1217 588 1217 q 492 1214 507 1217 q 454 1206 476 1211 q 415 1223 422 1196 q 436 1261 408 1250 q 528 1278 478 1278 q 626 1253 592 1278 q 661 1189 661 1228 q 636 1138 661 1153 q 585 1112 611 1122 q 557 1079 560 1101 z "},"Ỡ":{"ha":1049,"x_min":90,"x_max":958,"o":"m 524 -11 q 207 124 324 -11 q 90 489 90 258 q 206 856 90 722 q 529 990 322 990 q 632 985 581 990 q 725 979 683 979 q 849 1010 815 979 q 888 1129 883 1042 q 924 1175 890 1175 q 958 1122 958 1175 q 901 974 958 1028 q 743 921 844 921 l 735 939 q 958 490 958 821 q 842 124 958 258 q 524 -11 725 -11 m 524 58 q 785 171 692 58 q 879 490 879 283 q 786 809 879 697 q 524 921 693 921 q 263 808 356 921 q 169 490 169 696 q 263 172 169 285 q 524 58 356 58 m 619 1103 q 517 1135 569 1103 q 428 1167 464 1167 q 367 1136 379 1167 q 336 1106 356 1106 q 311 1133 311 1106 q 342 1199 311 1164 q 428 1235 372 1235 q 531 1203 478 1235 q 619 1171 583 1171 q 680 1201 668 1171 q 711 1232 692 1232 q 736 1204 736 1232 q 706 1138 736 1172 q 619 1103 675 1103 z "},"Ő":{"ha":1049,"x_min":90,"x_max":958,"o":"m 524 -11 q 207 124 324 -11 q 90 489 90 258 q 206 856 90 722 q 524 990 322 990 q 842 856 725 990 q 958 490 958 722 q 842 124 958 258 q 524 -11 725 -11 m 524 58 q 785 171 692 58 q 879 490 879 283 q 786 809 879 697 q 524 921 693 921 q 263 808 356 921 q 169 490 169 696 q 263 172 169 285 q 524 58 356 58 m 619 1065 q 592 1058 607 1049 q 586 1085 576 1067 l 669 1247 q 707 1278 685 1279 q 739 1258 729 1278 q 728 1210 749 1238 l 619 1065 m 463 1065 q 435 1058 450 1049 q 429 1085 419 1067 l 513 1247 q 551 1278 529 1279 q 582 1258 572 1278 q 571 1210 592 1238 l 463 1065 z "},"Ȏ":{"ha":1049,"x_min":90,"x_max":958,"o":"m 524 -11 q 207 124 324 -11 q 90 489 90 258 q 206 856 90 722 q 524 990 322 990 q 842 856 725 990 q 958 490 958 722 q 842 124 958 258 q 524 -11 725 -11 m 524 58 q 785 171 692 58 q 879 490 879 283 q 786 809 879 697 q 524 921 693 921 q 263 808 356 921 q 169 490 169 696 q 263 172 169 285 q 524 58 356 58 m 381 1104 q 331 1083 361 1071 q 317 1131 300 1094 q 402 1224 347 1194 q 524 1254 457 1254 q 644 1224 590 1254 q 731 1131 699 1194 q 717 1083 749 1094 q 667 1104 686 1071 q 524 1189 617 1189 q 381 1104 431 1189 z "},"Ō":{"ha":1049,"x_min":90,"x_max":958,"o":"m 524 -11 q 207 124 324 -11 q 90 489 90 258 q 206 856 90 722 q 524 990 322 990 q 842 856 725 990 q 958 490 958 722 q 842 124 958 258 q 524 -11 725 -11 m 524 58 q 785 171 692 58 q 879 490 879 283 q 786 809 879 697 q 524 921 693 921 q 263 808 356 921 q 169 490 169 696 q 263 172 169 285 q 524 58 356 58 m 356 1135 q 313 1168 313 1135 q 356 1201 313 1201 l 692 1201 q 735 1168 735 1201 q 692 1135 735 1135 l 356 1135 z "},"Ṓ":{"ha":1049,"x_min":90,"x_max":958,"o":"m 524 -11 q 207 124 324 -11 q 90 489 90 258 q 206 856 90 722 q 524 990 322 990 q 842 856 725 990 q 958 490 958 722 q 842 124 958 258 q 524 -11 725 -11 m 524 58 q 785 171 692 58 q 879 490 879 283 q 786 809 879 697 q 524 921 693 921 q 263 808 356 921 q 169 490 169 696 q 263 172 169 285 q 524 58 356 58 m 356 1135 q 313 1168 313 1135 q 356 1201 313 1201 l 692 1201 q 735 1168 735 1201 q 692 1135 735 1135 l 356 1135 m 540 1283 q 508 1284 522 1269 q 508 1317 493 1299 l 653 1479 q 690 1501 671 1500 q 722 1489 710 1501 q 733 1457 735 1476 q 708 1419 732 1438 l 540 1283 z "},"Ṑ":{"ha":1049,"x_min":90,"x_max":958,"o":"m 524 -11 q 207 124 324 -11 q 90 489 90 258 q 206 856 90 722 q 524 990 322 990 q 842 856 725 990 q 958 490 958 722 q 842 124 958 258 q 524 -11 725 -11 m 524 58 q 785 171 692 58 q 879 490 879 283 q 786 809 879 697 q 524 921 693 921 q 263 808 356 921 q 169 490 169 696 q 263 172 169 285 q 524 58 356 58 m 356 1135 q 313 1168 313 1135 q 356 1201 313 1201 l 692 1201 q 735 1168 735 1201 q 692 1135 735 1135 l 356 1135 m 507 1283 l 339 1419 q 315 1469 308 1444 q 346 1500 321 1493 q 394 1479 371 1507 l 539 1317 q 540 1284 554 1299 q 507 1283 525 1269 z "},"Ǫ":{"ha":1049,"x_min":90,"x_max":958,"o":"m 629 -265 q 516 -226 560 -265 q 472 -122 472 -186 q 550 15 472 -33 l 561 -10 q 219 110 347 -25 q 90 489 90 246 q 206 856 90 722 q 524 990 322 990 q 842 856 725 990 q 958 490 958 722 q 878 172 958 297 q 653 6 797 46 q 542 -114 542 -25 q 636 -206 542 -206 q 703 -187 667 -206 q 742 -199 732 -172 q 725 -242 753 -225 q 629 -265 681 -265 m 524 58 q 785 171 692 58 q 879 490 879 283 q 786 809 879 697 q 524 921 693 921 q 263 808 356 921 q 169 490 169 696 q 263 172 169 285 q 524 58 356 58 z "},"Ø":{"ha":1049,"x_min":90,"x_max":958,"o":"m 524 -11 q 207 124 324 -11 q 90 489 90 258 q 206 856 90 722 q 524 990 322 990 q 842 856 725 990 q 958 490 958 722 q 842 124 958 258 q 524 -11 725 -11 m 260 -28 q 231 -47 249 -47 q 202 -31 213 -46 q 204 4 192 -17 l 790 1008 q 819 1026 801 1028 q 847 1009 836 1024 q 846 976 857 994 l 260 -28 m 524 58 q 785 171 692 58 q 879 490 879 283 q 786 809 879 697 q 524 921 693 921 q 263 808 356 921 q 169 490 169 696 q 263 172 169 285 q 524 58 356 58 z "},"Ǿ":{"ha":1049,"x_min":90,"x_max":958,"o":"m 524 -11 q 207 124 324 -11 q 90 489 90 258 q 206 856 90 722 q 524 990 322 990 q 842 856 725 990 q 958 490 958 722 q 842 124 958 258 q 524 -11 725 -11 m 260 -28 q 231 -47 249 -47 q 202 -31 213 -46 q 204 4 192 -17 l 790 1008 q 819 1026 801 1028 q 847 1009 836 1024 q 846 976 857 994 l 260 -28 m 524 58 q 785 171 692 58 q 879 490 879 283 q 786 809 879 697 q 524 921 693 921 q 263 808 356 921 q 169 490 169 696 q 263 172 169 285 q 524 58 356 58 m 540 1061 q 508 1062 522 1047 q 508 1094 493 1076 l 653 1257 q 690 1278 671 1278 q 722 1267 710 1279 q 733 1235 735 1254 q 708 1197 732 1215 l 540 1061 z "},"Õ":{"ha":1049,"x_min":90,"x_max":958,"o":"m 524 -11 q 207 124 324 -11 q 90 489 90 258 q 206 856 90 722 q 524 990 322 990 q 842 856 725 990 q 958 490 958 722 q 842 124 958 258 q 524 -11 725 -11 m 524 58 q 785 171 692 58 q 879 490 879 283 q 786 809 879 697 q 524 921 693 921 q 263 808 356 921 q 169 490 169 696 q 263 172 169 285 q 524 58 356 58 m 619 1103 q 517 1135 569 1103 q 428 1167 464 1167 q 367 1136 379 1167 q 336 1106 356 1106 q 311 1133 311 1106 q 342 1199 311 1164 q 428 1235 372 1235 q 531 1203 478 1235 q 619 1171 583 1171 q 680 1201 668 1171 q 711 1232 692 1232 q 736 1204 736 1232 q 706 1138 736 1172 q 619 1103 675 1103 z "},"Ṍ":{"ha":1049,"x_min":90,"x_max":958,"o":"m 524 -11 q 207 124 324 -11 q 90 489 90 258 q 206 856 90 722 q 524 990 322 990 q 842 856 725 990 q 958 490 958 722 q 842 124 958 258 q 524 -11 725 -11 m 524 58 q 785 171 692 58 q 879 490 879 283 q 786 809 879 697 q 524 921 693 921 q 263 808 356 921 q 169 490 169 696 q 263 172 169 285 q 524 58 356 58 m 619 1103 q 517 1135 569 1103 q 428 1167 464 1167 q 367 1136 379 1167 q 336 1106 356 1106 q 311 1133 311 1106 q 342 1199 311 1164 q 428 1235 372 1235 q 531 1203 478 1235 q 619 1171 583 1171 q 680 1201 668 1171 q 711 1232 692 1232 q 736 1204 736 1232 q 706 1138 736 1172 q 619 1103 675 1103 m 540 1283 q 508 1284 522 1269 q 508 1317 493 1299 l 653 1479 q 690 1501 671 1500 q 722 1489 710 1501 q 733 1457 735 1476 q 708 1419 732 1438 l 540 1283 z "},"Ṏ":{"ha":1049,"x_min":90,"x_max":958,"o":"m 524 -11 q 207 124 324 -11 q 90 489 90 258 q 206 856 90 722 q 524 990 322 990 q 842 856 725 990 q 958 490 958 722 q 842 124 958 258 q 524 -11 725 -11 m 524 58 q 785 171 692 58 q 879 490 879 283 q 786 809 879 697 q 524 921 693 921 q 263 808 356 921 q 169 490 169 696 q 263 172 169 285 q 524 58 356 58 m 619 1103 q 517 1135 569 1103 q 428 1167 464 1167 q 367 1136 379 1167 q 336 1106 356 1106 q 311 1133 311 1106 q 342 1199 311 1164 q 428 1235 372 1235 q 531 1203 478 1235 q 619 1171 583 1171 q 680 1201 668 1171 q 711 1232 692 1232 q 736 1204 736 1232 q 706 1138 736 1172 q 619 1103 675 1103 m 638 1336 q 599 1351 615 1336 q 582 1390 582 1367 q 599 1429 582 1414 q 638 1444 615 1444 q 676 1429 660 1444 q 693 1390 693 1414 q 676 1351 693 1367 q 638 1336 660 1336 m 410 1336 q 371 1351 388 1336 q 354 1390 354 1367 q 371 1429 354 1414 q 410 1444 388 1444 q 449 1429 432 1444 q 465 1390 465 1414 q 449 1351 465 1367 q 410 1336 432 1336 z "},"Ȭ":{"ha":1049,"x_min":90,"x_max":958,"o":"m 524 -11 q 207 124 324 -11 q 90 489 90 258 q 206 856 90 722 q 524 990 322 990 q 842 856 725 990 q 958 490 958 722 q 842 124 958 258 q 524 -11 725 -11 m 524 58 q 785 171 692 58 q 879 490 879 283 q 786 809 879 697 q 524 921 693 921 q 263 808 356 921 q 169 490 169 696 q 263 172 169 285 q 524 58 356 58 m 619 1103 q 517 1135 569 1103 q 428 1167 464 1167 q 367 1136 379 1167 q 336 1106 356 1106 q 311 1133 311 1106 q 342 1199 311 1164 q 428 1235 372 1235 q 531 1203 478 1235 q 619 1171 583 1171 q 680 1201 668 1171 q 711 1232 692 1232 q 736 1204 736 1232 q 706 1138 736 1172 q 619 1103 675 1103 m 356 1357 q 313 1390 313 1357 q 356 1424 313 1424 l 692 1424 q 735 1390 735 1424 q 692 1357 735 1357 l 356 1357 z "},"Œ":{"ha":1453,"x_min":90,"x_max":1385,"o":"m 572 0 q 216 127 342 0 q 90 490 90 254 q 216 853 90 728 q 572 979 342 979 l 1350 979 q 1385 946 1385 979 q 1351 913 1385 913 l 853 913 l 853 531 l 1324 531 q 1357 497 1357 531 q 1324 464 1357 464 l 853 464 l 853 67 l 1351 67 q 1385 33 1385 67 q 1351 0 1385 0 l 572 0 m 576 67 l 779 67 l 779 913 l 576 913 q 267 801 364 913 q 169 490 169 690 q 267 179 169 292 q 576 67 364 67 z "},"P":{"ha":883,"x_min":129,"x_max":813,"o":"m 167 -7 q 129 33 129 -7 l 129 940 q 171 979 129 979 l 493 979 q 728 906 644 979 q 813 699 813 833 q 728 490 813 564 q 493 415 644 415 l 204 415 l 204 33 q 167 -7 204 -7 m 204 482 l 489 482 q 736 699 736 482 q 489 913 736 913 l 204 913 l 204 482 z "},"Þ":{"ha":883,"x_min":129,"x_max":813,"o":"m 189 239 l 189 306 l 503 306 q 736 500 736 306 q 503 690 736 690 l 189 690 l 189 757 l 507 757 q 733 690 654 757 q 813 500 813 622 q 732 308 813 376 q 507 239 651 239 l 189 239 m 167 -7 q 129 33 129 -7 l 129 946 q 167 986 129 986 q 204 946 204 986 l 204 33 q 194 3 204 14 q 167 -7 183 -7 z "},"Q":{"ha":1049,"x_min":90,"x_max":958,"o":"m 772 -226 l 693 -99 q 524 -11 640 -11 q 208 124 325 -11 q 90 489 90 258 q 206 856 90 722 q 524 990 322 990 q 842 856 725 990 q 958 490 958 722 q 872 163 958 292 q 631 0 785 33 l 592 21 q 694 -2 657 21 q 771 -89 732 -25 l 843 -207 q 844 -244 856 -229 q 810 -256 832 -258 q 772 -226 789 -253 m 524 58 q 785 171 692 58 q 879 490 879 283 q 786 809 879 697 q 524 921 693 921 q 263 808 356 921 q 169 490 169 696 q 263 172 169 285 q 524 58 356 58 z "},"R":{"ha":944,"x_min":129,"x_max":869,"o":"m 167 -7 q 129 33 129 -7 l 129 940 q 171 979 129 979 l 515 979 q 751 910 667 979 q 835 706 835 842 q 751 506 835 576 q 514 436 667 436 l 489 449 q 595 422 553 449 q 678 331 638 396 l 856 44 q 858 8 869 24 q 828 -8 847 -7 q 796 11 808 -10 l 607 314 q 522 403 567 379 q 401 428 478 428 l 204 428 l 204 33 q 167 -7 204 -7 m 204 494 l 513 494 q 758 707 758 494 q 513 913 758 913 l 204 913 l 204 494 z "},"Ŕ":{"ha":944,"x_min":129,"x_max":869,"o":"m 167 -7 q 129 33 129 -7 l 129 940 q 171 979 129 979 l 515 979 q 751 910 667 979 q 835 706 835 842 q 751 506 835 576 q 514 436 667 436 l 489 449 q 595 422 553 449 q 678 331 638 396 l 856 44 q 858 8 869 24 q 828 -8 847 -7 q 796 11 808 -10 l 607 314 q 522 403 567 379 q 401 428 478 428 l 204 428 l 204 33 q 167 -7 204 -7 m 204 494 l 513 494 q 758 707 758 494 q 513 913 758 913 l 204 913 l 204 494 m 483 1061 q 451 1062 465 1047 q 451 1094 436 1076 l 596 1257 q 633 1278 614 1278 q 665 1267 653 1279 q 676 1235 678 1254 q 651 1197 675 1215 l 483 1061 z "},"Ř":{"ha":944,"x_min":129,"x_max":869,"o":"m 167 -7 q 129 33 129 -7 l 129 940 q 171 979 129 979 l 515 979 q 751 910 667 979 q 835 706 835 842 q 751 506 835 576 q 514 436 667 436 l 489 449 q 595 422 553 449 q 678 331 638 396 l 856 44 q 858 8 869 24 q 828 -8 847 -7 q 796 11 808 -10 l 607 314 q 522 403 567 379 q 401 428 478 428 l 204 428 l 204 33 q 167 -7 204 -7 m 204 494 l 513 494 q 758 707 758 494 q 513 913 758 913 l 204 913 l 204 494 m 467 1056 q 424 1076 444 1056 l 294 1217 q 284 1254 278 1236 q 308 1278 290 1272 q 342 1265 325 1283 l 467 1121 l 592 1265 q 626 1278 608 1283 q 649 1254 643 1272 q 639 1217 656 1236 l 510 1076 q 467 1056 490 1056 z "},"Ŗ":{"ha":944,"x_min":129,"x_max":869,"o":"m 167 -7 q 129 33 129 -7 l 129 940 q 171 979 129 979 l 515 979 q 751 910 667 979 q 835 706 835 842 q 751 506 835 576 q 514 436 667 436 l 489 449 q 595 422 553 449 q 678 331 638 396 l 856 44 q 858 8 869 24 q 828 -8 847 -7 q 796 11 808 -10 l 607 314 q 522 403 567 379 q 401 428 478 428 l 204 428 l 204 33 q 167 -7 204 -7 m 204 494 l 513 494 q 758 707 758 494 q 513 913 758 913 l 204 913 l 204 494 m 471 -335 q 440 -349 456 -350 q 419 -333 425 -347 q 428 -303 414 -319 q 460 -251 450 -276 q 471 -197 471 -226 l 497 -208 l 472 -208 q 430 -194 447 -208 q 413 -151 413 -179 q 428 -112 413 -128 q 467 -97 443 -97 q 514 -116 496 -97 q 532 -179 532 -135 q 518 -258 532 -218 q 471 -335 504 -299 z "},"Ȑ":{"ha":944,"x_min":129,"x_max":869,"o":"m 167 -7 q 129 33 129 -7 l 129 940 q 171 979 129 979 l 515 979 q 751 910 667 979 q 835 706 835 842 q 751 506 835 576 q 514 436 667 436 l 489 449 q 595 422 553 449 q 678 331 638 396 l 856 44 q 858 8 869 24 q 828 -8 847 -7 q 796 11 808 -10 l 607 314 q 522 403 567 379 q 401 428 478 428 l 204 428 l 204 33 q 167 -7 204 -7 m 204 494 l 513 494 q 758 707 758 494 q 513 913 758 913 l 204 913 l 204 494 m 528 1065 l 419 1210 q 408 1258 399 1238 q 440 1278 418 1278 q 478 1247 461 1279 l 561 1085 q 556 1058 571 1067 q 528 1065 540 1049 m 371 1065 l 263 1210 q 251 1258 242 1238 q 283 1278 261 1278 q 321 1247 306 1279 l 404 1085 q 399 1058 414 1067 q 371 1065 383 1049 z "},"Ṛ":{"ha":944,"x_min":129,"x_max":869,"o":"m 167 -7 q 129 33 129 -7 l 129 940 q 171 979 129 979 l 515 979 q 751 910 667 979 q 835 706 835 842 q 751 506 835 576 q 514 436 667 436 l 489 449 q 595 422 553 449 q 678 331 638 396 l 856 44 q 858 8 869 24 q 828 -8 847 -7 q 796 11 808 -10 l 607 314 q 522 403 567 379 q 401 428 478 428 l 204 428 l 204 33 q 167 -7 204 -7 m 204 494 l 513 494 q 758 707 758 494 q 513 913 758 913 l 204 913 l 204 494 m 467 -251 q 425 -236 442 -251 q 408 -194 408 -221 q 425 -153 408 -168 q 467 -137 442 -137 q 508 -153 492 -137 q 525 -194 525 -168 q 508 -236 525 -221 q 467 -251 492 -251 z "},"Ȓ":{"ha":944,"x_min":129,"x_max":869,"o":"m 167 -7 q 129 33 129 -7 l 129 940 q 171 979 129 979 l 515 979 q 751 910 667 979 q 835 706 835 842 q 751 506 835 576 q 514 436 667 436 l 489 449 q 595 422 553 449 q 678 331 638 396 l 856 44 q 858 8 869 24 q 828 -8 847 -7 q 796 11 808 -10 l 607 314 q 522 403 567 379 q 401 428 478 428 l 204 428 l 204 33 q 167 -7 204 -7 m 204 494 l 513 494 q 758 707 758 494 q 513 913 758 913 l 204 913 l 204 494 m 324 1104 q 274 1083 304 1071 q 260 1131 243 1094 q 345 1224 290 1194 q 467 1254 400 1254 q 588 1224 533 1254 q 674 1131 642 1194 q 660 1083 692 1094 q 610 1104 629 1071 q 467 1189 560 1189 q 324 1104 374 1189 z "},"Ṟ":{"ha":944,"x_min":129,"x_max":869,"o":"m 167 -7 q 129 33 129 -7 l 129 940 q 171 979 129 979 l 515 979 q 751 910 667 979 q 835 706 835 842 q 751 506 835 576 q 514 436 667 436 l 489 449 q 595 422 553 449 q 678 331 638 396 l 856 44 q 858 8 869 24 q 828 -8 847 -7 q 796 11 808 -10 l 607 314 q 522 403 567 379 q 401 428 478 428 l 204 428 l 204 33 q 167 -7 204 -7 m 204 494 l 513 494 q 758 707 758 494 q 513 913 758 913 l 204 913 l 204 494 m 299 -228 q 256 -194 256 -228 q 299 -161 256 -161 l 635 -161 q 678 -194 678 -161 q 635 -228 678 -228 l 299 -228 z "},"S":{"ha":839,"x_min":64,"x_max":772,"o":"m 426 -11 q 230 22 325 -11 q 79 111 135 56 q 64 149 64 126 q 71 173 64 164 q 89 182 78 182 q 118 169 101 182 q 426 58 251 58 q 696 258 696 58 q 617 382 696 347 q 436 440 539 417 q 272 486 353 460 q 139 565 192 513 q 86 715 86 617 q 181 915 86 839 q 431 990 276 990 q 751 868 636 990 q 768 831 768 850 q 760 807 768 817 q 742 797 753 797 q 713 810 726 797 q 574 897 636 874 q 431 921 513 921 q 233 867 303 921 q 163 715 163 814 q 234 583 163 622 q 401 521 306 544 q 572 476 486 500 q 715 403 658 453 q 772 257 772 354 q 676 63 772 138 q 426 -11 581 -11 z "},"Ś":{"ha":839,"x_min":64,"x_max":772,"o":"m 426 -11 q 230 22 325 -11 q 79 111 135 56 q 64 149 64 126 q 71 173 64 164 q 89 182 78 182 q 118 169 101 182 q 426 58 251 58 q 696 258 696 58 q 617 382 696 347 q 436 440 539 417 q 272 486 353 460 q 139 565 192 513 q 86 715 86 617 q 181 915 86 839 q 431 990 276 990 q 751 868 636 990 q 768 831 768 850 q 760 807 768 817 q 742 797 753 797 q 713 810 726 797 q 574 897 636 874 q 431 921 513 921 q 233 867 303 921 q 163 715 163 814 q 234 583 163 622 q 401 521 306 544 q 572 476 486 500 q 715 403 658 453 q 772 257 772 354 q 676 63 772 138 q 426 -11 581 -11 m 436 1061 q 403 1062 418 1047 q 404 1094 389 1076 l 549 1257 q 586 1278 567 1278 q 618 1267 606 1279 q 629 1235 631 1254 q 604 1197 628 1215 l 436 1061 z "},"Ṥ":{"ha":839,"x_min":64,"x_max":772,"o":"m 426 -11 q 230 22 325 -11 q 79 111 135 56 q 64 149 64 126 q 71 173 64 164 q 89 182 78 182 q 118 169 101 182 q 426 58 251 58 q 696 258 696 58 q 617 382 696 347 q 436 440 539 417 q 272 486 353 460 q 139 565 192 513 q 86 715 86 617 q 181 915 86 839 q 431 990 276 990 q 751 868 636 990 q 768 831 768 850 q 760 807 768 817 q 742 797 753 797 q 713 810 726 797 q 574 897 636 874 q 431 921 513 921 q 233 867 303 921 q 163 715 163 814 q 234 583 163 622 q 401 521 306 544 q 572 476 486 500 q 715 403 658 453 q 772 257 772 354 q 676 63 772 138 q 426 -11 581 -11 m 436 1061 q 403 1062 418 1047 q 404 1094 389 1076 l 549 1257 q 586 1278 567 1278 q 618 1267 606 1279 q 629 1235 631 1254 q 604 1197 628 1215 l 436 1061 m 268 1164 q 226 1179 243 1164 q 210 1221 210 1194 q 268 1278 210 1278 q 310 1263 293 1278 q 326 1221 326 1247 q 310 1179 326 1194 q 268 1164 293 1164 z "},"Š":{"ha":839,"x_min":64,"x_max":772,"o":"m 426 -11 q 230 22 325 -11 q 79 111 135 56 q 64 149 64 126 q 71 173 64 164 q 89 182 78 182 q 118 169 101 182 q 426 58 251 58 q 696 258 696 58 q 617 382 696 347 q 436 440 539 417 q 272 486 353 460 q 139 565 192 513 q 86 715 86 617 q 181 915 86 839 q 431 990 276 990 q 751 868 636 990 q 768 831 768 850 q 760 807 768 817 q 742 797 753 797 q 713 810 726 797 q 574 897 636 874 q 431 921 513 921 q 233 867 303 921 q 163 715 163 814 q 234 583 163 622 q 401 521 306 544 q 572 476 486 500 q 715 403 658 453 q 772 257 772 354 q 676 63 772 138 q 426 -11 581 -11 m 419 1056 q 376 1076 397 1056 l 247 1217 q 237 1254 231 1236 q 260 1278 243 1272 q 294 1265 278 1283 l 419 1121 l 544 1265 q 578 1278 561 1283 q 602 1254 596 1272 q 592 1217 608 1236 l 463 1076 q 419 1056 443 1056 z "},"Ṧ":{"ha":839,"x_min":64,"x_max":772,"o":"m 426 -11 q 230 22 325 -11 q 79 111 135 56 q 64 149 64 126 q 71 173 64 164 q 89 182 78 182 q 118 169 101 182 q 426 58 251 58 q 696 258 696 58 q 617 382 696 347 q 436 440 539 417 q 272 486 353 460 q 139 565 192 513 q 86 715 86 617 q 181 915 86 839 q 431 990 276 990 q 751 868 636 990 q 768 831 768 850 q 760 807 768 817 q 742 797 753 797 q 713 810 726 797 q 574 897 636 874 q 431 921 513 921 q 233 867 303 921 q 163 715 163 814 q 234 583 163 622 q 401 521 306 544 q 572 476 486 500 q 715 403 658 453 q 772 257 772 354 q 676 63 772 138 q 426 -11 581 -11 m 419 1056 q 376 1076 397 1056 l 247 1217 q 237 1254 231 1236 q 260 1278 243 1272 q 294 1265 278 1283 l 419 1121 l 544 1265 q 578 1278 561 1283 q 602 1254 596 1272 q 592 1217 608 1236 l 463 1076 q 419 1056 443 1056 m 419 1333 q 378 1349 394 1333 q 361 1390 361 1364 q 419 1447 361 1447 q 461 1432 444 1447 q 478 1390 478 1417 q 461 1349 478 1364 q 419 1333 444 1333 z "},"Ş":{"ha":839,"x_min":64,"x_max":772,"o":"m 426 -11 q 230 22 325 -11 q 79 111 135 56 q 64 149 64 126 q 71 173 64 164 q 89 182 78 182 q 118 169 101 182 q 426 58 251 58 q 696 258 696 58 q 617 382 696 347 q 436 440 539 417 q 272 486 353 460 q 139 565 192 513 q 86 715 86 617 q 181 915 86 839 q 431 990 276 990 q 751 868 636 990 q 768 831 768 850 q 760 807 768 817 q 742 797 753 797 q 713 810 726 797 q 574 897 636 874 q 431 921 513 921 q 233 867 303 921 q 163 715 163 814 q 234 583 163 622 q 401 521 306 544 q 572 476 486 500 q 715 403 658 453 q 772 257 772 354 q 676 63 772 138 q 426 -11 581 -11 m 426 -265 q 379 -261 404 -265 q 333 -249 354 -257 q 313 -212 306 -237 q 353 -196 319 -186 q 391 -205 375 -203 q 431 -207 407 -207 q 515 -153 515 -207 q 469 -111 515 -111 q 428 -119 447 -111 q 397 -126 408 -126 q 371 -100 368 -126 l 385 28 l 450 28 l 439 -71 l 422 -72 q 447 -61 432 -65 q 479 -57 463 -57 q 549 -79 515 -57 q 582 -153 582 -101 q 542 -233 582 -200 q 426 -265 501 -265 z "},"Ŝ":{"ha":839,"x_min":64,"x_max":772,"o":"m 426 -11 q 230 22 325 -11 q 79 111 135 56 q 64 149 64 126 q 71 173 64 164 q 89 182 78 182 q 118 169 101 182 q 426 58 251 58 q 696 258 696 58 q 617 382 696 347 q 436 440 539 417 q 272 486 353 460 q 139 565 192 513 q 86 715 86 617 q 181 915 86 839 q 431 990 276 990 q 751 868 636 990 q 768 831 768 850 q 760 807 768 817 q 742 797 753 797 q 713 810 726 797 q 574 897 636 874 q 431 921 513 921 q 233 867 303 921 q 163 715 163 814 q 234 583 163 622 q 401 521 306 544 q 572 476 486 500 q 715 403 658 453 q 772 257 772 354 q 676 63 772 138 q 426 -11 581 -11 m 294 1068 q 260 1056 278 1050 q 237 1079 243 1061 q 247 1117 231 1097 l 376 1257 q 419 1278 396 1278 q 463 1257 442 1278 l 592 1117 q 602 1079 608 1097 q 578 1056 596 1061 q 544 1068 561 1050 l 419 1213 l 294 1068 z "},"Ș":{"ha":839,"x_min":64,"x_max":772,"o":"m 426 -11 q 230 22 325 -11 q 79 111 135 56 q 64 149 64 126 q 71 173 64 164 q 89 182 78 182 q 118 169 101 182 q 426 58 251 58 q 696 258 696 58 q 617 382 696 347 q 436 440 539 417 q 272 486 353 460 q 139 565 192 513 q 86 715 86 617 q 181 915 86 839 q 431 990 276 990 q 751 868 636 990 q 768 831 768 850 q 760 807 768 817 q 742 797 753 797 q 713 810 726 797 q 574 897 636 874 q 431 921 513 921 q 233 867 303 921 q 163 715 163 814 q 234 583 163 622 q 401 521 306 544 q 572 476 486 500 q 715 403 658 453 q 772 257 772 354 q 676 63 772 138 q 426 -11 581 -11 m 431 -335 q 400 -349 415 -350 q 379 -333 385 -347 q 388 -303 374 -319 q 420 -251 410 -276 q 431 -197 431 -226 l 457 -208 l 432 -208 q 390 -194 407 -208 q 372 -151 372 -179 q 388 -112 372 -128 q 426 -97 403 -97 q 474 -116 456 -97 q 492 -179 492 -135 q 478 -258 492 -218 q 431 -335 464 -299 z "},"Ṡ":{"ha":839,"x_min":64,"x_max":772,"o":"m 426 -11 q 230 22 325 -11 q 79 111 135 56 q 64 149 64 126 q 71 173 64 164 q 89 182 78 182 q 118 169 101 182 q 426 58 251 58 q 696 258 696 58 q 617 382 696 347 q 436 440 539 417 q 272 486 353 460 q 139 565 192 513 q 86 715 86 617 q 181 915 86 839 q 431 990 276 990 q 751 868 636 990 q 768 831 768 850 q 760 807 768 817 q 742 797 753 797 q 713 810 726 797 q 574 897 636 874 q 431 921 513 921 q 233 867 303 921 q 163 715 163 814 q 234 583 163 622 q 401 521 306 544 q 572 476 486 500 q 715 403 658 453 q 772 257 772 354 q 676 63 772 138 q 426 -11 581 -11 m 419 1111 q 378 1126 394 1111 q 361 1168 361 1142 q 419 1225 361 1225 q 461 1210 444 1225 q 478 1168 478 1194 q 461 1126 478 1142 q 419 1111 444 1111 z "},"Ṣ":{"ha":839,"x_min":64,"x_max":772,"o":"m 426 -11 q 230 22 325 -11 q 79 111 135 56 q 64 149 64 126 q 71 173 64 164 q 89 182 78 182 q 118 169 101 182 q 426 58 251 58 q 696 258 696 58 q 617 382 696 347 q 436 440 539 417 q 272 486 353 460 q 139 565 192 513 q 86 715 86 617 q 181 915 86 839 q 431 990 276 990 q 751 868 636 990 q 768 831 768 850 q 760 807 768 817 q 742 797 753 797 q 713 810 726 797 q 574 897 636 874 q 431 921 513 921 q 233 867 303 921 q 163 715 163 814 q 234 583 163 622 q 401 521 306 544 q 572 476 486 500 q 715 403 658 453 q 772 257 772 354 q 676 63 772 138 q 426 -11 581 -11 m 426 -251 q 385 -236 401 -251 q 368 -194 368 -221 q 385 -153 368 -168 q 426 -137 401 -137 q 468 -153 451 -137 q 485 -194 485 -168 q 468 -236 485 -221 q 426 -251 451 -251 z "},"Ṩ":{"ha":839,"x_min":64,"x_max":772,"o":"m 426 -11 q 230 22 325 -11 q 79 111 135 56 q 64 149 64 126 q 71 173 64 164 q 89 182 78 182 q 118 169 101 182 q 426 58 251 58 q 696 258 696 58 q 617 382 696 347 q 436 440 539 417 q 272 486 353 460 q 139 565 192 513 q 86 715 86 617 q 181 915 86 839 q 431 990 276 990 q 751 868 636 990 q 768 831 768 850 q 760 807 768 817 q 742 797 753 797 q 713 810 726 797 q 574 897 636 874 q 431 921 513 921 q 233 867 303 921 q 163 715 163 814 q 234 583 163 622 q 401 521 306 544 q 572 476 486 500 q 715 403 658 453 q 772 257 772 354 q 676 63 772 138 q 426 -11 581 -11 m 426 -251 q 385 -236 401 -251 q 368 -194 368 -221 q 385 -153 368 -168 q 426 -137 401 -137 q 468 -153 451 -137 q 485 -194 485 -168 q 468 -236 485 -221 q 426 -251 451 -251 m 419 1111 q 378 1126 394 1111 q 361 1168 361 1142 q 419 1225 361 1225 q 461 1210 444 1225 q 478 1168 478 1194 q 461 1126 478 1142 q 419 1111 444 1111 z "},"ẞ":{"ha":944,"x_min":129,"x_max":851,"o":"m 167 -8 q 129 32 129 -8 l 129 642 q 217 902 129 815 q 481 989 304 989 q 705 919 622 989 q 788 731 788 850 q 741 581 788 642 q 613 499 694 519 l 625 514 q 792 433 733 497 q 851 268 851 369 q 769 68 851 143 q 553 -7 688 -7 q 438 8 493 -7 q 343 53 383 22 q 296 113 296 88 q 324 143 296 143 q 367 121 335 143 q 457 74 414 88 q 549 60 500 60 q 715 115 656 60 q 775 268 775 169 q 711 413 775 364 q 525 463 647 463 l 367 463 q 333 480 342 463 q 333 515 324 497 q 367 532 342 532 l 476 532 q 649 584 588 532 q 711 731 711 636 q 650 869 711 819 q 481 919 589 919 q 204 632 204 919 l 204 32 q 194 3 204 14 q 167 -8 183 -8 z "},"Ə":{"ha":1017,"x_min":90,"x_max":926,"o":"m 508 -11 q 203 122 317 -11 q 90 479 90 254 q 143 532 90 532 l 892 532 l 892 463 l 147 463 l 168 490 q 258 172 168 286 q 508 58 347 58 q 759 172 669 58 q 849 490 849 285 q 752 810 849 697 q 481 922 656 922 q 331 899 394 922 q 182 810 267 875 q 165 799 172 801 q 153 797 158 797 q 135 807 142 797 q 128 831 128 817 q 144 868 128 853 q 296 959 210 928 q 479 990 382 990 q 807 857 688 990 q 926 490 926 724 q 814 124 926 258 q 508 -11 701 -11 z "},"T":{"ha":817,"x_min":10,"x_max":807,"o":"m 408 -7 q 381 4 390 -7 q 371 33 371 15 l 371 913 l 43 913 q 10 946 10 913 q 43 979 10 979 l 772 979 q 807 946 807 979 q 772 913 807 913 l 446 913 l 446 33 q 436 4 446 15 q 408 -7 426 -7 z "},"Ŧ":{"ha":817,"x_min":10,"x_max":807,"o":"m 408 -7 q 381 4 390 -7 q 371 33 371 15 l 371 913 l 43 913 q 10 946 10 913 q 43 979 10 979 l 772 979 q 807 946 807 979 q 772 913 807 913 l 446 913 l 446 33 q 436 4 446 15 q 408 -7 426 -7 m 197 465 q 163 497 163 465 q 197 529 163 529 l 622 529 q 654 497 654 529 q 622 465 654 465 l 197 465 z "},"Ť":{"ha":817,"x_min":10,"x_max":807,"o":"m 408 -7 q 381 4 390 -7 q 371 33 371 15 l 371 913 l 43 913 q 10 946 10 913 q 43 979 10 979 l 772 979 q 807 946 807 979 q 772 913 807 913 l 446 913 l 446 33 q 436 4 446 15 q 408 -7 426 -7 m 408 1056 q 365 1076 386 1056 l 236 1217 q 226 1254 219 1236 q 249 1278 232 1272 q 283 1265 267 1283 l 408 1121 l 533 1265 q 567 1278 550 1283 q 591 1254 585 1272 q 581 1217 597 1236 l 451 1076 q 408 1056 432 1056 z "},"Ţ":{"ha":817,"x_min":10,"x_max":807,"o":"m 408 -7 q 381 4 390 -7 q 371 33 371 15 l 371 913 l 43 913 q 10 946 10 913 q 43 979 10 979 l 772 979 q 807 946 807 979 q 772 913 807 913 l 446 913 l 446 33 q 436 4 446 15 q 408 -7 426 -7 m 417 -265 q 369 -261 394 -265 q 324 -249 344 -257 q 303 -212 296 -237 q 343 -196 310 -186 q 381 -205 365 -203 q 421 -207 397 -207 q 506 -153 506 -207 q 460 -111 506 -111 q 418 -119 438 -111 q 388 -126 399 -126 q 361 -100 358 -126 l 375 28 l 440 28 l 429 -71 l 413 -72 q 438 -61 422 -65 q 469 -57 453 -57 q 539 -79 506 -57 q 572 -153 572 -101 q 532 -233 572 -200 q 417 -265 492 -265 z "},"Ț":{"ha":817,"x_min":10,"x_max":807,"o":"m 408 -7 q 381 4 390 -7 q 371 33 371 15 l 371 913 l 43 913 q 10 946 10 913 q 43 979 10 979 l 772 979 q 807 946 807 979 q 772 913 807 913 l 446 913 l 446 33 q 436 4 446 15 q 408 -7 426 -7 m 413 -335 q 382 -349 397 -350 q 361 -333 367 -347 q 369 -303 356 -319 q 402 -251 392 -276 q 413 -197 413 -226 l 439 -208 l 414 -208 q 372 -194 389 -208 q 354 -151 354 -179 q 369 -112 354 -128 q 408 -97 385 -97 q 456 -116 438 -97 q 474 -179 474 -135 q 460 -258 474 -218 q 413 -335 446 -299 z "},"Ṭ":{"ha":817,"x_min":10,"x_max":807,"o":"m 408 -7 q 381 4 390 -7 q 371 33 371 15 l 371 913 l 43 913 q 10 946 10 913 q 43 979 10 979 l 772 979 q 807 946 807 979 q 772 913 807 913 l 446 913 l 446 33 q 436 4 446 15 q 408 -7 426 -7 m 408 -251 q 367 -236 383 -251 q 350 -194 350 -221 q 367 -153 350 -168 q 408 -137 383 -137 q 450 -153 433 -137 q 467 -194 467 -168 q 450 -236 467 -221 q 408 -251 433 -251 z "},"Ṯ":{"ha":817,"x_min":10,"x_max":807,"o":"m 408 -7 q 381 4 390 -7 q 371 33 371 15 l 371 913 l 43 913 q 10 946 10 913 q 43 979 10 979 l 772 979 q 807 946 807 979 q 772 913 807 913 l 446 913 l 446 33 q 436 4 446 15 q 408 -7 426 -7 m 240 -228 q 197 -194 197 -228 q 240 -161 197 -161 l 576 -161 q 619 -194 619 -161 q 576 -228 619 -228 l 240 -228 z "},"U":{"ha":997,"x_min":122,"x_max":875,"o":"m 499 -11 q 122 375 122 -11 l 122 946 q 160 986 122 986 q 197 946 197 986 l 197 365 q 499 58 197 58 q 800 365 800 58 l 800 946 q 838 986 800 986 q 875 946 875 986 l 875 375 q 779 87 875 185 q 499 -11 683 -11 z "},"Ú":{"ha":997,"x_min":122,"x_max":875,"o":"m 499 -11 q 122 375 122 -11 l 122 946 q 160 986 122 986 q 197 946 197 986 l 197 365 q 499 58 197 58 q 800 365 800 58 l 800 946 q 838 986 800 986 q 875 946 875 986 l 875 375 q 779 87 875 185 q 499 -11 683 -11 m 515 1061 q 483 1062 497 1047 q 483 1094 468 1076 l 628 1257 q 665 1278 646 1278 q 697 1267 685 1279 q 708 1235 710 1254 q 683 1197 707 1215 l 515 1061 z "},"Ŭ":{"ha":997,"x_min":122,"x_max":875,"o":"m 499 -11 q 122 375 122 -11 l 122 946 q 160 986 122 986 q 197 946 197 986 l 197 365 q 499 58 197 58 q 800 365 800 58 l 800 946 q 838 986 800 986 q 875 946 875 986 l 875 375 q 779 87 875 185 q 499 -11 683 -11 m 499 1081 q 378 1110 432 1081 q 292 1204 324 1140 q 305 1251 274 1239 q 356 1231 336 1264 q 499 1146 406 1146 q 642 1231 592 1146 q 692 1251 661 1264 q 706 1204 722 1239 q 620 1110 675 1140 q 499 1081 565 1081 z "},"Û":{"ha":997,"x_min":122,"x_max":875,"o":"m 499 -11 q 122 375 122 -11 l 122 946 q 160 986 122 986 q 197 946 197 986 l 197 365 q 499 58 197 58 q 800 365 800 58 l 800 946 q 838 986 800 986 q 875 946 875 986 l 875 375 q 779 87 875 185 q 499 -11 683 -11 m 374 1068 q 340 1056 357 1050 q 316 1079 322 1061 q 326 1117 310 1097 l 456 1257 q 499 1278 475 1278 q 542 1257 521 1278 l 671 1117 q 681 1079 688 1097 q 658 1056 675 1061 q 624 1068 640 1050 l 499 1213 l 374 1068 z "},"Ȕ":{"ha":997,"x_min":122,"x_max":875,"o":"m 499 -11 q 122 375 122 -11 l 122 946 q 160 986 122 986 q 197 946 197 986 l 197 365 q 499 58 197 58 q 800 365 800 58 l 800 946 q 838 986 800 986 q 875 946 875 986 l 875 375 q 779 87 875 185 q 499 -11 683 -11 m 560 1065 l 451 1210 q 440 1258 431 1238 q 472 1278 450 1278 q 510 1247 493 1279 l 593 1085 q 588 1058 603 1067 q 560 1065 572 1049 m 403 1065 l 294 1210 q 283 1258 274 1238 q 315 1278 293 1278 q 353 1247 338 1279 l 436 1085 q 431 1058 446 1067 q 403 1065 415 1049 z "},"Ü":{"ha":997,"x_min":122,"x_max":875,"o":"m 499 -11 q 122 375 122 -11 l 122 946 q 160 986 122 986 q 197 946 197 986 l 197 365 q 499 58 197 58 q 800 365 800 58 l 800 946 q 838 986 800 986 q 875 946 875 986 l 875 375 q 779 87 875 185 q 499 -11 683 -11 m 613 1114 q 574 1129 590 1114 q 557 1168 557 1144 q 574 1207 557 1192 q 613 1222 590 1222 q 651 1207 635 1222 q 668 1168 668 1192 q 651 1129 668 1144 q 613 1114 635 1114 m 385 1114 q 346 1129 363 1114 q 329 1168 329 1144 q 346 1207 329 1192 q 385 1222 363 1222 q 424 1207 407 1222 q 440 1168 440 1192 q 424 1129 440 1144 q 385 1114 407 1114 z "},"Ụ":{"ha":997,"x_min":122,"x_max":875,"o":"m 499 -11 q 122 375 122 -11 l 122 946 q 160 986 122 986 q 197 946 197 986 l 197 365 q 499 58 197 58 q 800 365 800 58 l 800 946 q 838 986 800 986 q 875 946 875 986 l 875 375 q 779 87 875 185 q 499 -11 683 -11 m 499 -251 q 457 -236 474 -251 q 440 -194 440 -221 q 457 -153 440 -168 q 499 -137 474 -137 q 540 -153 524 -137 q 557 -194 557 -168 q 540 -236 557 -221 q 499 -251 524 -251 z "},"Ù":{"ha":997,"x_min":122,"x_max":875,"o":"m 499 -11 q 122 375 122 -11 l 122 946 q 160 986 122 986 q 197 946 197 986 l 197 365 q 499 58 197 58 q 800 365 800 58 l 800 946 q 838 986 800 986 q 875 946 875 986 l 875 375 q 779 87 875 185 q 499 -11 683 -11 m 482 1061 l 314 1197 q 290 1247 283 1222 q 321 1278 296 1271 q 369 1257 346 1285 l 514 1094 q 515 1062 529 1076 q 482 1061 500 1047 z "},"Ủ":{"ha":997,"x_min":122,"x_max":875,"o":"m 499 -11 q 122 375 122 -11 l 122 946 q 160 986 122 986 q 197 946 197 986 l 197 365 q 499 58 197 58 q 800 365 800 58 l 800 946 q 838 986 800 986 q 875 946 875 986 l 875 375 q 779 87 875 185 q 499 -11 683 -11 m 532 1079 q 499 1056 529 1054 q 469 1089 469 1057 q 492 1135 469 1119 q 539 1160 515 1150 q 563 1189 563 1171 q 501 1217 563 1217 q 467 1214 482 1217 q 429 1206 451 1211 q 390 1223 397 1196 q 411 1261 383 1250 q 503 1278 453 1278 q 601 1253 567 1278 q 636 1189 636 1228 q 611 1138 636 1153 q 560 1112 586 1122 q 532 1079 535 1101 z "},"Ư":{"ha":997,"x_min":122,"x_max":1040,"o":"m 499 -11 q 122 375 122 -11 l 122 946 q 160 986 122 986 q 197 946 197 986 l 197 365 q 499 58 197 58 q 800 365 800 58 l 800 946 q 811 975 800 964 q 838 986 822 986 q 935 1017 906 986 q 969 1122 965 1047 q 1006 1160 972 1160 q 1040 1115 1040 1160 q 992 979 1040 1031 q 863 928 943 928 l 875 947 l 875 375 q 779 87 875 185 q 499 -11 683 -11 z "},"Ứ":{"ha":997,"x_min":122,"x_max":1040,"o":"m 499 -11 q 122 375 122 -11 l 122 946 q 160 986 122 986 q 197 946 197 986 l 197 365 q 499 58 197 58 q 800 365 800 58 l 800 946 q 811 975 800 964 q 838 986 822 986 q 935 1017 906 986 q 969 1122 965 1047 q 1006 1160 972 1160 q 1040 1115 1040 1160 q 992 979 1040 1031 q 863 928 943 928 l 875 947 l 875 375 q 779 87 875 185 q 499 -11 683 -11 m 515 1061 q 483 1062 497 1047 q 483 1094 468 1076 l 628 1257 q 665 1278 646 1278 q 697 1267 685 1279 q 708 1235 710 1254 q 683 1197 707 1215 l 515 1061 z "},"Ự":{"ha":997,"x_min":122,"x_max":1040,"o":"m 499 -11 q 122 375 122 -11 l 122 946 q 160 986 122 986 q 197 946 197 986 l 197 365 q 499 58 197 58 q 800 365 800 58 l 800 946 q 811 975 800 964 q 838 986 822 986 q 935 1017 906 986 q 969 1122 965 1047 q 1006 1160 972 1160 q 1040 1115 1040 1160 q 992 979 1040 1031 q 863 928 943 928 l 875 947 l 875 375 q 779 87 875 185 q 499 -11 683 -11 m 499 -251 q 457 -236 474 -251 q 440 -194 440 -221 q 457 -153 440 -168 q 499 -137 474 -137 q 540 -153 524 -137 q 557 -194 557 -168 q 540 -236 557 -221 q 499 -251 524 -251 z "},"Ừ":{"ha":997,"x_min":122,"x_max":1040,"o":"m 499 -11 q 122 375 122 -11 l 122 946 q 160 986 122 986 q 197 946 197 986 l 197 365 q 499 58 197 58 q 800 365 800 58 l 800 946 q 811 975 800 964 q 838 986 822 986 q 935 1017 906 986 q 969 1122 965 1047 q 1006 1160 972 1160 q 1040 1115 1040 1160 q 992 979 1040 1031 q 863 928 943 928 l 875 947 l 875 375 q 779 87 875 185 q 499 -11 683 -11 m 482 1061 l 314 1197 q 290 1247 283 1222 q 321 1278 296 1271 q 369 1257 346 1285 l 514 1094 q 515 1062 529 1076 q 482 1061 500 1047 z "},"Ử":{"ha":997,"x_min":122,"x_max":1040,"o":"m 499 -11 q 122 375 122 -11 l 122 946 q 160 986 122 986 q 197 946 197 986 l 197 365 q 499 58 197 58 q 800 365 800 58 l 800 946 q 811 975 800 964 q 838 986 822 986 q 935 1017 906 986 q 969 1122 965 1047 q 1006 1160 972 1160 q 1040 1115 1040 1160 q 992 979 1040 1031 q 863 928 943 928 l 875 947 l 875 375 q 779 87 875 185 q 499 -11 683 -11 m 532 1079 q 499 1056 529 1054 q 469 1089 469 1057 q 492 1135 469 1119 q 539 1160 515 1150 q 563 1189 563 1171 q 501 1217 563 1217 q 467 1214 482 1217 q 429 1206 451 1211 q 390 1223 397 1196 q 411 1261 383 1250 q 503 1278 453 1278 q 601 1253 567 1278 q 636 1189 636 1228 q 611 1138 636 1153 q 560 1112 586 1122 q 532 1079 535 1101 z "},"Ữ":{"ha":997,"x_min":122,"x_max":1040,"o":"m 499 -11 q 122 375 122 -11 l 122 946 q 160 986 122 986 q 197 946 197 986 l 197 365 q 499 58 197 58 q 800 365 800 58 l 800 946 q 811 975 800 964 q 838 986 822 986 q 935 1017 906 986 q 969 1122 965 1047 q 1006 1160 972 1160 q 1040 1115 1040 1160 q 992 979 1040 1031 q 863 928 943 928 l 875 947 l 875 375 q 779 87 875 185 q 499 -11 683 -11 m 594 1103 q 492 1135 544 1103 q 403 1167 439 1167 q 342 1136 354 1167 q 311 1106 331 1106 q 286 1133 286 1106 q 317 1199 286 1164 q 403 1235 347 1235 q 506 1203 453 1235 q 594 1171 558 1171 q 655 1201 643 1171 q 686 1232 667 1232 q 711 1204 711 1232 q 681 1138 711 1172 q 594 1103 650 1103 z "},"Ű":{"ha":997,"x_min":122,"x_max":875,"o":"m 499 -11 q 122 375 122 -11 l 122 946 q 160 986 122 986 q 197 946 197 986 l 197 365 q 499 58 197 58 q 800 365 800 58 l 800 946 q 838 986 800 986 q 875 946 875 986 l 875 375 q 779 87 875 185 q 499 -11 683 -11 m 594 1065 q 567 1058 582 1049 q 561 1085 551 1067 l 644 1247 q 682 1278 660 1279 q 714 1258 704 1278 q 703 1210 724 1238 l 594 1065 m 438 1065 q 410 1058 425 1049 q 404 1085 394 1067 l 488 1247 q 526 1278 504 1279 q 557 1258 547 1278 q 546 1210 567 1238 l 438 1065 z "},"Ȗ":{"ha":997,"x_min":122,"x_max":875,"o":"m 499 -11 q 122 375 122 -11 l 122 946 q 160 986 122 986 q 197 946 197 986 l 197 365 q 499 58 197 58 q 800 365 800 58 l 800 946 q 838 986 800 986 q 875 946 875 986 l 875 375 q 779 87 875 185 q 499 -11 683 -11 m 356 1104 q 306 1083 336 1071 q 292 1131 275 1094 q 377 1224 322 1194 q 499 1254 432 1254 q 619 1224 565 1254 q 706 1131 674 1194 q 692 1083 724 1094 q 642 1104 661 1071 q 499 1189 592 1189 q 356 1104 406 1189 z "},"Ū":{"ha":997,"x_min":122,"x_max":875,"o":"m 499 -11 q 122 375 122 -11 l 122 946 q 160 986 122 986 q 197 946 197 986 l 197 365 q 499 58 197 58 q 800 365 800 58 l 800 946 q 838 986 800 986 q 875 946 875 986 l 875 375 q 779 87 875 185 q 499 -11 683 -11 m 331 1135 q 288 1168 288 1135 q 331 1201 288 1201 l 667 1201 q 710 1168 710 1201 q 667 1135 710 1135 l 331 1135 z "},"Ṻ":{"ha":997,"x_min":122,"x_max":875,"o":"m 499 -11 q 122 375 122 -11 l 122 946 q 160 986 122 986 q 197 946 197 986 l 197 365 q 499 58 197 58 q 800 365 800 58 l 800 946 q 838 986 800 986 q 875 946 875 986 l 875 375 q 779 87 875 185 q 499 -11 683 -11 m 331 1135 q 288 1168 288 1135 q 331 1201 288 1201 l 667 1201 q 710 1168 710 1201 q 667 1135 710 1135 l 331 1135 m 613 1336 q 574 1351 590 1336 q 557 1390 557 1367 q 574 1429 557 1414 q 613 1444 590 1444 q 651 1429 635 1444 q 668 1390 668 1414 q 651 1351 668 1367 q 613 1336 635 1336 m 385 1336 q 346 1351 363 1336 q 329 1390 329 1367 q 346 1429 329 1414 q 385 1444 363 1444 q 424 1429 407 1444 q 440 1390 440 1414 q 424 1351 440 1367 q 385 1336 407 1336 z "},"Ų":{"ha":997,"x_min":122,"x_max":875,"o":"m 614 -265 q 501 -226 544 -265 q 457 -122 457 -186 q 554 15 457 -26 l 529 -11 l 499 -11 q 122 375 122 -11 l 122 946 q 160 986 122 986 q 197 946 197 986 l 197 365 q 499 58 197 58 q 800 365 800 58 l 800 946 q 838 986 800 986 q 875 946 875 986 l 875 375 q 650 10 875 81 q 526 -114 526 -29 q 621 -206 526 -206 q 688 -187 651 -206 q 727 -199 717 -172 q 710 -242 738 -225 q 614 -265 665 -265 z "},"Ů":{"ha":997,"x_min":122,"x_max":875,"o":"m 499 -11 q 122 375 122 -11 l 122 946 q 160 986 122 986 q 197 946 197 986 l 197 365 q 499 58 197 58 q 800 365 800 58 l 800 946 q 838 986 800 986 q 875 946 875 986 l 875 375 q 779 87 875 185 q 499 -11 683 -11 m 499 1056 q 403 1094 443 1056 q 363 1189 363 1133 q 403 1283 363 1244 q 499 1322 443 1322 q 594 1283 554 1322 q 635 1189 635 1244 q 594 1094 635 1133 q 499 1056 554 1056 m 499 1117 q 549 1138 529 1117 q 568 1189 568 1158 q 549 1240 568 1219 q 499 1261 529 1261 q 449 1240 468 1261 q 429 1189 429 1219 q 449 1138 429 1158 q 499 1117 468 1117 z "},"Ũ":{"ha":997,"x_min":122,"x_max":875,"o":"m 499 -11 q 122 375 122 -11 l 122 946 q 160 986 122 986 q 197 946 197 986 l 197 365 q 499 58 197 58 q 800 365 800 58 l 800 946 q 838 986 800 986 q 875 946 875 986 l 875 375 q 779 87 875 185 q 499 -11 683 -11 m 594 1103 q 492 1135 544 1103 q 403 1167 439 1167 q 342 1136 354 1167 q 311 1106 331 1106 q 286 1133 286 1106 q 317 1199 286 1164 q 403 1235 347 1235 q 506 1203 453 1235 q 594 1171 558 1171 q 655 1201 643 1171 q 686 1232 667 1232 q 711 1204 711 1232 q 681 1138 711 1172 q 594 1103 650 1103 z "},"Ṹ":{"ha":997,"x_min":122,"x_max":875,"o":"m 499 -11 q 122 375 122 -11 l 122 946 q 160 986 122 986 q 197 946 197 986 l 197 365 q 499 58 197 58 q 800 365 800 58 l 800 946 q 838 986 800 986 q 875 946 875 986 l 875 375 q 779 87 875 185 q 499 -11 683 -11 m 594 1103 q 492 1135 544 1103 q 403 1167 439 1167 q 342 1136 354 1167 q 311 1106 331 1106 q 286 1133 286 1106 q 317 1199 286 1164 q 403 1235 347 1235 q 506 1203 453 1235 q 594 1171 558 1171 q 655 1201 643 1171 q 686 1232 667 1232 q 711 1204 711 1232 q 681 1138 711 1172 q 594 1103 650 1103 m 515 1283 q 483 1284 497 1269 q 483 1317 468 1299 l 628 1479 q 665 1501 646 1500 q 697 1489 685 1501 q 708 1457 710 1476 q 683 1419 707 1438 l 515 1283 z "},"V":{"ha":939,"x_min":14,"x_max":928,"o":"m 428 21 l 22 942 q 27 976 14 963 q 60 988 40 989 q 89 967 81 988 l 489 56 l 451 56 l 851 967 q 881 988 861 988 q 914 976 900 989 q 918 942 928 963 l 511 21 q 488 -3 504 3 q 453 -3 471 -10 q 428 21 436 3 z "},"W":{"ha":1521,"x_min":50,"x_max":1472,"o":"m 382 21 l 57 942 q 64 975 50 963 q 97 987 78 988 q 125 964 117 986 l 443 50 l 403 50 l 721 953 q 744 979 728 972 q 778 979 761 986 q 801 951 794 972 l 1118 50 l 1078 50 l 1396 964 q 1423 987 1403 986 q 1458 975 1443 988 q 1464 942 1472 963 l 1139 21 q 1116 -4 1133 3 q 1082 -5 1099 -11 q 1058 21 1065 1 l 746 904 l 776 904 l 463 21 q 439 -4 456 3 q 406 -5 422 -11 q 382 21 389 1 z "},"Ẃ":{"ha":1521,"x_min":50,"x_max":1472,"o":"m 382 21 l 57 942 q 64 975 50 963 q 97 987 78 988 q 125 964 117 986 l 443 50 l 403 50 l 721 953 q 744 979 728 972 q 778 979 761 986 q 801 951 794 972 l 1118 50 l 1078 50 l 1396 964 q 1423 987 1403 986 q 1458 975 1443 988 q 1464 942 1472 963 l 1139 21 q 1116 -4 1133 3 q 1082 -5 1099 -11 q 1058 21 1065 1 l 746 904 l 776 904 l 463 21 q 439 -4 456 3 q 406 -5 422 -11 q 382 21 389 1 m 776 1061 q 744 1062 758 1047 q 744 1094 729 1076 l 889 1257 q 926 1278 907 1278 q 958 1267 946 1279 q 969 1235 971 1254 q 944 1197 968 1215 l 776 1061 z "},"Ŵ":{"ha":1521,"x_min":50,"x_max":1472,"o":"m 382 21 l 57 942 q 64 975 50 963 q 97 987 78 988 q 125 964 117 986 l 443 50 l 403 50 l 721 953 q 744 979 728 972 q 778 979 761 986 q 801 951 794 972 l 1118 50 l 1078 50 l 1396 964 q 1423 987 1403 986 q 1458 975 1443 988 q 1464 942 1472 963 l 1139 21 q 1116 -4 1133 3 q 1082 -5 1099 -11 q 1058 21 1065 1 l 746 904 l 776 904 l 463 21 q 439 -4 456 3 q 406 -5 422 -11 q 382 21 389 1 m 635 1068 q 601 1056 618 1050 q 577 1079 583 1061 q 588 1117 571 1097 l 717 1257 q 760 1278 736 1278 q 803 1257 782 1278 l 932 1117 q 942 1079 949 1097 q 919 1056 936 1061 q 885 1068 901 1050 l 760 1213 l 635 1068 z "},"Ẅ":{"ha":1521,"x_min":50,"x_max":1472,"o":"m 382 21 l 57 942 q 64 975 50 963 q 97 987 78 988 q 125 964 117 986 l 443 50 l 403 50 l 721 953 q 744 979 728 972 q 778 979 761 986 q 801 951 794 972 l 1118 50 l 1078 50 l 1396 964 q 1423 987 1403 986 q 1458 975 1443 988 q 1464 942 1472 963 l 1139 21 q 1116 -4 1133 3 q 1082 -5 1099 -11 q 1058 21 1065 1 l 746 904 l 776 904 l 463 21 q 439 -4 456 3 q 406 -5 422 -11 q 382 21 389 1 m 874 1114 q 835 1129 851 1114 q 818 1168 818 1144 q 835 1207 818 1192 q 874 1222 851 1222 q 913 1207 896 1222 q 929 1168 929 1192 q 913 1129 929 1144 q 874 1114 896 1114 m 646 1114 q 607 1129 624 1114 q 590 1168 590 1144 q 607 1207 590 1192 q 646 1222 624 1222 q 685 1207 668 1222 q 701 1168 701 1192 q 685 1129 701 1144 q 646 1114 668 1114 z "},"Ẁ":{"ha":1521,"x_min":50,"x_max":1472,"o":"m 382 21 l 57 942 q 64 975 50 963 q 97 987 78 988 q 125 964 117 986 l 443 50 l 403 50 l 721 953 q 744 979 728 972 q 778 979 761 986 q 801 951 794 972 l 1118 50 l 1078 50 l 1396 964 q 1423 987 1403 986 q 1458 975 1443 988 q 1464 942 1472 963 l 1139 21 q 1116 -4 1133 3 q 1082 -5 1099 -11 q 1058 21 1065 1 l 746 904 l 776 904 l 463 21 q 439 -4 456 3 q 406 -5 422 -11 q 382 21 389 1 m 743 1061 l 575 1197 q 551 1247 544 1222 q 582 1278 557 1271 q 631 1257 607 1285 l 775 1094 q 776 1062 790 1076 q 743 1061 761 1047 z "},"X":{"ha":882,"x_min":31,"x_max":850,"o":"m 101 10 q 67 -5 86 -10 q 40 17 49 0 q 46 53 31 33 l 397 501 l 440 557 l 761 969 q 795 985 776 989 q 823 963 814 981 q 817 926 832 944 l 485 501 l 440 446 l 101 10 m 779 10 l 440 446 l 397 501 l 65 926 q 58 963 50 944 q 85 985 67 981 q 119 969 104 989 l 440 557 l 485 501 l 835 53 q 842 17 850 33 q 814 -5 833 0 q 779 10 794 -10 z "},"Y":{"ha":815,"x_min":6,"x_max":808,"o":"m 407 -7 q 379 4 389 -7 q 369 33 369 15 l 369 514 l 388 451 l 19 926 q 14 963 6 944 q 40 985 22 981 q 72 969 57 989 l 417 524 l 400 524 l 743 969 q 776 985 758 989 q 801 963 793 981 q 794 926 808 944 l 428 451 l 444 514 l 444 33 q 435 4 444 15 q 407 -7 425 -7 z "},"Ý":{"ha":815,"x_min":6,"x_max":808,"o":"m 407 -7 q 379 4 389 -7 q 369 33 369 15 l 369 514 l 388 451 l 19 926 q 14 963 6 944 q 40 985 22 981 q 72 969 57 989 l 417 524 l 400 524 l 743 969 q 776 985 758 989 q 801 963 793 981 q 794 926 808 944 l 428 451 l 444 514 l 444 33 q 435 4 444 15 q 407 -7 425 -7 m 424 1061 q 391 1062 406 1047 q 392 1094 376 1076 l 536 1257 q 574 1278 554 1278 q 606 1267 593 1279 q 617 1235 618 1254 q 592 1197 615 1215 l 424 1061 z "},"Ŷ":{"ha":815,"x_min":6,"x_max":808,"o":"m 407 -7 q 379 4 389 -7 q 369 33 369 15 l 369 514 l 388 451 l 19 926 q 14 963 6 944 q 40 985 22 981 q 72 969 57 989 l 417 524 l 400 524 l 743 969 q 776 985 758 989 q 801 963 793 981 q 794 926 808 944 l 428 451 l 444 514 l 444 33 q 435 4 444 15 q 407 -7 425 -7 m 282 1068 q 248 1056 265 1050 q 224 1079 231 1061 q 235 1117 218 1097 l 364 1257 q 407 1278 383 1278 q 450 1257 429 1278 l 579 1117 q 590 1079 596 1097 q 566 1056 583 1061 q 532 1068 549 1050 l 407 1213 l 282 1068 z "},"Ÿ":{"ha":815,"x_min":6,"x_max":808,"o":"m 407 -7 q 379 4 389 -7 q 369 33 369 15 l 369 514 l 388 451 l 19 926 q 14 963 6 944 q 40 985 22 981 q 72 969 57 989 l 417 524 l 400 524 l 743 969 q 776 985 758 989 q 801 963 793 981 q 794 926 808 944 l 428 451 l 444 514 l 444 33 q 435 4 444 15 q 407 -7 425 -7 m 521 1114 q 482 1129 499 1114 q 465 1168 465 1144 q 482 1207 465 1192 q 521 1222 499 1222 q 560 1207 543 1222 q 576 1168 576 1192 q 560 1129 576 1144 q 521 1114 543 1114 m 293 1114 q 254 1129 271 1114 q 238 1168 238 1144 q 254 1207 238 1192 q 293 1222 271 1222 q 332 1207 315 1222 q 349 1168 349 1192 q 332 1129 349 1144 q 293 1114 315 1114 z "},"Ẏ":{"ha":815,"x_min":6,"x_max":808,"o":"m 407 -7 q 379 4 389 -7 q 369 33 369 15 l 369 514 l 388 451 l 19 926 q 14 963 6 944 q 40 985 22 981 q 72 969 57 989 l 417 524 l 400 524 l 743 969 q 776 985 758 989 q 801 963 793 981 q 794 926 808 944 l 428 451 l 444 514 l 444 33 q 435 4 444 15 q 407 -7 425 -7 m 407 1111 q 365 1126 382 1111 q 349 1168 349 1142 q 407 1225 349 1225 q 449 1210 432 1225 q 465 1168 465 1194 q 449 1126 465 1142 q 407 1111 432 1111 z "},"Ỵ":{"ha":815,"x_min":6,"x_max":808,"o":"m 407 -7 q 379 4 389 -7 q 369 33 369 15 l 369 514 l 388 451 l 19 926 q 14 963 6 944 q 40 985 22 981 q 72 969 57 989 l 417 524 l 400 524 l 743 969 q 776 985 758 989 q 801 963 793 981 q 794 926 808 944 l 428 451 l 444 514 l 444 33 q 435 4 444 15 q 407 -7 425 -7 m 407 -251 q 365 -236 382 -251 q 349 -194 349 -221 q 365 -153 349 -168 q 407 -137 382 -137 q 449 -153 432 -137 q 465 -194 465 -168 q 449 -236 465 -221 q 407 -251 432 -251 z "},"Ỳ":{"ha":815,"x_min":6,"x_max":808,"o":"m 407 -7 q 379 4 389 -7 q 369 33 369 15 l 369 514 l 388 451 l 19 926 q 14 963 6 944 q 40 985 22 981 q 72 969 57 989 l 417 524 l 400 524 l 743 969 q 776 985 758 989 q 801 963 793 981 q 794 926 808 944 l 428 451 l 444 514 l 444 33 q 435 4 444 15 q 407 -7 425 -7 m 390 1061 l 222 1197 q 198 1247 192 1222 q 229 1278 204 1271 q 278 1257 254 1285 l 422 1094 q 423 1062 438 1076 q 390 1061 408 1047 z "},"Ỷ":{"ha":815,"x_min":6,"x_max":808,"o":"m 407 -7 q 379 4 389 -7 q 369 33 369 15 l 369 514 l 388 451 l 19 926 q 14 963 6 944 q 40 985 22 981 q 72 969 57 989 l 417 524 l 400 524 l 743 969 q 776 985 758 989 q 801 963 793 981 q 794 926 808 944 l 428 451 l 444 514 l 444 33 q 435 4 444 15 q 407 -7 425 -7 m 440 1079 q 408 1056 438 1054 q 378 1089 378 1057 q 401 1135 378 1119 q 447 1160 424 1150 q 471 1189 471 1171 q 410 1217 471 1217 q 375 1214 390 1217 q 338 1206 360 1211 q 299 1223 306 1196 q 319 1261 292 1250 q 411 1278 361 1278 q 510 1253 475 1278 q 544 1189 544 1228 q 519 1138 544 1153 q 469 1112 494 1122 q 440 1079 443 1101 z "},"Ȳ":{"ha":815,"x_min":6,"x_max":808,"o":"m 407 -7 q 379 4 389 -7 q 369 33 369 15 l 369 514 l 388 451 l 19 926 q 14 963 6 944 q 40 985 22 981 q 72 969 57 989 l 417 524 l 400 524 l 743 969 q 776 985 758 989 q 801 963 793 981 q 794 926 808 944 l 428 451 l 444 514 l 444 33 q 435 4 444 15 q 407 -7 425 -7 m 239 1135 q 196 1168 196 1135 q 239 1201 196 1201 l 575 1201 q 618 1168 618 1201 q 575 1135 618 1135 l 239 1135 z "},"Ỹ":{"ha":815,"x_min":6,"x_max":808,"o":"m 407 -7 q 379 4 389 -7 q 369 33 369 15 l 369 514 l 388 451 l 19 926 q 14 963 6 944 q 40 985 22 981 q 72 969 57 989 l 417 524 l 400 524 l 743 969 q 776 985 758 989 q 801 963 793 981 q 794 926 808 944 l 428 451 l 444 514 l 444 33 q 435 4 444 15 q 407 -7 425 -7 m 503 1103 q 400 1135 453 1103 q 311 1167 347 1167 q 251 1136 263 1167 q 219 1106 239 1106 q 194 1133 194 1106 q 225 1199 194 1164 q 311 1235 256 1235 q 414 1203 361 1235 q 503 1171 467 1171 q 563 1201 551 1171 q 594 1232 575 1232 q 619 1204 619 1232 q 589 1138 619 1172 q 503 1103 558 1103 z "},"Z":{"ha":808,"x_min":49,"x_max":764,"o":"m 90 0 q 56 19 64 0 q 64 63 49 39 l 693 969 l 690 913 l 88 913 q 54 946 54 913 q 88 979 54 979 l 713 979 q 747 960 739 979 q 740 918 756 940 l 110 10 l 113 67 l 729 67 q 764 33 764 67 q 729 0 764 0 l 90 0 z "},"Ź":{"ha":808,"x_min":49,"x_max":764,"o":"m 90 0 q 56 19 64 0 q 64 63 49 39 l 693 969 l 690 913 l 88 913 q 54 946 54 913 q 88 979 54 979 l 713 979 q 747 960 739 979 q 740 918 756 940 l 110 10 l 113 67 l 729 67 q 764 33 764 67 q 729 0 764 0 l 90 0 m 419 1061 q 387 1062 401 1047 q 388 1094 372 1076 l 532 1257 q 569 1278 550 1278 q 601 1267 589 1279 q 613 1235 614 1254 q 588 1197 611 1215 l 419 1061 z "},"Ž":{"ha":808,"x_min":49,"x_max":764,"o":"m 90 0 q 56 19 64 0 q 64 63 49 39 l 693 969 l 690 913 l 88 913 q 54 946 54 913 q 88 979 54 979 l 713 979 q 747 960 739 979 q 740 918 756 940 l 110 10 l 113 67 l 729 67 q 764 33 764 67 q 729 0 764 0 l 90 0 m 403 1056 q 360 1076 381 1056 l 231 1217 q 220 1254 214 1236 q 244 1278 226 1272 q 278 1265 261 1283 l 403 1121 l 528 1265 q 562 1278 544 1283 q 585 1254 579 1272 q 575 1217 592 1236 l 446 1076 q 403 1056 426 1056 z "},"Ż":{"ha":808,"x_min":49,"x_max":764,"o":"m 90 0 q 56 19 64 0 q 64 63 49 39 l 693 969 l 690 913 l 88 913 q 54 946 54 913 q 88 979 54 979 l 713 979 q 747 960 739 979 q 740 918 756 940 l 110 10 l 113 67 l 729 67 q 764 33 764 67 q 729 0 764 0 l 90 0 m 403 1111 q 361 1126 378 1111 q 344 1168 344 1142 q 403 1225 344 1225 q 444 1210 428 1225 q 461 1168 461 1194 q 444 1126 461 1142 q 403 1111 428 1111 z "},"Ẓ":{"ha":808,"x_min":49,"x_max":764,"o":"m 90 0 q 56 19 64 0 q 64 63 49 39 l 693 969 l 690 913 l 88 913 q 54 946 54 913 q 88 979 54 979 l 713 979 q 747 960 739 979 q 740 918 756 940 l 110 10 l 113 67 l 729 67 q 764 33 764 67 q 729 0 764 0 l 90 0 m 414 -251 q 372 -236 389 -251 q 356 -194 356 -221 q 372 -153 356 -168 q 414 -137 389 -137 q 456 -153 439 -137 q 472 -194 472 -168 q 456 -236 472 -221 q 414 -251 439 -251 z "},"a":{"ha":728,"x_min":90,"x_max":617,"o":"m 326 -10 q 160 48 228 -10 q 92 190 93 106 q 181 345 90 303 q 513 388 272 388 l 557 388 l 557 328 l 515 328 q 243 301 314 328 q 172 197 172 275 q 217 97 172 136 q 331 58 263 58 q 483 121 424 58 q 542 281 542 183 l 542 442 q 383 622 542 622 q 263 603 314 622 q 185 567 213 585 q 157 548 169 556 q 133 540 144 540 q 104 572 104 540 q 153 631 104 601 q 261 675 201 660 q 378 690 321 690 q 617 436 617 690 l 617 33 q 579 -6 617 -6 q 552 5 563 -6 q 542 33 542 15 l 542 179 l 558 171 q 474 37 536 83 q 326 -10 411 -10 z "},"á":{"ha":728,"x_min":90,"x_max":625,"o":"m 326 -10 q 160 48 228 -10 q 92 190 93 106 q 181 345 90 303 q 513 388 272 388 l 557 388 l 557 328 l 515 328 q 243 301 314 328 q 172 197 172 275 q 217 97 172 136 q 331 58 263 58 q 483 121 424 58 q 542 281 542 183 l 542 442 q 383 622 542 622 q 263 603 314 622 q 185 567 213 585 q 157 548 169 556 q 133 540 144 540 q 104 572 104 540 q 153 631 104 601 q 261 675 201 660 q 378 690 321 690 q 617 436 617 690 l 617 33 q 579 -6 617 -6 q 552 5 563 -6 q 542 33 542 15 l 542 179 l 558 171 q 474 37 536 83 q 326 -10 411 -10 m 396 764 q 363 762 379 749 q 361 794 347 775 l 539 1024 q 577 1050 557 1047 q 611 1041 597 1053 q 625 1009 625 1029 q 603 967 625 989 l 396 764 z "},"ă":{"ha":728,"x_min":90,"x_max":617,"o":"m 326 -10 q 160 48 228 -10 q 92 190 93 106 q 181 345 90 303 q 513 388 272 388 l 557 388 l 557 328 l 515 328 q 243 301 314 328 q 172 197 172 275 q 217 97 172 136 q 331 58 263 58 q 483 121 424 58 q 542 281 542 183 l 542 442 q 383 622 542 622 q 263 603 314 622 q 185 567 213 585 q 157 548 169 556 q 133 540 144 540 q 104 572 104 540 q 153 631 104 601 q 261 675 201 660 q 378 690 321 690 q 617 436 617 690 l 617 33 q 579 -6 617 -6 q 552 5 563 -6 q 542 33 542 15 l 542 179 l 558 171 q 474 37 536 83 q 326 -10 411 -10 m 378 810 q 256 843 311 810 q 172 944 201 876 q 188 996 156 983 q 239 971 221 1008 q 378 874 285 874 q 517 971 471 874 q 567 996 535 1008 q 583 944 599 983 q 500 843 556 876 q 378 810 444 810 z "},"ắ":{"ha":728,"x_min":90,"x_max":617,"o":"m 326 -10 q 160 48 228 -10 q 92 190 93 106 q 181 345 90 303 q 513 388 272 388 l 557 388 l 557 328 l 515 328 q 243 301 314 328 q 172 197 172 275 q 217 97 172 136 q 331 58 263 58 q 483 121 424 58 q 542 281 542 183 l 542 442 q 383 622 542 622 q 263 603 314 622 q 185 567 213 585 q 157 548 169 556 q 133 540 144 540 q 104 572 104 540 q 153 631 104 601 q 261 675 201 660 q 378 690 321 690 q 617 436 617 690 l 617 33 q 579 -6 617 -6 q 552 5 563 -6 q 542 33 542 15 l 542 179 l 558 171 q 474 37 536 83 q 326 -10 411 -10 m 378 757 q 257 787 311 757 q 171 881 203 817 q 184 928 153 917 q 235 907 215 940 q 296 842 261 861 q 378 822 331 822 q 460 842 425 822 q 521 907 494 861 q 571 928 540 940 q 585 881 601 917 q 499 787 554 817 q 378 757 444 757 m 394 903 q 361 903 375 889 q 363 936 347 918 l 499 1088 q 547 1108 524 1115 q 576 1077 571 1101 q 550 1028 581 1053 l 394 903 z "},"ặ":{"ha":728,"x_min":90,"x_max":617,"o":"m 326 -10 q 160 48 228 -10 q 92 190 93 106 q 181 345 90 303 q 513 388 272 388 l 557 388 l 557 328 l 515 328 q 243 301 314 328 q 172 197 172 275 q 217 97 172 136 q 331 58 263 58 q 483 121 424 58 q 542 281 542 183 l 542 442 q 383 622 542 622 q 263 603 314 622 q 185 567 213 585 q 157 548 169 556 q 133 540 144 540 q 104 572 104 540 q 153 631 104 601 q 261 675 201 660 q 378 690 321 690 q 617 436 617 690 l 617 33 q 579 -6 617 -6 q 552 5 563 -6 q 542 33 542 15 l 542 179 l 558 171 q 474 37 536 83 q 326 -10 411 -10 m 374 -251 q 332 -236 349 -251 q 315 -194 315 -221 q 332 -153 315 -168 q 374 -137 349 -137 q 415 -153 399 -137 q 432 -194 432 -168 q 415 -236 432 -221 q 374 -251 399 -251 m 378 810 q 256 843 311 810 q 172 944 201 876 q 188 996 156 983 q 239 971 221 1008 q 378 874 285 874 q 517 971 471 874 q 567 996 535 1008 q 583 944 599 983 q 500 843 556 876 q 378 810 444 810 z "},"ằ":{"ha":728,"x_min":90,"x_max":617,"o":"m 326 -10 q 160 48 228 -10 q 92 190 93 106 q 181 345 90 303 q 513 388 272 388 l 557 388 l 557 328 l 515 328 q 243 301 314 328 q 172 197 172 275 q 217 97 172 136 q 331 58 263 58 q 483 121 424 58 q 542 281 542 183 l 542 442 q 383 622 542 622 q 263 603 314 622 q 185 567 213 585 q 157 548 169 556 q 133 540 144 540 q 104 572 104 540 q 153 631 104 601 q 261 675 201 660 q 378 690 321 690 q 617 436 617 690 l 617 33 q 579 -6 617 -6 q 552 5 563 -6 q 542 33 542 15 l 542 179 l 558 171 q 474 37 536 83 q 326 -10 411 -10 m 378 757 q 257 787 311 757 q 171 881 203 817 q 184 928 153 917 q 235 907 215 940 q 296 842 261 861 q 378 822 331 822 q 460 842 425 822 q 521 907 494 861 q 571 928 540 940 q 585 881 601 917 q 499 787 554 817 q 378 757 444 757 m 361 903 l 206 1028 q 180 1077 175 1053 q 208 1108 185 1101 q 257 1088 232 1115 l 393 936 q 394 903 408 918 q 361 903 381 889 z "},"ẳ":{"ha":728,"x_min":90,"x_max":617,"o":"m 326 -10 q 160 48 228 -10 q 92 190 93 106 q 181 345 90 303 q 513 388 272 388 l 557 388 l 557 328 l 515 328 q 243 301 314 328 q 172 197 172 275 q 217 97 172 136 q 331 58 263 58 q 483 121 424 58 q 542 281 542 183 l 542 442 q 383 622 542 622 q 263 603 314 622 q 185 567 213 585 q 157 548 169 556 q 133 540 144 540 q 104 572 104 540 q 153 631 104 601 q 261 675 201 660 q 378 690 321 690 q 617 436 617 690 l 617 33 q 579 -6 617 -6 q 552 5 563 -6 q 542 33 542 15 l 542 179 l 558 171 q 474 37 536 83 q 326 -10 411 -10 m 378 757 q 257 787 311 757 q 171 881 203 817 q 184 928 153 917 q 235 907 215 940 q 296 842 261 861 q 378 822 331 822 q 460 842 425 822 q 521 907 494 861 q 571 928 540 940 q 585 881 601 917 q 499 787 554 817 q 378 757 444 757 m 408 921 q 378 897 406 896 q 351 931 351 899 q 374 972 351 958 q 420 996 397 986 q 443 1021 443 1006 q 381 1047 443 1047 q 346 1044 361 1047 q 308 1036 331 1042 q 269 1053 276 1026 q 290 1092 263 1081 q 382 1108 332 1108 q 481 1084 446 1108 q 515 1024 515 1060 q 490 974 515 989 q 438 949 464 958 q 408 921 411 940 z "},"ẵ":{"ha":728,"x_min":90,"x_max":617,"o":"m 326 -10 q 160 48 228 -10 q 92 190 93 106 q 181 345 90 303 q 513 388 272 388 l 557 388 l 557 328 l 515 328 q 243 301 314 328 q 172 197 172 275 q 217 97 172 136 q 331 58 263 58 q 483 121 424 58 q 542 281 542 183 l 542 442 q 383 622 542 622 q 263 603 314 622 q 185 567 213 585 q 157 548 169 556 q 133 540 144 540 q 104 572 104 540 q 153 631 104 601 q 261 675 201 660 q 378 690 321 690 q 617 436 617 690 l 617 33 q 579 -6 617 -6 q 552 5 563 -6 q 542 33 542 15 l 542 179 l 558 171 q 474 37 536 83 q 326 -10 411 -10 m 378 757 q 257 787 311 757 q 171 881 203 817 q 184 928 153 917 q 235 907 215 940 q 296 842 261 861 q 378 822 331 822 q 460 842 425 822 q 521 907 494 861 q 571 928 540 940 q 585 881 601 917 q 499 787 554 817 q 378 757 444 757 m 474 976 q 371 1008 424 976 q 282 1040 318 1040 q 222 1010 233 1040 q 190 979 210 979 q 165 1007 165 979 q 196 1074 165 1039 q 282 1108 226 1108 q 385 1076 332 1108 q 474 1044 438 1044 q 534 1075 522 1044 q 565 1106 546 1106 q 590 1078 590 1106 q 560 1012 590 1047 q 474 976 529 976 z "},"ǎ":{"ha":728,"x_min":90,"x_max":617,"o":"m 326 -10 q 160 48 228 -10 q 92 190 93 106 q 181 345 90 303 q 513 388 272 388 l 557 388 l 557 328 l 515 328 q 243 301 314 328 q 172 197 172 275 q 217 97 172 136 q 331 58 263 58 q 483 121 424 58 q 542 281 542 183 l 542 442 q 383 622 542 622 q 263 603 314 622 q 185 567 213 585 q 157 548 169 556 q 133 540 144 540 q 104 572 104 540 q 153 631 104 601 q 261 675 201 660 q 378 690 321 690 q 617 436 617 690 l 617 33 q 579 -6 617 -6 q 552 5 563 -6 q 542 33 542 15 l 542 179 l 558 171 q 474 37 536 83 q 326 -10 411 -10 m 378 757 q 335 785 353 757 l 203 990 q 199 1028 189 1011 q 228 1047 210 1044 q 261 1028 247 1050 l 378 831 l 494 1028 q 527 1047 508 1050 q 556 1028 546 1044 q 553 990 567 1011 l 421 785 q 402 765 413 772 q 378 757 392 757 z "},"â":{"ha":728,"x_min":90,"x_max":617,"o":"m 326 -10 q 160 48 228 -10 q 92 190 93 106 q 181 345 90 303 q 513 388 272 388 l 557 388 l 557 328 l 515 328 q 243 301 314 328 q 172 197 172 275 q 217 97 172 136 q 331 58 263 58 q 483 121 424 58 q 542 281 542 183 l 542 442 q 383 622 542 622 q 263 603 314 622 q 185 567 213 585 q 157 548 169 556 q 133 540 144 540 q 104 572 104 540 q 153 631 104 601 q 261 675 201 660 q 378 690 321 690 q 617 436 617 690 l 617 33 q 579 -6 617 -6 q 552 5 563 -6 q 542 33 542 15 l 542 179 l 558 171 q 474 37 536 83 q 326 -10 411 -10 m 260 776 q 228 758 247 756 q 199 776 208 760 q 203 814 189 792 l 335 1019 q 353 1040 343 1032 q 378 1047 364 1047 q 421 1019 403 1047 l 553 814 q 557 776 567 792 q 528 758 547 760 q 496 776 508 756 l 378 974 l 260 776 z "},"ấ":{"ha":728,"x_min":90,"x_max":703,"o":"m 326 -10 q 160 48 228 -10 q 92 190 93 106 q 181 345 90 303 q 513 388 272 388 l 557 388 l 557 328 l 515 328 q 243 301 314 328 q 172 197 172 275 q 217 97 172 136 q 331 58 263 58 q 483 121 424 58 q 542 281 542 183 l 542 442 q 383 622 542 622 q 263 603 314 622 q 185 567 213 585 q 157 548 169 556 q 133 540 144 540 q 104 572 104 540 q 153 631 104 601 q 261 675 201 660 q 378 690 321 690 q 617 436 617 690 l 617 33 q 579 -6 617 -6 q 552 5 563 -6 q 542 33 542 15 l 542 179 l 558 171 q 474 37 536 83 q 326 -10 411 -10 m 253 771 q 219 758 238 753 q 195 782 201 764 q 206 819 189 800 l 335 960 q 378 981 354 981 q 421 960 400 981 l 550 819 q 560 782 567 800 q 536 758 554 764 q 503 771 518 753 l 378 915 l 253 771 m 542 906 q 509 906 526 892 q 507 938 492 919 l 622 1088 q 658 1110 639 1108 q 690 1101 676 1113 q 703 1070 703 1089 q 681 1032 703 1051 l 542 906 z "},"ậ":{"ha":728,"x_min":90,"x_max":617,"o":"m 326 -10 q 160 48 228 -10 q 92 190 93 106 q 181 345 90 303 q 513 388 272 388 l 557 388 l 557 328 l 515 328 q 243 301 314 328 q 172 197 172 275 q 217 97 172 136 q 331 58 263 58 q 483 121 424 58 q 542 281 542 183 l 542 442 q 383 622 542 622 q 263 603 314 622 q 185 567 213 585 q 157 548 169 556 q 133 540 144 540 q 104 572 104 540 q 153 631 104 601 q 261 675 201 660 q 378 690 321 690 q 617 436 617 690 l 617 33 q 579 -6 617 -6 q 552 5 563 -6 q 542 33 542 15 l 542 179 l 558 171 q 474 37 536 83 q 326 -10 411 -10 m 374 -251 q 332 -236 349 -251 q 315 -194 315 -221 q 332 -153 315 -168 q 374 -137 349 -137 q 415 -153 399 -137 q 432 -194 432 -168 q 415 -236 432 -221 q 374 -251 399 -251 m 260 776 q 228 758 247 756 q 199 776 208 760 q 203 814 189 792 l 335 1019 q 353 1040 343 1032 q 378 1047 364 1047 q 421 1019 403 1047 l 553 814 q 557 776 567 792 q 528 758 547 760 q 496 776 508 756 l 378 974 l 260 776 z "},"ầ":{"ha":728,"x_min":90,"x_max":617,"o":"m 326 -10 q 160 48 228 -10 q 92 190 93 106 q 181 345 90 303 q 513 388 272 388 l 557 388 l 557 328 l 515 328 q 243 301 314 328 q 172 197 172 275 q 217 97 172 136 q 331 58 263 58 q 483 121 424 58 q 542 281 542 183 l 542 442 q 383 622 542 622 q 263 603 314 622 q 185 567 213 585 q 157 548 169 556 q 133 540 144 540 q 104 572 104 540 q 153 631 104 601 q 261 675 201 660 q 378 690 321 690 q 617 436 617 690 l 617 33 q 579 -6 617 -6 q 552 5 563 -6 q 542 33 542 15 l 542 179 l 558 171 q 474 37 536 83 q 326 -10 411 -10 m 253 771 q 219 758 238 753 q 195 782 201 764 q 206 819 189 800 l 335 960 q 378 981 354 981 q 421 960 400 981 l 550 819 q 560 782 567 800 q 536 758 554 764 q 503 771 518 753 l 378 915 l 253 771 m 547 910 l 453 1039 q 439 1081 435 1063 q 458 1109 443 1100 q 492 1113 474 1118 q 521 1083 510 1108 l 588 935 q 578 903 597 914 q 547 910 560 893 z "},"ẩ":{"ha":728,"x_min":90,"x_max":657,"o":"m 326 -10 q 160 48 228 -10 q 92 190 93 106 q 181 345 90 303 q 513 388 272 388 l 557 388 l 557 328 l 515 328 q 243 301 314 328 q 172 197 172 275 q 217 97 172 136 q 331 58 263 58 q 483 121 424 58 q 542 281 542 183 l 542 442 q 383 622 542 622 q 263 603 314 622 q 185 567 213 585 q 157 548 169 556 q 133 540 144 540 q 104 572 104 540 q 153 631 104 601 q 261 675 201 660 q 378 690 321 690 q 617 436 617 690 l 617 33 q 579 -6 617 -6 q 552 5 563 -6 q 542 33 542 15 l 542 179 l 558 171 q 474 37 536 83 q 326 -10 411 -10 m 253 771 q 219 758 238 753 q 195 782 201 764 q 206 819 189 800 l 335 960 q 378 981 354 981 q 421 960 400 981 l 550 819 q 560 782 567 800 q 536 758 554 764 q 503 771 518 753 l 378 915 l 253 771 m 550 922 q 520 899 547 897 q 493 932 493 900 q 516 974 493 960 q 562 997 539 988 q 585 1022 585 1006 q 522 1049 585 1049 q 488 1047 503 1049 q 450 1038 472 1044 q 411 1055 418 1028 q 432 1093 404 1082 q 524 1110 474 1110 q 622 1085 588 1110 q 657 1025 657 1061 q 631 974 657 989 q 579 951 606 960 q 550 922 553 942 z "},"ẫ":{"ha":728,"x_min":90,"x_max":617,"o":"m 326 -10 q 160 48 228 -10 q 92 190 93 106 q 181 345 90 303 q 513 388 272 388 l 557 388 l 557 328 l 515 328 q 243 301 314 328 q 172 197 172 275 q 217 97 172 136 q 331 58 263 58 q 483 121 424 58 q 542 281 542 183 l 542 442 q 383 622 542 622 q 263 603 314 622 q 185 567 213 585 q 157 548 169 556 q 133 540 144 540 q 104 572 104 540 q 153 631 104 601 q 261 675 201 660 q 378 690 321 690 q 617 436 617 690 l 617 33 q 579 -6 617 -6 q 552 5 563 -6 q 542 33 542 15 l 542 179 l 558 171 q 474 37 536 83 q 326 -10 411 -10 m 253 771 q 219 758 238 753 q 195 782 201 764 q 206 819 189 800 l 335 960 q 378 981 354 981 q 421 960 400 981 l 550 819 q 560 782 567 800 q 536 758 554 764 q 503 771 518 753 l 378 915 l 253 771 m 474 996 q 371 1026 424 996 q 282 1056 318 1056 q 222 1027 233 1056 q 190 999 210 999 q 165 1026 165 999 q 196 1091 165 1058 q 282 1124 226 1124 q 385 1094 332 1124 q 474 1064 438 1064 q 534 1092 522 1064 q 565 1121 546 1121 q 590 1093 590 1121 q 560 1028 590 1061 q 474 996 529 996 z "},"ȁ":{"ha":728,"x_min":90,"x_max":617,"o":"m 326 -10 q 160 48 228 -10 q 92 190 93 106 q 181 345 90 303 q 513 388 272 388 l 557 388 l 557 328 l 515 328 q 243 301 314 328 q 172 197 172 275 q 217 97 172 136 q 331 58 263 58 q 483 121 424 58 q 542 281 542 183 l 542 442 q 383 622 542 622 q 263 603 314 622 q 185 567 213 585 q 157 548 169 556 q 133 540 144 540 q 104 572 104 540 q 153 631 104 601 q 261 675 201 660 q 378 690 321 690 q 617 436 617 690 l 617 33 q 579 -6 617 -6 q 552 5 563 -6 q 542 33 542 15 l 542 179 l 558 171 q 474 37 536 83 q 326 -10 411 -10 m 439 768 l 331 988 q 330 1037 315 1019 q 368 1051 344 1054 q 401 1014 392 1047 l 475 782 q 464 757 481 764 q 439 768 447 750 m 281 768 l 172 988 q 172 1037 157 1019 q 210 1051 186 1054 q 243 1014 233 1047 l 317 782 q 306 757 322 764 q 281 768 289 750 z "},"ä":{"ha":728,"x_min":90,"x_max":617,"o":"m 326 -10 q 160 48 228 -10 q 92 190 93 106 q 181 345 90 303 q 513 388 272 388 l 557 388 l 557 328 l 515 328 q 243 301 314 328 q 172 197 172 275 q 217 97 172 136 q 331 58 263 58 q 483 121 424 58 q 542 281 542 183 l 542 442 q 383 622 542 622 q 263 603 314 622 q 185 567 213 585 q 157 548 169 556 q 133 540 144 540 q 104 572 104 540 q 153 631 104 601 q 261 675 201 660 q 378 690 321 690 q 617 436 617 690 l 617 33 q 579 -6 617 -6 q 552 5 563 -6 q 542 33 542 15 l 542 179 l 558 171 q 474 37 536 83 q 326 -10 411 -10 m 492 850 q 453 865 469 850 q 436 904 436 881 q 453 943 436 928 q 492 958 469 958 q 531 943 514 958 q 547 904 547 928 q 531 865 547 881 q 492 850 514 850 m 264 850 q 225 865 242 850 q 208 904 208 881 q 225 943 208 928 q 264 958 242 958 q 303 943 286 958 q 319 904 319 928 q 303 865 319 881 q 264 850 286 850 z "},"ȧ":{"ha":728,"x_min":90,"x_max":617,"o":"m 326 -10 q 160 48 228 -10 q 92 190 93 106 q 181 345 90 303 q 513 388 272 388 l 557 388 l 557 328 l 515 328 q 243 301 314 328 q 172 197 172 275 q 217 97 172 136 q 331 58 263 58 q 483 121 424 58 q 542 281 542 183 l 542 442 q 383 622 542 622 q 263 603 314 622 q 185 567 213 585 q 157 548 169 556 q 133 540 144 540 q 104 572 104 540 q 153 631 104 601 q 261 675 201 660 q 378 690 321 690 q 617 436 617 690 l 617 33 q 579 -6 617 -6 q 552 5 563 -6 q 542 33 542 15 l 542 179 l 558 171 q 474 37 536 83 q 326 -10 411 -10 m 378 847 q 336 863 353 847 q 319 904 319 878 q 378 961 319 961 q 419 946 403 961 q 436 904 436 931 q 419 863 436 878 q 378 847 403 847 z "},"ạ":{"ha":728,"x_min":90,"x_max":617,"o":"m 326 -10 q 160 48 228 -10 q 92 190 93 106 q 181 345 90 303 q 513 388 272 388 l 557 388 l 557 328 l 515 328 q 243 301 314 328 q 172 197 172 275 q 217 97 172 136 q 331 58 263 58 q 483 121 424 58 q 542 281 542 183 l 542 442 q 383 622 542 622 q 263 603 314 622 q 185 567 213 585 q 157 548 169 556 q 133 540 144 540 q 104 572 104 540 q 153 631 104 601 q 261 675 201 660 q 378 690 321 690 q 617 436 617 690 l 617 33 q 579 -6 617 -6 q 552 5 563 -6 q 542 33 542 15 l 542 179 l 558 171 q 474 37 536 83 q 326 -10 411 -10 m 374 -251 q 332 -236 349 -251 q 315 -194 315 -221 q 332 -153 315 -168 q 374 -137 349 -137 q 415 -153 399 -137 q 432 -194 432 -168 q 415 -236 432 -221 q 374 -251 399 -251 z "},"à":{"ha":728,"x_min":90,"x_max":617,"o":"m 326 -10 q 160 48 228 -10 q 92 190 93 106 q 181 345 90 303 q 513 388 272 388 l 557 388 l 557 328 l 515 328 q 243 301 314 328 q 172 197 172 275 q 217 97 172 136 q 331 58 263 58 q 483 121 424 58 q 542 281 542 183 l 542 442 q 383 622 542 622 q 263 603 314 622 q 185 567 213 585 q 157 548 169 556 q 133 540 144 540 q 104 572 104 540 q 153 631 104 601 q 261 675 201 660 q 378 690 321 690 q 617 436 617 690 l 617 33 q 579 -6 617 -6 q 552 5 563 -6 q 542 33 542 15 l 542 179 l 558 171 q 474 37 536 83 q 326 -10 411 -10 m 360 764 l 153 967 q 131 1009 131 989 q 144 1041 131 1029 q 178 1050 158 1053 q 217 1024 199 1047 l 394 794 q 392 762 408 775 q 360 764 376 749 z "},"ả":{"ha":728,"x_min":90,"x_max":617,"o":"m 326 -10 q 160 48 228 -10 q 92 190 93 106 q 181 345 90 303 q 513 388 272 388 l 557 388 l 557 328 l 515 328 q 243 301 314 328 q 172 197 172 275 q 217 97 172 136 q 331 58 263 58 q 483 121 424 58 q 542 281 542 183 l 542 442 q 383 622 542 622 q 263 603 314 622 q 185 567 213 585 q 157 548 169 556 q 133 540 144 540 q 104 572 104 540 q 153 631 104 601 q 261 675 201 660 q 378 690 321 690 q 617 436 617 690 l 617 33 q 579 -6 617 -6 q 552 5 563 -6 q 542 33 542 15 l 542 179 l 558 171 q 474 37 536 83 q 326 -10 411 -10 m 411 792 q 393 762 408 769 q 363 764 378 754 q 349 801 349 774 q 372 864 349 839 q 418 910 394 889 q 442 953 442 931 q 381 988 442 988 q 346 985 361 988 q 308 975 331 982 q 269 990 276 964 q 290 1029 263 1017 q 382 1049 333 1049 q 481 1023 446 1049 q 515 957 515 997 q 491 891 515 914 q 440 848 467 868 q 411 792 414 828 z "},"ȃ":{"ha":728,"x_min":90,"x_max":617,"o":"m 326 -10 q 160 48 228 -10 q 92 190 93 106 q 181 345 90 303 q 513 388 272 388 l 557 388 l 557 328 l 515 328 q 243 301 314 328 q 172 197 172 275 q 217 97 172 136 q 331 58 263 58 q 483 121 424 58 q 542 281 542 183 l 542 442 q 383 622 542 622 q 263 603 314 622 q 185 567 213 585 q 157 548 169 556 q 133 540 144 540 q 104 572 104 540 q 153 631 104 601 q 261 675 201 660 q 378 690 321 690 q 617 436 617 690 l 617 33 q 579 -6 617 -6 q 552 5 563 -6 q 542 33 542 15 l 542 179 l 558 171 q 474 37 536 83 q 326 -10 411 -10 m 239 838 q 189 813 221 800 q 172 864 157 825 q 256 965 200 932 q 378 999 311 999 q 499 965 444 999 q 583 864 554 932 q 567 813 600 825 q 517 838 535 800 q 378 935 471 935 q 239 838 285 935 z "},"ā":{"ha":728,"x_min":90,"x_max":617,"o":"m 326 -10 q 160 48 228 -10 q 92 190 93 106 q 181 345 90 303 q 513 388 272 388 l 557 388 l 557 328 l 515 328 q 243 301 314 328 q 172 197 172 275 q 217 97 172 136 q 331 58 263 58 q 483 121 424 58 q 542 281 542 183 l 542 442 q 383 622 542 622 q 263 603 314 622 q 185 567 213 585 q 157 548 169 556 q 133 540 144 540 q 104 572 104 540 q 153 631 104 601 q 261 675 201 660 q 378 690 321 690 q 617 436 617 690 l 617 33 q 579 -6 617 -6 q 552 5 563 -6 q 542 33 542 15 l 542 179 l 558 171 q 474 37 536 83 q 326 -10 411 -10 m 210 871 q 167 904 167 871 q 210 938 167 938 l 546 938 q 589 904 589 938 q 546 871 589 871 l 210 871 z "},"ą":{"ha":728,"x_min":90,"x_max":694,"o":"m 571 -265 q 458 -226 501 -265 q 414 -122 414 -186 q 462 -8 414 -54 q 593 53 510 39 l 556 3 q 542 33 542 13 l 542 179 l 558 171 q 474 37 536 83 q 326 -10 411 -10 q 160 48 228 -10 q 92 190 93 106 q 181 345 90 303 q 513 388 272 388 l 557 388 l 557 328 l 515 328 q 243 301 314 328 q 172 197 172 275 q 217 97 172 136 q 331 58 263 58 q 483 121 424 58 q 542 281 542 183 l 542 442 q 383 622 542 622 q 263 603 314 622 q 185 567 213 585 q 156 548 168 556 q 133 540 144 540 q 104 572 104 540 q 153 631 104 601 q 261 675 201 660 q 378 690 321 690 q 617 436 617 690 l 617 33 q 589 -3 617 1 q 483 -114 483 -25 q 578 -206 483 -206 q 644 -187 608 -206 q 684 -199 674 -172 q 667 -242 694 -225 q 571 -265 617 -265 z "},"å":{"ha":728,"x_min":90,"x_max":617,"o":"m 326 -10 q 160 48 228 -10 q 92 190 93 106 q 181 345 90 303 q 513 388 272 388 l 557 388 l 557 328 l 515 328 q 243 301 314 328 q 172 197 172 275 q 217 97 172 136 q 331 58 263 58 q 483 121 424 58 q 542 281 542 183 l 542 442 q 383 622 542 622 q 263 603 314 622 q 185 567 213 585 q 157 548 169 556 q 133 540 144 540 q 104 572 104 540 q 153 631 104 601 q 261 675 201 660 q 378 690 321 690 q 617 436 617 690 l 617 33 q 579 -6 617 -6 q 552 5 563 -6 q 542 33 542 15 l 542 179 l 558 171 q 474 37 536 83 q 326 -10 411 -10 m 378 771 q 282 809 322 771 q 242 904 242 847 q 282 999 242 961 q 378 1038 322 1038 q 474 999 433 1038 q 514 904 514 961 q 474 809 514 847 q 378 771 433 771 m 378 832 q 428 853 408 832 q 447 904 447 874 q 428 956 447 935 q 378 976 408 976 q 328 956 347 976 q 308 904 308 935 q 328 853 308 874 q 378 832 347 832 z "},"ǻ":{"ha":728,"x_min":90,"x_max":671,"o":"m 326 -10 q 160 48 228 -10 q 92 190 93 106 q 181 345 90 303 q 513 388 272 388 l 557 388 l 557 328 l 515 328 q 243 301 314 328 q 172 197 172 275 q 217 97 172 136 q 331 58 263 58 q 483 121 424 58 q 542 281 542 183 l 542 442 q 383 622 542 622 q 263 603 314 622 q 185 567 213 585 q 157 548 169 556 q 133 540 144 540 q 104 572 104 540 q 153 631 104 601 q 261 675 201 660 q 378 690 321 690 q 617 436 617 690 l 617 33 q 579 -6 617 -6 q 552 5 563 -6 q 542 33 542 15 l 542 179 l 558 171 q 474 37 536 83 q 326 -10 411 -10 m 378 771 q 282 809 322 771 q 242 904 242 847 q 282 999 242 961 q 378 1038 322 1038 q 474 999 433 1038 q 514 904 514 961 q 474 809 514 847 q 378 771 433 771 m 378 832 q 428 853 408 832 q 447 904 447 874 q 428 956 447 935 q 378 976 408 976 q 328 956 347 976 q 308 904 308 935 q 328 853 308 874 q 378 832 347 832 m 479 969 q 447 970 461 956 q 447 1003 433 985 l 585 1165 q 623 1185 603 1186 q 657 1171 643 1185 q 670 1137 671 1157 q 647 1099 669 1117 l 479 969 z "},"ã":{"ha":728,"x_min":90,"x_max":617,"o":"m 326 -10 q 160 48 228 -10 q 92 190 93 106 q 181 345 90 303 q 513 388 272 388 l 557 388 l 557 328 l 515 328 q 243 301 314 328 q 172 197 172 275 q 217 97 172 136 q 331 58 263 58 q 483 121 424 58 q 542 281 542 183 l 542 442 q 383 622 542 622 q 263 603 314 622 q 185 567 213 585 q 157 548 169 556 q 133 540 144 540 q 104 572 104 540 q 153 631 104 601 q 261 675 201 660 q 378 690 321 690 q 617 436 617 690 l 617 33 q 579 -6 617 -6 q 552 5 563 -6 q 542 33 542 15 l 542 179 l 558 171 q 474 37 536 83 q 326 -10 411 -10 m 474 825 q 372 870 422 825 q 282 915 321 915 q 224 875 235 915 q 190 835 213 835 q 165 863 165 835 q 196 940 165 894 q 282 985 226 985 q 384 940 333 985 q 474 894 435 894 q 532 935 521 894 q 565 975 543 975 q 590 947 590 975 q 560 871 590 917 q 474 825 529 825 z "},"æ":{"ha":1193,"x_min":90,"x_max":1126,"o":"m 869 -10 q 643 81 725 -10 q 556 335 561 171 q 633 591 550 492 q 853 690 717 690 q 1052 606 978 690 q 1126 376 1126 521 q 1081 328 1126 328 l 597 328 l 596 388 l 1085 388 l 1057 356 q 1008 556 1061 486 q 853 626 954 626 q 685 550 747 626 q 624 342 624 474 q 868 58 624 58 q 1019 99 969 58 q 1093 140 1069 140 q 1121 108 1121 140 q 1074 50 1121 78 q 869 -10 974 -10 m 333 -10 q 162 47 231 -10 q 92 190 93 104 q 183 345 90 303 q 518 388 275 388 l 563 388 l 563 328 l 521 328 q 244 301 315 328 q 172 197 172 275 q 219 97 172 136 q 338 58 265 58 q 488 122 429 58 q 547 286 547 186 l 547 436 q 388 622 547 622 q 210 581 264 622 q 132 540 156 540 q 104 572 104 540 q 153 631 104 603 q 381 690 254 690 q 621 443 621 690 l 621 238 l 594 238 q 513 57 582 124 q 333 -10 444 -10 z "},"ǽ":{"ha":1193,"x_min":90,"x_max":1126,"o":"m 869 -10 q 643 81 725 -10 q 556 335 561 171 q 633 591 550 492 q 853 690 717 690 q 1052 606 978 690 q 1126 376 1126 521 q 1081 328 1126 328 l 597 328 l 596 388 l 1085 388 l 1057 356 q 1008 556 1061 486 q 853 626 954 626 q 685 550 747 626 q 624 342 624 474 q 868 58 624 58 q 1019 99 969 58 q 1093 140 1069 140 q 1121 108 1121 140 q 1074 50 1121 78 q 869 -10 974 -10 m 333 -10 q 162 47 231 -10 q 92 190 93 104 q 183 345 90 303 q 518 388 275 388 l 563 388 l 563 328 l 521 328 q 244 301 315 328 q 172 197 172 275 q 219 97 172 136 q 338 58 265 58 q 488 122 429 58 q 547 286 547 186 l 547 436 q 388 622 547 622 q 210 581 264 622 q 132 540 156 540 q 104 572 104 540 q 153 631 104 603 q 381 690 254 690 q 621 443 621 690 l 621 238 l 594 238 q 513 57 582 124 q 333 -10 444 -10 m 604 764 q 572 762 588 749 q 569 794 556 775 l 747 1024 q 785 1050 765 1047 q 819 1041 806 1053 q 833 1009 833 1029 q 811 967 833 989 l 604 764 z "},"b":{"ha":792,"x_min":114,"x_max":722,"o":"m 422 -10 q 262 38 326 -10 q 174 176 197 86 l 189 188 l 189 33 q 151 -6 189 -6 q 114 33 114 -6 l 114 947 q 124 976 114 965 q 151 986 133 986 q 189 947 189 986 l 189 493 l 174 504 q 262 642 197 594 q 422 690 326 690 q 640 596 558 690 q 722 343 722 501 q 640 87 722 183 q 422 -10 557 -10 m 415 58 q 583 133 522 58 q 643 343 643 208 q 583 549 643 476 q 414 622 522 622 q 247 549 306 622 q 189 340 189 475 q 247 132 189 206 q 415 58 306 58 z "},"c":{"ha":657,"x_min":69,"x_max":622,"o":"m 379 -10 q 155 85 240 -10 q 69 338 69 181 q 156 593 69 496 q 382 690 242 690 q 482 676 432 690 q 571 635 532 663 q 618 571 618 600 q 590 540 618 540 q 522 581 565 540 q 385 622 478 622 q 212 547 275 622 q 149 338 149 471 q 210 132 149 206 q 383 58 272 58 q 524 99 478 58 q 594 140 571 140 q 622 110 622 140 q 575 50 622 85 q 379 -10 492 -10 z "},"ć":{"ha":657,"x_min":69,"x_max":629,"o":"m 379 -10 q 155 85 240 -10 q 69 338 69 181 q 156 593 69 496 q 382 690 242 690 q 482 676 432 690 q 571 635 532 663 q 618 571 618 600 q 590 540 618 540 q 522 581 565 540 q 385 622 478 622 q 212 547 275 622 q 149 338 149 471 q 210 132 149 206 q 383 58 272 58 q 524 99 478 58 q 594 140 571 140 q 622 110 622 140 q 575 50 622 85 q 379 -10 492 -10 m 400 764 q 367 762 383 749 q 365 794 351 775 l 543 1024 q 581 1050 561 1047 q 615 1041 601 1053 q 629 1009 629 1029 q 607 967 629 989 l 400 764 z "},"č":{"ha":657,"x_min":69,"x_max":622,"o":"m 379 -10 q 155 85 240 -10 q 69 338 69 181 q 156 593 69 496 q 382 690 242 690 q 482 676 432 690 q 571 635 532 663 q 618 571 618 600 q 590 540 618 540 q 522 581 565 540 q 385 622 478 622 q 212 547 275 622 q 149 338 149 471 q 210 132 149 206 q 383 58 272 58 q 524 99 478 58 q 594 140 571 140 q 622 110 622 140 q 575 50 622 85 q 379 -10 492 -10 m 382 757 q 339 785 357 757 l 207 990 q 203 1028 193 1011 q 233 1047 214 1044 q 265 1028 251 1050 l 382 831 l 499 1028 q 531 1047 513 1050 q 560 1028 550 1044 q 557 990 571 1011 l 425 785 q 406 765 417 772 q 382 757 396 757 z "},"ç":{"ha":657,"x_min":69,"x_max":622,"o":"m 379 -10 q 155 85 240 -10 q 69 338 69 181 q 156 593 69 496 q 382 690 242 690 q 482 676 432 690 q 571 635 532 663 q 618 571 618 600 q 590 540 618 540 q 522 581 565 540 q 385 622 478 622 q 212 547 275 622 q 149 338 149 471 q 210 132 149 206 q 383 58 272 58 q 524 99 478 58 q 594 140 571 140 q 622 110 622 140 q 575 50 622 85 q 379 -10 492 -10 m 379 -265 q 332 -261 357 -265 q 286 -249 307 -257 q 265 -212 258 -237 q 306 -196 272 -186 q 344 -205 328 -203 q 383 -207 360 -207 q 468 -153 468 -207 q 422 -111 468 -111 q 381 -119 400 -111 q 350 -126 361 -126 q 324 -100 321 -126 l 338 28 l 403 28 l 392 -71 l 375 -72 q 400 -61 385 -65 q 432 -57 415 -57 q 501 -79 468 -57 q 535 -153 535 -101 q 494 -233 535 -200 q 379 -265 454 -265 z "},"ḉ":{"ha":657,"x_min":69,"x_max":629,"o":"m 379 -10 q 155 85 240 -10 q 69 338 69 181 q 156 593 69 496 q 382 690 242 690 q 482 676 432 690 q 571 635 532 663 q 618 571 618 600 q 590 540 618 540 q 522 581 565 540 q 385 622 478 622 q 212 547 275 622 q 149 338 149 471 q 210 132 149 206 q 383 58 272 58 q 524 99 478 58 q 594 140 571 140 q 622 110 622 140 q 575 50 622 85 q 379 -10 492 -10 m 379 -265 q 332 -261 357 -265 q 286 -249 307 -257 q 265 -212 258 -237 q 306 -196 272 -186 q 344 -205 328 -203 q 383 -207 360 -207 q 468 -153 468 -207 q 422 -111 468 -111 q 381 -119 400 -111 q 350 -126 361 -126 q 324 -100 321 -126 l 338 28 l 403 28 l 392 -71 l 375 -72 q 400 -61 385 -65 q 432 -57 415 -57 q 501 -79 468 -57 q 535 -153 535 -101 q 494 -233 535 -200 q 379 -265 454 -265 m 400 764 q 367 762 383 749 q 365 794 351 775 l 543 1024 q 581 1050 561 1047 q 615 1041 601 1053 q 629 1009 629 1029 q 607 967 629 989 l 400 764 z "},"ĉ":{"ha":657,"x_min":69,"x_max":622,"o":"m 379 -10 q 155 85 240 -10 q 69 338 69 181 q 156 593 69 496 q 382 690 242 690 q 482 676 432 690 q 571 635 532 663 q 618 571 618 600 q 590 540 618 540 q 522 581 565 540 q 385 622 478 622 q 212 547 275 622 q 149 338 149 471 q 210 132 149 206 q 383 58 272 58 q 524 99 478 58 q 594 140 571 140 q 622 110 622 140 q 575 50 622 85 q 379 -10 492 -10 m 264 776 q 232 758 251 756 q 203 776 213 760 q 207 814 193 792 l 339 1019 q 358 1040 347 1032 q 382 1047 368 1047 q 425 1019 407 1047 l 557 814 q 561 776 571 792 q 532 758 551 760 q 500 776 513 756 l 382 974 l 264 776 z "},"ċ":{"ha":657,"x_min":69,"x_max":622,"o":"m 379 -10 q 155 85 240 -10 q 69 338 69 181 q 156 593 69 496 q 382 690 242 690 q 482 676 432 690 q 571 635 532 663 q 618 571 618 600 q 590 540 618 540 q 522 581 565 540 q 385 622 478 622 q 212 547 275 622 q 149 338 149 471 q 210 132 149 206 q 383 58 272 58 q 524 99 478 58 q 594 140 571 140 q 622 110 622 140 q 575 50 622 85 q 379 -10 492 -10 m 382 847 q 340 863 357 847 q 324 904 324 878 q 382 961 324 961 q 424 946 407 961 q 440 904 440 931 q 424 863 440 878 q 382 847 407 847 z "},"d":{"ha":792,"x_min":69,"x_max":678,"o":"m 369 -10 q 152 87 235 -10 q 69 343 69 183 q 151 596 69 501 q 369 690 233 690 q 530 642 465 690 q 618 504 594 594 l 603 493 l 603 947 q 640 986 603 986 q 668 976 658 986 q 678 947 678 965 l 678 33 q 640 -6 678 -6 q 603 33 603 -6 l 603 188 l 618 176 q 530 38 594 86 q 369 -10 465 -10 m 376 58 q 544 132 485 58 q 603 340 603 206 q 544 549 603 475 q 378 622 486 622 q 209 549 269 622 q 149 343 149 476 q 209 133 149 208 q 376 58 269 58 z "},"ð":{"ha":757,"x_min":69,"x_max":688,"o":"m 375 -10 q 153 78 236 -10 q 69 311 69 165 q 153 544 69 457 q 376 632 238 632 q 567 566 503 632 q 650 401 631 500 l 614 404 q 567 637 614 536 q 440 806 519 738 q 265 914 361 875 q 231 947 235 926 q 246 979 228 967 q 296 978 264 992 q 485 861 394 936 q 631 669 575 786 q 688 388 688 553 q 608 91 688 192 q 375 -10 528 -10 m 375 58 q 543 126 482 58 q 604 313 604 193 q 545 496 604 428 q 376 564 486 564 q 209 497 269 564 q 149 311 149 431 q 375 58 149 58 m 275 713 q 244 717 256 706 q 233 744 232 728 q 253 769 233 761 l 640 924 q 672 920 660 931 q 684 893 685 910 q 663 868 683 876 l 275 713 z "},"ď":{"ha":792,"x_min":69,"x_max":811,"o":"m 776 732 q 751 711 774 708 q 728 736 728 714 l 728 942 q 749 984 728 975 q 791 980 771 993 q 807 935 811 967 l 776 732 m 369 -10 q 152 87 235 -10 q 69 343 69 183 q 151 596 69 501 q 369 690 233 690 q 530 642 465 690 q 618 504 594 594 l 603 493 l 603 947 q 640 986 603 986 q 668 976 658 986 q 678 947 678 965 l 678 33 q 640 -6 678 -6 q 603 33 603 -6 l 603 188 l 618 176 q 530 38 594 86 q 369 -10 465 -10 m 376 58 q 544 132 485 58 q 603 340 603 206 q 544 549 603 475 q 378 622 486 622 q 209 549 269 622 q 149 343 149 476 q 209 133 149 208 q 376 58 269 58 z "},"đ":{"ha":792,"x_min":69,"x_max":817,"o":"m 369 -10 q 152 87 235 -10 q 69 343 69 183 q 151 596 69 501 q 369 690 233 690 q 530 642 465 690 q 618 504 594 594 l 603 493 l 603 947 q 640 986 603 986 q 668 976 658 986 q 678 947 678 965 l 678 33 q 640 -6 678 -6 q 603 33 603 -6 l 603 188 l 618 176 q 530 38 594 86 q 369 -10 465 -10 m 376 58 q 544 132 485 58 q 603 340 603 206 q 544 549 603 475 q 378 622 486 622 q 209 549 269 622 q 149 343 149 476 q 209 133 149 208 q 376 58 269 58 m 357 782 q 325 813 325 782 q 357 844 325 844 l 785 844 q 817 813 817 844 q 785 782 817 782 l 357 782 z "},"ḍ":{"ha":792,"x_min":69,"x_max":678,"o":"m 369 -10 q 152 87 235 -10 q 69 343 69 183 q 151 596 69 501 q 369 690 233 690 q 530 642 465 690 q 618 504 594 594 l 603 493 l 603 947 q 640 986 603 986 q 668 976 658 986 q 678 947 678 965 l 678 33 q 640 -6 678 -6 q 603 33 603 -6 l 603 188 l 618 176 q 530 38 594 86 q 369 -10 465 -10 m 376 58 q 544 132 485 58 q 603 340 603 206 q 544 549 603 475 q 378 622 486 622 q 209 549 269 622 q 149 343 149 476 q 209 133 149 208 q 376 58 269 58 m 399 -251 q 357 -236 374 -251 q 340 -194 340 -221 q 357 -153 340 -168 q 399 -137 374 -137 q 440 -153 424 -137 q 457 -194 457 -168 q 440 -236 457 -221 q 399 -251 424 -251 z "},"ḏ":{"ha":792,"x_min":69,"x_max":678,"o":"m 369 -10 q 152 87 235 -10 q 69 343 69 183 q 151 596 69 501 q 369 690 233 690 q 530 642 465 690 q 618 504 594 594 l 603 493 l 603 947 q 640 986 603 986 q 668 976 658 986 q 678 947 678 965 l 678 33 q 640 -6 678 -6 q 603 33 603 -6 l 603 188 l 618 176 q 530 38 594 86 q 369 -10 465 -10 m 376 58 q 544 132 485 58 q 603 340 603 206 q 544 549 603 475 q 378 622 486 622 q 209 549 269 622 q 149 343 149 476 q 209 133 149 208 q 376 58 269 58 m 231 -228 q 188 -194 188 -228 q 231 -161 188 -161 l 567 -161 q 610 -194 610 -161 q 567 -228 610 -228 l 231 -228 z "},"ǆ":{"ha":1483,"x_min":69,"x_max":1428,"o":"m 369 -10 q 152 87 235 -10 q 69 343 69 183 q 151 596 69 501 q 369 690 233 690 q 530 642 465 690 q 618 504 594 594 l 603 493 l 603 947 q 640 986 603 986 q 668 976 658 986 q 678 947 678 965 l 678 33 q 640 -6 678 -6 q 603 33 603 -6 l 603 188 l 618 176 q 530 38 594 86 q 369 -10 465 -10 m 376 58 q 544 132 485 58 q 603 340 603 206 q 544 549 603 475 q 378 622 486 622 q 209 549 269 622 q 149 343 149 476 q 209 133 149 208 q 376 58 269 58 z "},"e":{"ha":729,"x_min":69,"x_max":663,"o":"m 399 -10 q 158 83 246 -10 q 69 339 69 175 q 157 593 69 496 q 383 690 244 690 q 588 606 513 690 q 663 376 663 522 q 617 328 663 328 l 136 328 l 135 388 l 621 388 l 593 356 q 383 626 601 626 q 211 551 274 626 q 149 342 149 475 q 213 131 149 204 q 397 58 276 58 q 553 99 503 58 q 628 140 604 140 q 656 108 656 140 q 608 50 656 78 q 502 5 556 19 q 399 -10 449 -10 z "},"é":{"ha":729,"x_min":69,"x_max":663,"o":"m 399 -10 q 158 83 246 -10 q 69 339 69 175 q 157 593 69 496 q 383 690 244 690 q 588 606 513 690 q 663 376 663 522 q 617 328 663 328 l 136 328 l 135 388 l 621 388 l 593 356 q 383 626 601 626 q 211 551 274 626 q 149 342 149 475 q 213 131 149 204 q 397 58 276 58 q 553 99 503 58 q 628 140 604 140 q 656 108 656 140 q 608 50 656 78 q 502 5 556 19 q 399 -10 449 -10 m 401 764 q 369 762 385 749 q 367 794 353 775 l 544 1024 q 583 1050 563 1047 q 617 1041 603 1053 q 631 1009 631 1029 q 608 967 631 989 l 401 764 z "},"ĕ":{"ha":729,"x_min":69,"x_max":663,"o":"m 399 -10 q 158 83 246 -10 q 69 339 69 175 q 157 593 69 496 q 383 690 244 690 q 588 606 513 690 q 663 376 663 522 q 617 328 663 328 l 136 328 l 135 388 l 621 388 l 593 356 q 383 626 601 626 q 211 551 274 626 q 149 342 149 475 q 213 131 149 204 q 397 58 276 58 q 553 99 503 58 q 628 140 604 140 q 656 108 656 140 q 608 50 656 78 q 502 5 556 19 q 399 -10 449 -10 m 383 810 q 262 843 317 810 q 178 944 207 876 q 194 996 161 983 q 244 971 226 1008 q 383 874 290 874 q 522 971 476 874 q 572 996 540 1008 q 589 944 604 983 q 506 843 561 876 q 383 810 450 810 z "},"ě":{"ha":729,"x_min":69,"x_max":663,"o":"m 399 -10 q 158 83 246 -10 q 69 339 69 175 q 157 593 69 496 q 383 690 244 690 q 588 606 513 690 q 663 376 663 522 q 617 328 663 328 l 136 328 l 135 388 l 621 388 l 593 356 q 383 626 601 626 q 211 551 274 626 q 149 342 149 475 q 213 131 149 204 q 397 58 276 58 q 553 99 503 58 q 628 140 604 140 q 656 108 656 140 q 608 50 656 78 q 502 5 556 19 q 399 -10 449 -10 m 383 757 q 340 785 358 757 l 208 990 q 205 1028 194 1011 q 234 1047 215 1044 q 267 1028 253 1050 l 383 831 l 500 1028 q 533 1047 514 1050 q 562 1028 551 1044 q 558 990 572 1011 l 426 785 q 408 765 418 772 q 383 757 397 757 z "},"ḝ":{"ha":729,"x_min":69,"x_max":663,"o":"m 399 -10 q 158 83 246 -10 q 69 339 69 175 q 157 593 69 496 q 383 690 244 690 q 588 606 513 690 q 663 376 663 522 q 617 328 663 328 l 136 328 l 135 388 l 621 388 l 593 356 q 383 626 601 626 q 211 551 274 626 q 149 342 149 475 q 213 131 149 204 q 397 58 276 58 q 553 99 503 58 q 628 140 604 140 q 656 108 656 140 q 608 50 656 78 q 502 5 556 19 q 399 -10 449 -10 m 399 -265 q 351 -261 376 -265 q 306 -249 326 -257 q 285 -212 278 -237 q 325 -196 292 -186 q 363 -205 347 -203 q 403 -207 379 -207 q 488 -153 488 -207 q 442 -111 488 -111 q 400 -119 419 -111 q 369 -126 381 -126 q 343 -100 340 -126 l 357 28 l 422 28 l 411 -71 l 394 -72 q 419 -61 404 -65 q 451 -57 435 -57 q 521 -79 488 -57 q 554 -153 554 -101 q 514 -233 554 -200 q 399 -265 474 -265 m 383 810 q 262 843 317 810 q 178 944 207 876 q 194 996 161 983 q 244 971 226 1008 q 383 874 290 874 q 522 971 476 874 q 572 996 540 1008 q 589 944 604 983 q 506 843 561 876 q 383 810 450 810 z "},"ê":{"ha":729,"x_min":69,"x_max":663,"o":"m 399 -10 q 158 83 246 -10 q 69 339 69 175 q 157 593 69 496 q 383 690 244 690 q 588 606 513 690 q 663 376 663 522 q 617 328 663 328 l 136 328 l 135 388 l 621 388 l 593 356 q 383 626 601 626 q 211 551 274 626 q 149 342 149 475 q 213 131 149 204 q 397 58 276 58 q 553 99 503 58 q 628 140 604 140 q 656 108 656 140 q 608 50 656 78 q 502 5 556 19 q 399 -10 449 -10 m 265 776 q 233 758 253 756 q 204 776 214 760 q 208 814 194 792 l 340 1019 q 359 1040 349 1032 q 383 1047 369 1047 q 426 1019 408 1047 l 558 814 q 563 776 572 792 q 533 758 553 760 q 501 776 514 756 l 383 974 l 265 776 z "},"ế":{"ha":729,"x_min":69,"x_max":708,"o":"m 399 -10 q 158 83 246 -10 q 69 339 69 175 q 157 593 69 496 q 383 690 244 690 q 588 606 513 690 q 663 376 663 522 q 617 328 663 328 l 136 328 l 135 388 l 621 388 l 593 356 q 383 626 601 626 q 211 551 274 626 q 149 342 149 475 q 213 131 149 204 q 397 58 276 58 q 553 99 503 58 q 628 140 604 140 q 656 108 656 140 q 608 50 656 78 q 502 5 556 19 q 399 -10 449 -10 m 258 771 q 225 758 243 753 q 201 782 207 764 q 211 819 194 800 l 340 960 q 383 981 360 981 q 426 960 406 981 l 556 819 q 566 782 572 800 q 542 758 560 764 q 508 771 524 753 l 383 915 l 258 771 m 547 906 q 515 906 532 892 q 513 938 497 919 l 628 1088 q 663 1110 644 1108 q 695 1101 682 1113 q 708 1070 708 1089 q 686 1032 708 1051 l 547 906 z "},"ệ":{"ha":729,"x_min":69,"x_max":663,"o":"m 399 -10 q 158 83 246 -10 q 69 339 69 175 q 157 593 69 496 q 383 690 244 690 q 588 606 513 690 q 663 376 663 522 q 617 328 663 328 l 136 328 l 135 388 l 621 388 l 593 356 q 383 626 601 626 q 211 551 274 626 q 149 342 149 475 q 213 131 149 204 q 397 58 276 58 q 553 99 503 58 q 628 140 604 140 q 656 108 656 140 q 608 50 656 78 q 502 5 556 19 q 399 -10 449 -10 m 399 -251 q 357 -236 374 -251 q 340 -194 340 -221 q 357 -153 340 -168 q 399 -137 374 -137 q 440 -153 424 -137 q 457 -194 457 -168 q 440 -236 457 -221 q 399 -251 424 -251 m 265 776 q 233 758 253 756 q 204 776 214 760 q 208 814 194 792 l 340 1019 q 359 1040 349 1032 q 383 1047 369 1047 q 426 1019 408 1047 l 558 814 q 563 776 572 792 q 533 758 553 760 q 501 776 514 756 l 383 974 l 265 776 z "},"ề":{"ha":729,"x_min":69,"x_max":663,"o":"m 399 -10 q 158 83 246 -10 q 69 339 69 175 q 157 593 69 496 q 383 690 244 690 q 588 606 513 690 q 663 376 663 522 q 617 328 663 328 l 136 328 l 135 388 l 621 388 l 593 356 q 383 626 601 626 q 211 551 274 626 q 149 342 149 475 q 213 131 149 204 q 397 58 276 58 q 553 99 503 58 q 628 140 604 140 q 656 108 656 140 q 608 50 656 78 q 502 5 556 19 q 399 -10 449 -10 m 258 771 q 225 758 243 753 q 201 782 207 764 q 211 819 194 800 l 340 960 q 383 981 360 981 q 426 960 406 981 l 556 819 q 566 782 572 800 q 542 758 560 764 q 508 771 524 753 l 383 915 l 258 771 m 553 910 l 458 1039 q 444 1081 440 1063 q 464 1109 449 1100 q 497 1113 479 1118 q 526 1083 515 1108 l 593 935 q 584 903 603 914 q 553 910 565 893 z "},"ể":{"ha":729,"x_min":69,"x_max":663,"o":"m 399 -10 q 158 83 246 -10 q 69 339 69 175 q 157 593 69 496 q 383 690 244 690 q 588 606 513 690 q 663 376 663 522 q 617 328 663 328 l 136 328 l 135 388 l 621 388 l 593 356 q 383 626 601 626 q 211 551 274 626 q 149 342 149 475 q 213 131 149 204 q 397 58 276 58 q 553 99 503 58 q 628 140 604 140 q 656 108 656 140 q 608 50 656 78 q 502 5 556 19 q 399 -10 449 -10 m 258 771 q 225 758 243 753 q 201 782 207 764 q 211 819 194 800 l 340 960 q 383 981 360 981 q 426 960 406 981 l 556 819 q 566 782 572 800 q 542 758 560 764 q 508 771 524 753 l 383 915 l 258 771 m 556 922 q 526 899 553 897 q 499 932 499 900 q 522 974 499 960 q 567 997 544 988 q 590 1022 590 1006 q 528 1049 590 1049 q 493 1047 508 1049 q 456 1038 478 1044 q 417 1055 424 1028 q 438 1093 410 1082 q 529 1110 479 1110 q 628 1085 593 1110 q 663 1025 663 1061 q 637 974 663 989 q 585 951 611 960 q 556 922 558 942 z "},"ễ":{"ha":729,"x_min":69,"x_max":663,"o":"m 399 -10 q 158 83 246 -10 q 69 339 69 175 q 157 593 69 496 q 383 690 244 690 q 588 606 513 690 q 663 376 663 522 q 617 328 663 328 l 136 328 l 135 388 l 621 388 l 593 356 q 383 626 601 626 q 211 551 274 626 q 149 342 149 475 q 213 131 149 204 q 397 58 276 58 q 553 99 503 58 q 628 140 604 140 q 656 108 656 140 q 608 50 656 78 q 502 5 556 19 q 399 -10 449 -10 m 258 771 q 225 758 243 753 q 201 782 207 764 q 211 819 194 800 l 340 960 q 383 981 360 981 q 426 960 406 981 l 556 819 q 566 782 572 800 q 542 758 560 764 q 508 771 524 753 l 383 915 l 258 771 m 479 996 q 376 1026 429 996 q 288 1056 324 1056 q 227 1027 239 1056 q 196 999 215 999 q 171 1026 171 999 q 201 1091 171 1058 q 288 1124 232 1124 q 390 1094 338 1124 q 479 1064 443 1064 q 540 1092 528 1064 q 571 1121 551 1121 q 596 1093 596 1121 q 565 1028 596 1061 q 479 996 535 996 z "},"ȅ":{"ha":729,"x_min":69,"x_max":663,"o":"m 399 -10 q 158 83 246 -10 q 69 339 69 175 q 157 593 69 496 q 383 690 244 690 q 588 606 513 690 q 663 376 663 522 q 617 328 663 328 l 136 328 l 135 388 l 621 388 l 593 356 q 383 626 601 626 q 211 551 274 626 q 149 342 149 475 q 213 131 149 204 q 397 58 276 58 q 553 99 503 58 q 628 140 604 140 q 656 108 656 140 q 608 50 656 78 q 502 5 556 19 q 399 -10 449 -10 m 444 768 l 336 988 q 335 1037 321 1019 q 374 1051 350 1054 q 407 1014 397 1047 l 481 782 q 469 757 486 764 q 444 768 453 750 m 286 768 l 178 988 q 177 1037 163 1019 q 215 1051 192 1054 q 249 1014 239 1047 l 322 782 q 311 757 328 764 q 286 768 294 750 z "},"ë":{"ha":729,"x_min":69,"x_max":663,"o":"m 399 -10 q 158 83 246 -10 q 69 339 69 175 q 157 593 69 496 q 383 690 244 690 q 588 606 513 690 q 663 376 663 522 q 617 328 663 328 l 136 328 l 135 388 l 621 388 l 593 356 q 383 626 601 626 q 211 551 274 626 q 149 342 149 475 q 213 131 149 204 q 397 58 276 58 q 553 99 503 58 q 628 140 604 140 q 656 108 656 140 q 608 50 656 78 q 502 5 556 19 q 399 -10 449 -10 m 497 850 q 458 865 475 850 q 442 904 442 881 q 458 943 442 928 q 497 958 475 958 q 536 943 519 958 q 553 904 553 928 q 536 865 553 881 q 497 850 519 850 m 269 850 q 231 865 247 850 q 214 904 214 881 q 231 943 214 928 q 269 958 247 958 q 308 943 292 958 q 325 904 325 928 q 308 865 325 881 q 269 850 292 850 z "},"ė":{"ha":729,"x_min":69,"x_max":663,"o":"m 399 -10 q 158 83 246 -10 q 69 339 69 175 q 157 593 69 496 q 383 690 244 690 q 588 606 513 690 q 663 376 663 522 q 617 328 663 328 l 136 328 l 135 388 l 621 388 l 593 356 q 383 626 601 626 q 211 551 274 626 q 149 342 149 475 q 213 131 149 204 q 397 58 276 58 q 553 99 503 58 q 628 140 604 140 q 656 108 656 140 q 608 50 656 78 q 502 5 556 19 q 399 -10 449 -10 m 383 847 q 342 863 358 847 q 325 904 325 878 q 383 961 325 961 q 425 946 408 961 q 442 904 442 931 q 425 863 442 878 q 383 847 408 847 z "},"ẹ":{"ha":729,"x_min":69,"x_max":663,"o":"m 399 -10 q 158 83 246 -10 q 69 339 69 175 q 157 593 69 496 q 383 690 244 690 q 588 606 513 690 q 663 376 663 522 q 617 328 663 328 l 136 328 l 135 388 l 621 388 l 593 356 q 383 626 601 626 q 211 551 274 626 q 149 342 149 475 q 213 131 149 204 q 397 58 276 58 q 553 99 503 58 q 628 140 604 140 q 656 108 656 140 q 608 50 656 78 q 502 5 556 19 q 399 -10 449 -10 m 399 -251 q 357 -236 374 -251 q 340 -194 340 -221 q 357 -153 340 -168 q 399 -137 374 -137 q 440 -153 424 -137 q 457 -194 457 -168 q 440 -236 457 -221 q 399 -251 424 -251 z "},"è":{"ha":729,"x_min":69,"x_max":663,"o":"m 399 -10 q 158 83 246 -10 q 69 339 69 175 q 157 593 69 496 q 383 690 244 690 q 588 606 513 690 q 663 376 663 522 q 617 328 663 328 l 136 328 l 135 388 l 621 388 l 593 356 q 383 626 601 626 q 211 551 274 626 q 149 342 149 475 q 213 131 149 204 q 397 58 276 58 q 553 99 503 58 q 628 140 604 140 q 656 108 656 140 q 608 50 656 78 q 502 5 556 19 q 399 -10 449 -10 m 365 764 l 158 967 q 136 1009 136 989 q 150 1041 136 1029 q 184 1050 164 1053 q 222 1024 204 1047 l 400 794 q 398 762 414 775 q 365 764 382 749 z "},"ẻ":{"ha":729,"x_min":69,"x_max":663,"o":"m 399 -10 q 158 83 246 -10 q 69 339 69 175 q 157 593 69 496 q 383 690 244 690 q 588 606 513 690 q 663 376 663 522 q 617 328 663 328 l 136 328 l 135 388 l 621 388 l 593 356 q 383 626 601 626 q 211 551 274 626 q 149 342 149 475 q 213 131 149 204 q 397 58 276 58 q 553 99 503 58 q 628 140 604 140 q 656 108 656 140 q 608 50 656 78 q 502 5 556 19 q 399 -10 449 -10 m 417 792 q 399 762 414 769 q 369 764 383 754 q 354 801 354 774 q 377 864 354 839 q 424 910 400 889 q 447 953 447 931 q 386 988 447 988 q 351 985 367 988 q 314 975 336 982 q 275 990 282 964 q 296 1029 268 1017 q 388 1049 339 1049 q 486 1023 451 1049 q 521 957 521 997 q 497 891 521 914 q 446 848 472 868 q 417 792 419 828 z "},"ȇ":{"ha":729,"x_min":69,"x_max":663,"o":"m 399 -10 q 158 83 246 -10 q 69 339 69 175 q 157 593 69 496 q 383 690 244 690 q 588 606 513 690 q 663 376 663 522 q 617 328 663 328 l 136 328 l 135 388 l 621 388 l 593 356 q 383 626 601 626 q 211 551 274 626 q 149 342 149 475 q 213 131 149 204 q 397 58 276 58 q 553 99 503 58 q 628 140 604 140 q 656 108 656 140 q 608 50 656 78 q 502 5 556 19 q 399 -10 449 -10 m 244 838 q 194 813 226 800 q 178 864 163 825 q 261 965 206 932 q 383 999 317 999 q 505 965 450 999 q 589 864 560 932 q 573 813 606 825 q 522 838 540 800 q 383 935 476 935 q 244 838 290 935 z "},"ē":{"ha":729,"x_min":69,"x_max":663,"o":"m 399 -10 q 158 83 246 -10 q 69 339 69 175 q 157 593 69 496 q 383 690 244 690 q 588 606 513 690 q 663 376 663 522 q 617 328 663 328 l 136 328 l 135 388 l 621 388 l 593 356 q 383 626 601 626 q 211 551 274 626 q 149 342 149 475 q 213 131 149 204 q 397 58 276 58 q 553 99 503 58 q 628 140 604 140 q 656 108 656 140 q 608 50 656 78 q 502 5 556 19 q 399 -10 449 -10 m 215 871 q 172 904 172 871 q 215 938 172 938 l 551 938 q 594 904 594 938 q 551 871 594 871 l 215 871 z "},"ḗ":{"ha":729,"x_min":69,"x_max":663,"o":"m 399 -10 q 158 83 246 -10 q 69 339 69 175 q 157 593 69 496 q 383 690 244 690 q 588 606 513 690 q 663 376 663 522 q 617 328 663 328 l 136 328 l 135 388 l 621 388 l 593 356 q 383 626 601 626 q 211 551 274 626 q 149 342 149 475 q 213 131 149 204 q 397 58 276 58 q 553 99 503 58 q 628 140 604 140 q 656 108 656 140 q 608 50 656 78 q 502 5 556 19 q 399 -10 449 -10 m 215 871 q 172 904 172 871 q 215 938 172 938 l 551 938 q 594 904 594 938 q 551 871 594 871 l 215 871 m 401 1035 q 369 1033 385 1019 q 367 1065 353 1046 l 544 1294 q 583 1321 563 1318 q 617 1312 603 1324 q 631 1280 631 1300 q 608 1238 631 1260 l 401 1035 z "},"ḕ":{"ha":729,"x_min":69,"x_max":663,"o":"m 399 -10 q 158 83 246 -10 q 69 339 69 175 q 157 593 69 496 q 383 690 244 690 q 588 606 513 690 q 663 376 663 522 q 617 328 663 328 l 136 328 l 135 388 l 621 388 l 593 356 q 383 626 601 626 q 211 551 274 626 q 149 342 149 475 q 213 131 149 204 q 397 58 276 58 q 553 99 503 58 q 628 140 604 140 q 656 108 656 140 q 608 50 656 78 q 502 5 556 19 q 399 -10 449 -10 m 215 871 q 172 904 172 871 q 215 938 172 938 l 551 938 q 594 904 594 938 q 551 871 594 871 l 215 871 m 365 1035 l 158 1238 q 136 1280 136 1260 q 150 1312 136 1300 q 184 1321 164 1324 q 222 1294 204 1318 l 400 1065 q 398 1033 414 1046 q 365 1035 382 1019 z "},"ę":{"ha":729,"x_min":69,"x_max":663,"o":"m 540 -265 q 426 -225 469 -265 q 383 -122 383 -185 q 469 18 383 -33 l 488 7 q 435 -8 454 -6 q 399 -10 417 -10 q 158 83 246 -10 q 69 339 69 175 q 157 593 69 496 q 383 690 244 690 q 588 606 513 690 q 663 376 663 522 q 617 328 663 328 l 136 328 l 135 388 l 621 388 l 593 356 q 383 626 601 626 q 211 551 274 626 q 149 342 149 475 q 213 131 149 204 q 397 58 276 58 q 553 99 503 58 q 628 140 604 140 q 656 108 656 140 q 606 50 656 78 q 485 -34 518 1 q 453 -114 453 -69 q 547 -206 453 -206 q 614 -187 578 -206 q 653 -199 646 -171 q 636 -242 661 -228 q 540 -265 594 -265 z "},"ẽ":{"ha":729,"x_min":69,"x_max":663,"o":"m 399 -10 q 158 83 246 -10 q 69 339 69 175 q 157 593 69 496 q 383 690 244 690 q 588 606 513 690 q 663 376 663 522 q 617 328 663 328 l 136 328 l 135 388 l 621 388 l 593 356 q 383 626 601 626 q 211 551 274 626 q 149 342 149 475 q 213 131 149 204 q 397 58 276 58 q 553 99 503 58 q 628 140 604 140 q 656 108 656 140 q 608 50 656 78 q 502 5 556 19 q 399 -10 449 -10 m 479 825 q 377 870 428 825 q 288 915 326 915 q 229 875 240 915 q 196 835 218 835 q 171 863 171 835 q 201 940 171 894 q 288 985 232 985 q 390 940 339 985 q 479 894 440 894 q 538 935 526 894 q 571 975 549 975 q 596 947 596 975 q 565 871 596 917 q 479 825 535 825 z "},"ə":{"ha":729,"x_min":67,"x_max":660,"o":"m 350 -10 q 143 74 219 -10 q 67 304 67 158 q 113 353 67 353 l 593 353 l 594 293 l 108 293 l 140 325 q 351 54 132 54 q 522 128 461 54 q 582 339 582 203 q 518 549 582 475 q 338 622 454 622 q 181 581 231 622 q 107 540 131 540 q 79 572 79 540 q 126 631 79 603 q 231 676 178 661 q 336 690 285 690 q 573 597 486 690 q 660 342 660 504 q 575 85 660 181 q 350 -10 490 -10 z "},"f":{"ha":431,"x_min":4,"x_max":457,"o":"m 182 -7 q 155 3 165 -7 q 144 32 144 14 l 144 710 q 202 899 144 829 q 372 978 260 969 l 408 981 q 444 976 432 983 q 457 951 457 969 q 419 918 457 922 l 383 915 q 263 865 306 908 q 219 726 219 821 l 219 32 q 208 3 219 14 q 182 -7 197 -7 m 36 611 q 4 642 4 611 q 36 674 4 674 l 394 674 q 426 642 426 674 q 394 611 426 611 l 36 611 z "},"g":{"ha":797,"x_min":69,"x_max":683,"o":"m 401 -260 q 158 -200 258 -260 q 108 -142 108 -169 q 138 -110 108 -110 q 219 -151 161 -110 q 403 -192 278 -192 q 610 28 610 -192 l 610 185 l 624 207 q 535 69 600 117 q 372 21 469 21 q 153 113 236 21 q 69 356 69 206 q 153 598 69 506 q 372 690 236 690 q 535 642 469 690 q 624 504 600 594 l 608 528 l 608 649 q 646 688 608 688 q 683 649 683 688 l 683 36 q 401 -260 683 -260 m 379 89 q 548 160 488 89 q 608 356 608 232 q 548 551 608 479 q 379 622 488 622 q 210 551 272 622 q 149 356 149 481 q 210 160 149 231 q 379 89 272 89 z "},"ğ":{"ha":797,"x_min":69,"x_max":683,"o":"m 401 -260 q 158 -200 258 -260 q 108 -142 108 -169 q 138 -110 108 -110 q 219 -151 161 -110 q 403 -192 278 -192 q 610 28 610 -192 l 610 185 l 624 207 q 535 69 600 117 q 372 21 469 21 q 153 113 236 21 q 69 356 69 206 q 153 598 69 506 q 372 690 236 690 q 535 642 469 690 q 624 504 600 594 l 608 528 l 608 649 q 646 688 608 688 q 683 649 683 688 l 683 36 q 401 -260 683 -260 m 379 89 q 548 160 488 89 q 608 356 608 232 q 548 551 608 479 q 379 622 488 622 q 210 551 272 622 q 149 356 149 481 q 210 160 149 231 q 379 89 272 89 m 401 810 q 280 843 335 810 q 196 944 225 876 q 212 996 179 983 q 263 971 244 1008 q 401 874 308 874 q 540 971 494 874 q 590 996 558 1008 q 607 944 622 983 q 524 843 579 876 q 401 810 468 810 z "},"ǧ":{"ha":797,"x_min":69,"x_max":683,"o":"m 401 -260 q 158 -200 258 -260 q 108 -142 108 -169 q 138 -110 108 -110 q 219 -151 161 -110 q 403 -192 278 -192 q 610 28 610 -192 l 610 185 l 624 207 q 535 69 600 117 q 372 21 469 21 q 153 113 236 21 q 69 356 69 206 q 153 598 69 506 q 372 690 236 690 q 535 642 469 690 q 624 504 600 594 l 608 528 l 608 649 q 646 688 608 688 q 683 649 683 688 l 683 36 q 401 -260 683 -260 m 379 89 q 548 160 488 89 q 608 356 608 232 q 548 551 608 479 q 379 622 488 622 q 210 551 272 622 q 149 356 149 481 q 210 160 149 231 q 379 89 272 89 m 401 757 q 358 785 376 757 l 226 990 q 223 1028 213 1011 q 252 1047 233 1044 q 285 1028 271 1050 l 401 831 l 518 1028 q 551 1047 532 1050 q 580 1028 569 1044 q 576 990 590 1011 l 444 785 q 426 765 436 772 q 401 757 415 757 z "},"ĝ":{"ha":797,"x_min":69,"x_max":683,"o":"m 401 -260 q 158 -200 258 -260 q 108 -142 108 -169 q 138 -110 108 -110 q 219 -151 161 -110 q 403 -192 278 -192 q 610 28 610 -192 l 610 185 l 624 207 q 535 69 600 117 q 372 21 469 21 q 153 113 236 21 q 69 356 69 206 q 153 598 69 506 q 372 690 236 690 q 535 642 469 690 q 624 504 600 594 l 608 528 l 608 649 q 646 688 608 688 q 683 649 683 688 l 683 36 q 401 -260 683 -260 m 379 89 q 548 160 488 89 q 608 356 608 232 q 548 551 608 479 q 379 622 488 622 q 210 551 272 622 q 149 356 149 481 q 210 160 149 231 q 379 89 272 89 m 283 776 q 251 758 271 756 q 222 776 232 760 q 226 814 213 792 l 358 1019 q 377 1040 367 1032 q 401 1047 388 1047 q 444 1019 426 1047 l 576 814 q 581 776 590 792 q 551 758 571 760 q 519 776 532 756 l 401 974 l 283 776 z "},"ģ":{"ha":797,"x_min":69,"x_max":683,"o":"m 401 -260 q 158 -200 258 -260 q 108 -142 108 -169 q 138 -110 108 -110 q 219 -151 161 -110 q 403 -192 278 -192 q 610 28 610 -192 l 610 185 l 624 207 q 535 69 600 117 q 372 21 469 21 q 153 113 236 21 q 69 356 69 206 q 153 598 69 506 q 372 690 236 690 q 535 642 469 690 q 624 504 600 594 l 608 528 l 608 649 q 646 688 608 688 q 683 649 683 688 l 683 36 q 401 -260 683 -260 m 379 89 q 548 160 488 89 q 608 356 608 232 q 548 551 608 479 q 379 622 488 622 q 210 551 272 622 q 149 356 149 481 q 210 160 149 231 q 379 89 272 89 m 401 797 q 354 816 372 797 q 336 879 336 835 q 350 958 336 918 q 397 1035 364 999 q 428 1049 413 1050 q 449 1033 443 1047 q 440 1003 454 1019 q 408 951 418 976 q 397 897 397 926 l 371 908 l 396 908 q 438 894 421 908 q 456 851 456 879 q 440 813 456 828 q 401 797 425 797 z "},"ġ":{"ha":797,"x_min":69,"x_max":683,"o":"m 401 -260 q 158 -200 258 -260 q 108 -142 108 -169 q 138 -110 108 -110 q 219 -151 161 -110 q 403 -192 278 -192 q 610 28 610 -192 l 610 185 l 624 207 q 535 69 600 117 q 372 21 469 21 q 153 113 236 21 q 69 356 69 206 q 153 598 69 506 q 372 690 236 690 q 535 642 469 690 q 624 504 600 594 l 608 528 l 608 649 q 646 688 608 688 q 683 649 683 688 l 683 36 q 401 -260 683 -260 m 379 89 q 548 160 488 89 q 608 356 608 232 q 548 551 608 479 q 379 622 488 622 q 210 551 272 622 q 149 356 149 481 q 210 160 149 231 q 379 89 272 89 m 401 847 q 360 863 376 847 q 343 904 343 878 q 401 961 343 961 q 443 946 426 961 q 460 904 460 931 q 443 863 460 878 q 401 847 426 847 z "},"ḡ":{"ha":797,"x_min":69,"x_max":683,"o":"m 401 -260 q 158 -200 258 -260 q 108 -142 108 -169 q 138 -110 108 -110 q 219 -151 161 -110 q 403 -192 278 -192 q 610 28 610 -192 l 610 185 l 624 207 q 535 69 600 117 q 372 21 469 21 q 153 113 236 21 q 69 356 69 206 q 153 598 69 506 q 372 690 236 690 q 535 642 469 690 q 624 504 600 594 l 608 528 l 608 649 q 646 688 608 688 q 683 649 683 688 l 683 36 q 401 -260 683 -260 m 379 89 q 548 160 488 89 q 608 356 608 232 q 548 551 608 479 q 379 622 488 622 q 210 551 272 622 q 149 356 149 481 q 210 160 149 231 q 379 89 272 89 m 233 871 q 190 904 190 871 q 233 938 190 938 l 569 938 q 613 904 613 938 q 569 871 613 871 l 233 871 z "},"h":{"ha":775,"x_min":114,"x_max":664,"o":"m 151 -7 q 114 32 114 -7 l 114 947 q 124 976 114 965 q 151 986 135 986 q 189 947 189 986 l 189 531 l 172 518 q 265 647 199 603 q 419 690 332 690 q 664 431 664 690 l 664 32 q 626 -7 664 -7 q 589 32 589 -7 l 589 425 q 415 622 589 622 q 251 560 313 622 q 189 390 189 497 l 189 32 q 151 -7 189 -7 z "},"ħ":{"ha":775,"x_min":-25,"x_max":664,"o":"m 151 -7 q 114 32 114 -7 l 114 947 q 124 976 114 965 q 151 986 135 986 q 189 947 189 986 l 189 531 l 172 518 q 265 647 199 603 q 419 690 332 690 q 664 431 664 690 l 664 32 q 626 -7 664 -7 q 589 32 589 -7 l 589 425 q 415 622 589 622 q 251 560 313 622 q 189 390 189 497 l 189 32 q 151 -7 189 -7 m 7 782 q -25 813 -25 782 q 7 844 -25 844 l 435 844 q 467 813 467 844 q 435 782 467 782 l 7 782 z "},"ḫ":{"ha":775,"x_min":114,"x_max":664,"o":"m 151 -7 q 114 32 114 -7 l 114 947 q 124 976 114 965 q 151 986 135 986 q 189 947 189 986 l 189 531 l 172 518 q 265 647 199 603 q 419 690 332 690 q 664 431 664 690 l 664 32 q 626 -7 664 -7 q 589 32 589 -7 l 589 425 q 415 622 589 622 q 251 560 313 622 q 189 390 189 497 l 189 32 q 151 -7 189 -7 m 388 -285 q 266 -251 321 -285 q 182 -150 211 -218 q 198 -99 165 -111 q 249 -124 231 -86 q 388 -218 293 -218 q 526 -124 482 -218 q 576 -99 544 -86 q 593 -150 608 -111 q 510 -251 565 -218 q 388 -285 454 -285 z "},"ĥ":{"ha":775,"x_min":-37,"x_max":664,"o":"m 151 -7 q 114 32 114 -7 l 114 947 q 124 976 114 965 q 151 986 135 986 q 189 947 189 986 l 189 531 l 172 518 q 265 647 199 603 q 419 690 332 690 q 664 431 664 690 l 664 32 q 626 -7 664 -7 q 589 32 589 -7 l 589 425 q 415 622 589 622 q 251 560 313 622 q 189 390 189 497 l 189 32 q 151 -7 189 -7 m 26 1068 q -8 1056 10 1050 q -31 1079 -25 1061 q -21 1117 -37 1097 l 108 1257 q 151 1278 128 1278 q 194 1257 174 1278 l 324 1117 q 334 1079 340 1097 q 310 1056 328 1061 q 276 1068 293 1050 l 151 1213 l 26 1068 z "},"ḥ":{"ha":775,"x_min":114,"x_max":664,"o":"m 151 -7 q 114 32 114 -7 l 114 947 q 124 976 114 965 q 151 986 135 986 q 189 947 189 986 l 189 531 l 172 518 q 265 647 199 603 q 419 690 332 690 q 664 431 664 690 l 664 32 q 626 -7 664 -7 q 589 32 589 -7 l 589 425 q 415 622 589 622 q 251 560 313 622 q 189 390 189 497 l 189 32 q 151 -7 189 -7 m 388 -251 q 346 -236 363 -251 q 329 -194 329 -221 q 346 -153 329 -168 q 388 -137 363 -137 q 429 -153 413 -137 q 446 -194 446 -168 q 429 -236 446 -221 q 388 -251 413 -251 z "},"i":{"ha":303,"x_min":93,"x_max":210,"o":"m 151 -7 q 124 3 135 -7 q 114 32 114 14 l 114 649 q 124 677 114 667 q 151 688 135 688 q 178 677 168 688 q 189 649 189 667 l 189 32 q 178 3 189 14 q 151 -7 168 -7 m 151 847 q 110 863 126 847 q 93 904 93 878 q 151 961 93 961 q 193 946 176 961 q 210 904 210 931 q 193 863 210 878 q 151 847 176 847 z "},"ı":{"ha":303,"x_min":114,"x_max":189,"o":"m 151 -7 q 124 3 135 -7 q 114 32 114 14 l 114 649 q 124 677 114 667 q 151 688 135 688 q 178 677 168 688 q 189 649 189 667 l 189 32 q 178 3 189 14 q 151 -7 168 -7 z "},"í":{"ha":303,"x_min":114,"x_max":399,"o":"m 151 -7 q 124 3 135 -7 q 114 32 114 14 l 114 649 q 124 677 114 667 q 151 688 135 688 q 178 677 168 688 q 189 649 189 667 l 189 32 q 178 3 189 14 q 151 -7 168 -7 m 169 764 q 137 762 153 749 q 135 794 121 775 l 313 1024 q 351 1050 331 1047 q 385 1041 371 1053 q 399 1009 399 1029 q 376 967 399 989 l 169 764 z "},"ĭ":{"ha":303,"x_min":-71,"x_max":372,"o":"m 151 -7 q 124 3 135 -7 q 114 32 114 14 l 114 649 q 124 677 114 667 q 151 688 135 688 q 178 677 168 688 q 189 649 189 667 l 189 32 q 178 3 189 14 q 151 -7 168 -7 m 151 810 q 30 843 85 810 q -54 944 -25 876 q -38 996 -71 983 q 13 971 -6 1008 q 151 874 58 874 q 290 971 244 874 q 340 996 308 1008 q 357 944 372 983 q 274 843 329 876 q 151 810 218 810 z "},"î":{"ha":303,"x_min":-37,"x_max":340,"o":"m 151 -7 q 124 3 135 -7 q 114 32 114 14 l 114 649 q 124 677 114 667 q 151 688 135 688 q 178 677 168 688 q 189 649 189 667 l 189 32 q 178 3 189 14 q 151 -7 168 -7 m 33 776 q 1 758 21 756 q -28 776 -18 760 q -24 814 -37 792 l 108 1019 q 127 1040 117 1032 q 151 1047 138 1047 q 194 1019 176 1047 l 326 814 q 331 776 340 792 q 301 758 321 760 q 269 776 282 756 l 151 974 l 33 776 z "},"ȉ":{"ha":303,"x_min":-69,"x_max":254,"o":"m 151 -7 q 124 3 135 -7 q 114 32 114 14 l 114 649 q 124 677 114 667 q 151 688 135 688 q 178 677 168 688 q 189 649 189 667 l 189 32 q 178 3 189 14 q 151 -7 168 -7 m 213 768 l 104 988 q 103 1037 89 1019 q 142 1051 118 1054 q 175 1014 165 1047 l 249 782 q 238 757 254 764 q 213 768 221 750 m 54 768 l -54 988 q -55 1037 -69 1019 q -17 1051 -40 1054 q 17 1014 7 1047 l 90 782 q 79 757 96 764 q 54 768 63 750 z "},"ï":{"ha":303,"x_min":-18,"x_max":321,"o":"m 151 -7 q 124 3 135 -7 q 114 32 114 14 l 114 649 q 124 677 114 667 q 151 688 135 688 q 178 677 168 688 q 189 649 189 667 l 189 32 q 178 3 189 14 q 151 -7 168 -7 m 265 850 q 226 865 243 850 q 210 904 210 881 q 226 943 210 928 q 265 958 243 958 q 304 943 288 958 q 321 904 321 928 q 304 865 321 881 q 265 850 288 850 m 38 850 q -1 865 15 850 q -18 904 -18 881 q -1 943 -18 928 q 38 958 15 958 q 76 943 60 958 q 93 904 93 928 q 76 865 93 881 q 38 850 60 850 z "},"ḯ":{"ha":303,"x_min":-18,"x_max":399,"o":"m 151 -7 q 124 3 135 -7 q 114 32 114 14 l 114 649 q 124 677 114 667 q 151 688 135 688 q 178 677 168 688 q 189 649 189 667 l 189 32 q 178 3 189 14 q 151 -7 168 -7 m 265 850 q 226 865 243 850 q 210 904 210 881 q 226 943 210 928 q 265 958 243 958 q 304 943 288 958 q 321 904 321 928 q 304 865 321 881 q 265 850 288 850 m 38 850 q -1 865 15 850 q -18 904 -18 881 q -1 943 -18 928 q 38 958 15 958 q 76 943 60 958 q 93 904 93 928 q 76 865 93 881 q 38 850 60 850 m 169 1035 q 137 1033 153 1019 q 135 1065 121 1046 l 313 1294 q 351 1321 331 1318 q 385 1312 371 1324 q 399 1280 399 1300 q 376 1238 399 1260 l 169 1035 z "},"ị":{"ha":303,"x_min":92,"x_max":210,"o":"m 151 -7 q 124 3 135 -7 q 114 32 114 14 l 114 649 q 124 677 114 667 q 151 688 135 688 q 178 677 168 688 q 189 649 189 667 l 189 32 q 178 3 189 14 q 151 -7 168 -7 m 151 847 q 110 863 126 847 q 93 904 93 878 q 151 961 93 961 q 193 946 176 961 q 210 904 210 931 q 193 863 210 878 q 151 847 176 847 m 150 -251 q 108 -236 125 -251 q 92 -194 92 -221 q 108 -153 92 -168 q 150 -137 125 -137 q 192 -153 175 -137 q 208 -194 208 -168 q 192 -236 208 -221 q 150 -251 175 -251 z "},"ì":{"ha":303,"x_min":-96,"x_max":189,"o":"m 151 -7 q 124 3 135 -7 q 114 32 114 14 l 114 649 q 124 677 114 667 q 151 688 135 688 q 178 677 168 688 q 189 649 189 667 l 189 32 q 178 3 189 14 q 151 -7 168 -7 m 133 764 l -74 967 q -96 1009 -96 989 q -82 1041 -96 1029 q -48 1050 -68 1053 q -10 1024 -28 1047 l 168 794 q 166 762 182 775 q 133 764 150 749 z "},"ỉ":{"ha":303,"x_min":36,"x_max":289,"o":"m 151 -7 q 124 3 135 -7 q 114 32 114 14 l 114 649 q 124 677 114 667 q 151 688 135 688 q 178 677 168 688 q 189 649 189 667 l 189 32 q 178 3 189 14 q 151 -7 168 -7 m 185 792 q 167 762 182 769 q 137 764 151 754 q 122 801 122 774 q 145 864 122 839 q 192 910 168 889 q 215 953 215 931 q 154 988 215 988 q 119 985 135 988 q 82 975 104 982 q 43 990 50 964 q 64 1029 36 1017 q 156 1049 107 1049 q 254 1023 219 1049 q 289 957 289 997 q 265 891 289 914 q 214 848 240 868 q 185 792 188 828 z "},"ȋ":{"ha":303,"x_min":-69,"x_max":374,"o":"m 151 -7 q 124 3 135 -7 q 114 32 114 14 l 114 649 q 124 677 114 667 q 151 688 135 688 q 178 677 168 688 q 189 649 189 667 l 189 32 q 178 3 189 14 q 151 -7 168 -7 m 13 838 q -37 813 -6 800 q -54 864 -69 825 q 29 965 -26 932 q 151 999 85 999 q 273 965 218 999 q 357 864 328 932 q 341 813 374 825 q 290 838 308 800 q 151 935 244 935 q 13 838 58 935 z "},"ī":{"ha":303,"x_min":-60,"x_max":363,"o":"m 151 -7 q 124 3 135 -7 q 114 32 114 14 l 114 649 q 124 677 114 667 q 151 688 135 688 q 178 677 168 688 q 189 649 189 667 l 189 32 q 178 3 189 14 q 151 -7 168 -7 m -17 871 q -60 904 -60 871 q -17 938 -60 938 l 319 938 q 363 904 363 938 q 319 871 363 871 l -17 871 z "},"į":{"ha":303,"x_min":-14,"x_max":264,"o":"m 143 -265 q 29 -225 72 -265 q -14 -122 -14 -185 q 32 -10 -14 -58 q 165 53 78 39 l 128 3 q 119 13 124 6 q 114 33 114 21 l 114 649 q 124 677 114 667 q 151 688 135 688 q 178 677 168 688 q 189 649 189 667 l 189 33 q 181 10 189 19 q 161 -3 174 0 q 82 -41 108 -11 q 56 -114 56 -71 q 82 -182 56 -158 q 150 -206 108 -206 q 217 -187 181 -206 q 256 -199 249 -171 q 239 -242 264 -228 q 143 -265 197 -265 m 151 847 q 110 863 126 847 q 93 904 93 878 q 151 961 93 961 q 193 946 176 961 q 210 904 210 931 q 193 863 210 878 q 151 847 176 847 z "},"ĩ":{"ha":303,"x_min":-61,"x_max":364,"o":"m 151 -7 q 124 3 135 -7 q 114 32 114 14 l 114 649 q 124 677 114 667 q 151 688 135 688 q 178 677 168 688 q 189 649 189 667 l 189 32 q 178 3 189 14 q 151 -7 168 -7 m 247 825 q 145 870 196 825 q 56 915 94 915 q -3 875 8 915 q -36 835 -14 835 q -61 863 -61 835 q -31 940 -61 894 q 56 985 0 985 q 158 940 107 985 q 247 894 208 894 q 306 935 294 894 q 339 975 317 975 q 364 947 364 975 q 333 871 364 917 q 247 825 303 825 z "},"j":{"ha":303,"x_min":-101,"x_max":210,"o":"m -53 -253 q -101 -222 -101 -257 q -65 -190 -101 -193 l -28 -187 q 78 -146 42 -182 q 114 -17 114 -110 l 114 649 q 124 677 114 667 q 151 688 135 688 q 178 677 168 688 q 189 649 189 667 l 189 -14 q 139 -188 189 -133 q -15 -250 89 -243 l -53 -253 m 151 847 q 110 863 126 847 q 93 904 93 878 q 151 961 93 961 q 193 946 176 961 q 210 904 210 931 q 193 863 210 878 q 151 847 176 847 z "},"ȷ":{"ha":303,"x_min":-101,"x_max":189,"o":"m -53 -253 q -101 -222 -101 -257 q -65 -190 -101 -193 l -28 -187 q 78 -146 42 -182 q 114 -17 114 -110 l 114 649 q 124 677 114 667 q 151 688 135 688 q 178 677 168 688 q 189 649 189 667 l 189 -14 q 139 -188 189 -133 q -15 -250 89 -243 l -53 -253 z "},"ĵ":{"ha":303,"x_min":-101,"x_max":340,"o":"m -53 -253 q -101 -222 -101 -257 q -65 -190 -101 -193 l -28 -187 q 78 -146 42 -182 q 114 -17 114 -110 l 114 649 q 124 677 114 667 q 151 688 135 688 q 178 677 168 688 q 189 649 189 667 l 189 -14 q 139 -188 189 -133 q -15 -250 89 -243 l -53 -253 m 33 776 q 1 758 21 756 q -28 776 -18 760 q -24 814 -37 792 l 108 1019 q 127 1040 117 1032 q 151 1047 138 1047 q 194 1019 176 1047 l 326 814 q 331 776 340 792 q 301 758 321 760 q 269 776 282 756 l 151 974 l 33 776 z "},"k":{"ha":664,"x_min":114,"x_max":636,"o":"m 572 4 l 171 344 l 540 674 q 578 683 560 692 q 601 656 596 675 q 586 619 606 636 l 244 318 l 243 376 l 614 60 q 632 22 636 42 q 610 -6 628 3 q 572 4 592 -14 m 151 -7 q 124 3 135 -7 q 114 32 114 14 l 114 947 q 124 976 114 967 q 151 986 135 986 q 178 976 167 986 q 189 947 189 967 l 189 32 q 178 3 189 14 q 151 -7 167 -7 z "},"ķ":{"ha":664,"x_min":114,"x_max":636,"o":"m 572 4 l 171 344 l 540 674 q 578 683 560 692 q 601 656 596 675 q 586 619 606 636 l 244 318 l 243 376 l 614 60 q 632 22 636 42 q 610 -6 628 3 q 572 4 592 -14 m 151 -7 q 124 3 135 -7 q 114 32 114 14 l 114 947 q 124 976 114 967 q 151 986 135 986 q 178 976 167 986 q 189 947 189 967 l 189 32 q 178 3 189 14 q 151 -7 167 -7 m 336 -335 q 306 -349 321 -350 q 285 -333 290 -347 q 293 -303 279 -319 q 326 -251 315 -276 q 336 -197 336 -226 l 363 -208 l 338 -208 q 295 -194 313 -208 q 278 -151 278 -179 q 293 -112 278 -128 q 332 -97 308 -97 q 379 -116 361 -97 q 397 -179 397 -135 q 383 -258 397 -218 q 336 -335 369 -299 z "},"ĸ":{"ha":664,"x_min":114,"x_max":636,"o":"m 572 4 l 171 344 l 540 674 q 578 683 560 692 q 601 656 596 675 q 586 619 606 636 l 244 318 l 243 376 l 614 60 q 632 22 636 42 q 610 -6 628 3 q 572 4 592 -14 m 151 -7 q 124 3 135 -7 q 114 32 114 14 l 114 649 q 124 677 114 667 q 151 688 135 688 q 178 677 167 688 q 189 649 189 667 l 189 32 q 178 3 189 14 q 151 -7 167 -7 z "},"l":{"ha":303,"x_min":114,"x_max":189,"o":"m 151 -7 q 124 3 135 -7 q 114 32 114 14 l 114 947 q 124 976 114 967 q 151 986 135 986 q 178 976 167 986 q 189 947 189 967 l 189 32 q 178 3 189 14 q 151 -7 167 -7 z "},"ĺ":{"ha":303,"x_min":114,"x_max":363,"o":"m 151 -7 q 124 3 135 -7 q 114 32 114 14 l 114 947 q 124 976 114 967 q 151 986 135 986 q 178 976 167 986 q 189 947 189 967 l 189 32 q 178 3 189 14 q 151 -7 167 -7 m 168 1061 q 135 1062 150 1047 q 136 1094 121 1076 l 281 1257 q 318 1278 299 1278 q 350 1267 338 1279 q 361 1235 363 1254 q 336 1197 360 1215 l 168 1061 z "},"ľ":{"ha":303,"x_min":114,"x_max":328,"o":"m 292 732 q 266 711 289 708 q 243 736 243 714 l 243 942 q 265 984 243 975 q 307 980 286 993 q 322 935 328 967 l 292 732 m 151 -7 q 124 3 135 -7 q 114 32 114 14 l 114 947 q 124 976 114 967 q 151 986 135 986 q 178 976 167 986 q 189 947 189 967 l 189 32 q 178 3 189 14 q 151 -7 167 -7 z "},"ļ":{"ha":303,"x_min":97,"x_max":217,"o":"m 151 -7 q 124 3 135 -7 q 114 32 114 14 l 114 947 q 124 976 114 967 q 151 986 135 986 q 178 976 167 986 q 189 947 189 967 l 189 32 q 178 3 189 14 q 151 -7 167 -7 m 156 -335 q 125 -349 140 -350 q 104 -333 110 -347 q 113 -303 99 -319 q 145 -251 135 -276 q 156 -197 156 -226 l 182 -208 l 157 -208 q 115 -194 132 -208 q 97 -151 97 -179 q 113 -112 97 -128 q 151 -97 128 -97 q 199 -116 181 -97 q 217 -179 217 -135 q 203 -258 217 -218 q 156 -335 189 -299 z "},"ŀ":{"ha":303,"x_min":114,"x_max":358,"o":"m 151 -7 q 124 3 135 -7 q 114 32 114 14 l 114 947 q 124 976 114 967 q 151 986 135 986 q 178 976 167 986 q 189 947 189 967 l 189 32 q 178 3 189 14 q 151 -7 167 -7 m 300 433 q 258 449 275 433 q 242 490 242 464 q 300 547 242 547 q 342 532 325 547 q 358 490 358 517 q 342 449 358 464 q 300 433 325 433 z "},"ḷ":{"ha":303,"x_min":93,"x_max":210,"o":"m 151 -7 q 124 3 135 -7 q 114 32 114 14 l 114 947 q 124 976 114 967 q 151 986 135 986 q 178 976 167 986 q 189 947 189 967 l 189 32 q 178 3 189 14 q 151 -7 167 -7 m 151 -251 q 110 -236 126 -251 q 93 -194 93 -221 q 110 -153 93 -168 q 151 -137 126 -137 q 193 -153 176 -137 q 210 -194 210 -168 q 193 -236 210 -221 q 151 -251 176 -251 z "},"ǉ":{"ha":606,"x_min":114,"x_max":513,"o":"m 151 -7 q 124 3 135 -7 q 114 32 114 14 l 114 947 q 124 976 114 967 q 151 986 135 986 q 178 976 167 986 q 189 947 189 967 l 189 32 q 178 3 189 14 q 151 -7 167 -7 m 250 -253 q 201 -222 201 -257 q 238 -190 201 -193 l 275 -187 q 381 -146 344 -182 q 417 -17 417 -110 l 417 649 q 427 677 417 667 q 454 688 438 688 q 481 677 471 688 q 492 649 492 667 l 492 -14 q 442 -188 492 -133 q 288 -250 392 -243 l 250 -253 m 454 847 q 413 863 429 847 q 396 904 396 878 q 454 961 396 961 q 496 946 479 961 q 513 904 513 931 q 496 863 513 878 q 454 847 479 847 z "}}}
